/* XPM */
static char *result[] = {
/* columns rows colors chars-per-pixel */
"48 48 217 2 ",
"   c #1E261A",
".  c #1E261B",
"X  c #1F261B",
"o  c #1F261C",
"O  c #20261C",
"+  c #20261D",
"@  c #21271D",
"#  c #20261F",
"$  c #22271F",
"%  c #212520",
"&  c #212620",
"*  c #232720",
"=  c #222523",
"-  c #242720",
";  c #232624",
":  c #252726",
">  c #262822",
",  c #262823",
"<  c #282924",
"1  c #26252B",
"2  c #2C292A",
"3  c #2D2A2A",
"4  c #2D2B2A",
"5  c #302B2D",
"6  c #302C2D",
"7  c #302C2E",
"8  c #2C2538",
"9  c #2D2539",
"0  c #2D243A",
"q  c #2E253A",
"w  c #332A34",
"e  c #362C34",
"r  c #372E35",
"t  c #382E36",
"y  c #382F36",
"u  c #372B3D",
"i  c #3B2E39",
"p  c #3B2F39",
"a  c #312540",
"s  c #342647",
"d  c #342548",
"f  c #36244B",
"g  c #36254B",
"h  c #37244C",
"j  c #3D2459",
"k  c #443243",
"l  c #443343",
"z  c #463445",
"x  c #4B344A",
"c  c #4D354D",
"v  c #4E364E",
"b  c #553856",
"n  c #402460",
"m  c #412461",
"M  c #422463",
"N  c #4B2475",
"B  c #4B2476",
"V  c #4C2477",
"C  c #603C62",
"Z  c #623C64",
"A  c #673F69",
"S  c #6F4172",
"D  c #704073",
"F  c #714374",
"G  c #744377",
"H  c #764479",
"J  c #77457A",
"K  c #78457B",
"L  c #532485",
"P  c #542486",
"I  c #5A2493",
"U  c #5C2498",
"Y  c #5D2499",
"T  c #6C25B6",
"R  c #6E25BB",
"E  c #6F25BC",
"W  c #7025BF",
"Q  c #7424C8",
"!  c #7624CC",
"~  c #7A25D3",
"^  c #7B25D4",
"/  c #7E25DA",
"(  c #7F25DB",
")  c #854B89",
"_  c #8C4C90",
"`  c #8E4D93",
"'  c #924F97",
"]  c #934F98",
"[  c #95509A",
"{  c #98509E",
"}  c #9D52A3",
"|  c #9E52A5",
" . c #A052A6",
".. c #A455AB",
"X. c #A654AC",
"o. c #A654AD",
"O. c #AE5AB5",
"+. c #B059B7",
"@. c #B35BBB",
"#. c #8025DD",
"$. c #8126E0",
"%. c #8325E4",
"&. c #8425E7",
"*. c #8426E6",
"=. c #8A25F3",
"-. c #8D26F7",
";. c #8D25F9",
":. c #8E24FB",
">. c #8E26FA",
",. c #8E27FA",
"<. c #8F27FB",
"1. c #8F26FC",
"2. c #9027FD",
"3. c #9026FE",
"4. c #9126FF",
"5. c #9127FF",
"6. c #9227FF",
"7. c #9129F8",
"8. c #9228FF",
"9. c #9328FF",
"0. c #9329FF",
"q. c #952BFF",
"w. c #972CFF",
"e. c #982DFF",
"r. c #9A2EFF",
"t. c #9C30FF",
"y. c #9E31FF",
"u. c #A437FF",
"i. c #A537FF",
"p. c #A839FF",
"a. c #A93AFF",
"s. c #AA3BFF",
"d. c #AB3CFF",
"f. c #AC3DFF",
"g. c #B040FF",
"h. c #B342FF",
"j. c #B644FF",
"k. c #BD4BFF",
"l. c #CA64D3",
"z. c #CE65D7",
"x. c #CA63D8",
"c. c #CE65D8",
"v. c #D167DB",
"b. c #D267DC",
"n. c #D368DD",
"m. c #C14EFF",
"M. c #C753FF",
"N. c #C853FF",
"B. c #CB56FF",
"V. c #D15BFF",
"C. c #D45DFF",
"Z. c #D65FFF",
"A. c #D96BE3",
"S. c #DA6AE5",
"D. c #DB6BE6",
"F. c #DD6DE8",
"G. c #DE6DE9",
"H. c #DB62FF",
"J. c #DC64FF",
"K. c #DE65FF",
"L. c #E46FEF",
"P. c #E56FF0",
"I. c #E369FF",
"U. c #E76CFF",
"Y. c #E86DFF",
"T. c #EA6FFF",
"R. c #E971F4",
"E. c #E971F5",
"W. c #EA72F5",
"Q. c #EE73F9",
"!. c #EF73FB",
"~. c #EC70FF",
"^. c #EF73FF",
"/. c #F175FD",
"(. c #F074FF",
"). c #F174FF",
"_. c #F275FE",
"`. c #F376FF",
"'. c #F377FF",
"]. c #F379FE",
"[. c #F37BFE",
"{. c #F478FF",
"}. c #F47AFF",
"|. c #F37CFE",
" X c #F384FB",
".X c #F387FA",
"XX c #F380FC",
"oX c #F382FC",
"OX c #F388FA",
"+X c #F48AFA",
"@X c #F297F5",
"#X c #F295F6",
"$X c #F394F7",
"%X c #F494F7",
"&X c #F39AF5",
"*X c #F398F6",
"=X c #F1B7EB",
"-X c #F2A0F2",
";X c #F2A0F3",
":X c #F2A4F2",
">X c #F2A9F0",
",X c #EFD7DF",
"<X c #EED9DE",
"1X c #EFD9DF",
"2X c #EEDADE",
"3X c #EEDCDD",
"4X c #EFCCE3",
"5X c #F1C2E7",
"6X c #F0C3E7",
"7X c #F0CCE3",
"8X c #F0CDE3",
"9X c #F0CFE2",
"0X c #F0C8E5",
"qX c #F0CAE4",
"wX c #EFD5E0",
"eX c #EFD7E0",
"rX c None",
/* pixels */
"rXrXrXrXrXrXrXrXrXrXrXrXrXrXrXrXrXrXrXrXrXrXrXrXrXrXrXrXrXrXrXrXrXrXrXrXrXrXrXrXrXrXrXrXrXrXrXrX",
"rXrXrXrXrXrXrXrXrXrXrXrXrXrXrXrXrXrXrXrXrXrXrXrXrXrXrXrXrXrXrXrXrXrXrXrXrXrXrXrXrXrXrXrXrXrXrXrX",
"rXrXrXrXrXrXrXrXrXrXrXrXrXrXrXrXrXrXrXrXrXrXrXrXrXrXrXrXrXrXrXrXrXrXrXrXrXrXrXrXrXrXrXrXrXrXrXrX",
"rXrXrXrXrXrXrXrXrXrXrXrXrXrXrXrXrXrXrXrXrXrXrXrXrXrXrXrXrXrXrXrXrXrXrXrXrXrXrXrXrXrXrXrXrXrXrXrX",
"rXrXrXrXrXrXrXrXrXrXrXrXrXrXrXrXrXrXrXrXrXrXrXrXrXrXrXrXrXrXrXrXrXrXrXrXrXrXrXrXrXrXrXrXrXrXrXrX",
"rXrXrXrXrXrXrXrXrXrXrXrXrXrXrXrXrXrXrXrXrXrXrXrXrXrXrXrXrXrXrXrXrXrXrXrXrXrXrXrXrXrXrXrXrXrXrXrX",
"rXrXrXrXrXrXrXrXrXrXrXrXrXrXrXrXrXrXrXrXrXrXrXrXrXrXrXrXrXrXrXrXrXrXrXrXrXrXrXrXrXrXrXrXrXrXrXrX",
"rXrXrXrXrXrXrXrXrXrXrXrXrXrXrXrXrXrXrXrX            rXrXrXrXrXrXrXrXrXrXrXrXrXrXrXrXrXrXrXrXrXrX",
"rXrXrXrXrXrXrXrXrXrXrXrXrXrXrXrX    4 z J ] X.o._ Z t -     rXrXrXrXrXrXrXrXrXrXrXrXrXrXrXrXrXrX",
"rXrXrXrXrXrXrXrXrXrXrXrXrXrX  5 G @.G./.`.`.`.`.`.`.E.b.` c X   rXrXrXrXrXrXrXrXrXrXrXrXrXrXrXrX",
"rXrXrXrXrXrXrXrXrXrXrXrX  p O.!.`.`.`.`.'.}.{.`.`.`.`.`.`.`.S.H @ rXrXrXrXrXrXrXrXrXrXrXrXrXrXrX",
"rXrXrXrXrXrXrXrXrXrXrX  S L.`.`.`.`..X>X0X9X8X=XXX`.`.`.`.`.`._.} > rXrXrXrXrXrXrXrXrXrXrXrXrXrX",
"rXrXrXrXrXrXrXrXrXrX  C _.`.`.`.+X5X3X3X3X3X3X3X4X[.`.`.`.`.`.`.`.z.6   rXrXrXrXrXrXrXrXrXrXrXrX",
"rXrXrXrXrXrXrXrXrXrX7 D.`.`.`.@X,X3X3X3X3X3X3X3XeXoX`.`.`.`.`.`.`.`.c.i   rXrXrXrXrXrXrXrXrXrXrX",
"rXrXrXrXrXrXrXrXrX  ..`.`.`.-X2X3X3X3X3X3X3X3X3XqX].`.`.`.`.`.`.`.`.`.P.l   rXrXrXrXrXrXrXrXrXrX",
"rXrXrXrXrXrXrXrXrX3 Q.`.`.|.,X3X3X3X3X3X3X3X3X3X$X`.`.`.`.`.`.`.`.`.`.`.F.x   rXrXrXrXrXrXrXrXrX",
"rXrXrXrXrXrXrXrX  F `.`.`.&X3X3X3X3X3X3X3X3X<X:X`.`.`.`.`.`.`.`.`.`.`.`.`.W.l   rXrXrXrXrXrXrXrX",
"rXrXrXrXrXrXrXrXX +.`.`.`.&X3X3X3X3X3X3X3XwX#X'.`.`.`.`.`.`.`.`.`.`.`.`.`.`.x.: rXrXrXrXrXrXrXrX",
"rXrXrXrXrXrXrXrX< A.`.`.`.].6X2X3X3X1X7X;X[.`.`.`.`.`.`.`.`.`.`.`.`.`.`.`.`.J.B   rXrXrXrXrXrXrX",
"rXrXrXrXrXrXrXrXr R.`.`.`.`.].OX*X%X X].`.`.`.`.`.`.`.`.`.`.`.`.`.`.`.`.`.`.M.R   rXrXrXrXrXrXrX",
"rXrXrXrXrXrXrXrXb `.`.`.`.`.`.`.`.`.`.`.`.`.`.`.`.`.`.`.`.`.`.`.`.`.`.`.`.`.d.*.  rXrXrXrXrXrXrX",
"rXrXrXrXrXrXrX+ K `.`.`.`.`.`.`.`.`.`.`.`.`.`.`.`.`.`.`.`.`.`.`.`.`.`.`.`.(.q.3.& rXrXrXrXrXrXrX",
"rXrXrXrXrXrXrX  ' `.`.`.`.`.`.`.`.`.`.`.`.`.`.`.`.`.`.`.`.`.`.`.`.`.`.`.`.V.5.5.0 rXrXrXrXrXrXrX",
"rXrXrXrXrXrXrXX | `.`.`.`.`.`.`.`.`.`.`.`.`.`.`.`.`.`.`.`.`.`.`.`.`.`.`.(.u.5.5.s rXrXrXrXrXrXrX",
"rXrXrXrXrXrXrX   .`.`.`.`.`.`.`.`.`.`.`.`.`.`.`.`.`.`.`.`.`.`.`.`.`.`.`.N.5.5.5.g rXrXrXrXrXrXrX",
"rXrXrXrXrXrXrX  { `.`.`.`.`.`.`.`.`.`.`.`.`.`.`.`.`.`.`.`.`.`.`.`.`.`.T.w.5.5.5.a rXrXrXrXrXrXrX",
"rXrXrXrXrXrXrX  ) `.`.`.`.`.`.`.`.`.`.`.`.`.`.`.`.`.`.`.`.`.`.`.`.`.~.i.5.5.5.5.1 rXrXrXrXrXrXrX",
"rXrXrXrXrXrXrX  D `.`.`.`.`.`.`.`.`.`.`.`.`.`.`.`.`.`.`.`.`.`.`.`.).f.5.5.5.5.;.o rXrXrXrXrXrXrX",
"rXrXrXrXrXrXrXrXv `.`.`.`.`.`.`.`.`.`.`.`.`.`.`.`.`.`.`.`.`.`.`.U.p.5.5.5.5.5.#.X rXrXrXrXrXrXrX",
"rXrXrXrXrXrXrXrXy E.`.`.`.`.`.`.`.`.`.`.`.`.`.`.`.`.`.`.`.`.`.K.t.5.5.5.5.5.5.W $ rXrXrXrXrXrXrX",
"rXrXrXrXrXrXrXrX* v.`.`.`.`.`.`.`.`.`.`.`.`.`.`.`.`.`.`.`.Y.g.8.5.5.5.5.5.5.5.L e rXrXrXrXrXrXrX",
"rXrXrXrXrXrXrXrX  [ `.`.`.`.`.`.`.`.`.`.`.`.`.`.`.`.`.T.k.e.5.5.5.5.5.5.5.5.1.d rXrXrXrXrXrXrXrX",
"rXrXrXrXrXrXrXrX  k `.`.`.`.`.`.`.`.`.`.`.`.`.`.~.Z.s.9.5.5.5.5.5.5.5.5.5.5.$.; rXrXrXrXrXrXrXrX",
"rXrXrXrXrXrXrXrXrXX n.`.`.`.`.`.`.`.`.`.`.~.C.j.r.6.5.5.5.5.5.5.5.5.5.5.5.5.U 2 rXrXrXrXrXrXrXrX",
"rXrXrXrXrXrXrXrXrX  A /.`.`.`.`.~.I.B.h.y.6.5.5.5.5.5.5.5.5.5.5.5.5.5.5.5.2.8 w rXrXrXrXrXrXrXrX",
"rXrXrXrXrXrXrXrXrXrX, l.^.H.m.a.r.0.5.5.5.5.5.5.5.5.5.5.5.5.5.5.5.5.5.5.5.Q O rXrXrXrXrXrXrXrXrX",
"rXrXrXrXrXrXrXrXrXrX  u 7.5.5.5.5.5.5.5.5.5.5.5.5.5.5.5.5.5.5.5.5.5.5.5.>.h rXrXrXrXrXrXrXrXrXrX",
"rXrXrXrXrXrXrXrXrXrXrX  V <.5.5.5.5.5.5.5.5.5.5.5.5.5.5.5.5.5.5.5.5.5.5.! # rXrXrXrXrXrXrXrXrXrX",
"rXrXrXrXrXrXrXrXrXrXrXrX  m -.5.5.5.5.5.5.5.5.5.5.5.5.5.5.5.5.5.5.5.5.,.f   rXrXrXrXrXrXrXrXrXrX",
"rXrXrXrXrXrXrXrXrXrXrXrXrX  j &.5.5.5.5.5.5.5.5.5.5.5.5.5.5.5.5.5.5.%.M   rXrXrXrXrXrXrXrXrXrXrX",
"rXrXrXrXrXrXrXrXrXrXrXrXrXrX  = P / -.5.5.5.5.5.5.5.5.5.5.5.5.-.^ N #   rXrXrXrXrXrXrXrXrXrXrXrX",
"rXrXrXrXrXrXrXrXrXrXrXrXrXrXrXrX  % 9 n I T ~ *.:.4.=.( E Y M q #   rXrXrXrXrXrXrXrXrXrXrXrXrXrX",
"rXrXrXrXrXrXrXrXrXrXrXrXrXrXrXrXrXrXrXrX          .       . rXrXrXrXrXrXrXrXrXrXrXrXrXrXrXrXrXrX",
"rXrXrXrXrXrXrXrXrXrXrXrXrXrXrXrXrXrXrXrXrXrXrXrXrXrXrXrXrXrXrXrXrXrXrXrXrXrXrXrXrXrXrXrXrXrXrXrX",
"rXrXrXrXrXrXrXrXrXrXrXrXrXrXrXrXrXrXrXrXrXrXrXrXrXrXrXrXrXrXrXrXrXrXrXrXrXrXrXrXrXrXrXrXrXrXrXrX",
"rXrXrXrXrXrXrXrXrXrXrXrXrXrXrXrXrXrXrXrXrXrXrXrXrXrXrXrXrXrXrXrXrXrXrXrXrXrXrXrXrXrXrXrXrXrXrXrX",
"rXrXrXrXrXrXrXrXrXrXrXrXrXrXrXrXrXrXrXrXrXrXrXrXrXrXrXrXrXrXrXrXrXrXrXrXrXrXrXrXrXrXrXrXrXrXrXrX",
"rXrXrXrXrXrXrXrXrXrXrXrXrXrXrXrXrXrXrXrXrXrXrXrXrXrXrXrXrXrXrXrXrXrXrXrXrXrXrXrXrXrXrXrXrXrXrXrX"
};
