/* XPM */
static char *result[] = {
/* columns rows colors chars-per-pixel */
"32 32 170 2 ",
"   c #1E261A",
".  c #1E261B",
"X  c #1F261B",
"o  c #21271E",
"O  c #22271E",
"+  c #23271F",
"@  c #232722",
"#  c #232624",
"$  c #252529",
"%  c #28252F",
"&  c #2E2B2A",
"*  c #2E292D",
"=  c #2C292E",
"-  c #302C2E",
";  c #312C2E",
":  c #292630",
">  c #2A2532",
",  c #2C2536",
"<  c #2F2836",
"1  c #2F253D",
"2  c #332D30",
"3  c #342D31",
"4  c #3B3039",
"5  c #40313F",
"6  c #41323F",
"7  c #3C2556",
"8  c #3E255A",
"9  c #3F255D",
"0  c #463345",
"q  c #463445",
"w  c #493548",
"e  c #4D364C",
"r  c #543954",
"t  c #573857",
"y  c #563A56",
"u  c #583A58",
"i  c #452763",
"p  c #432564",
"a  c #442666",
"s  c #48256E",
"d  c #48256F",
"f  c #673F69",
"g  c #69406B",
"h  c #6B416D",
"j  c #704372",
"k  c #734476",
"l  c #78457B",
"z  c #79457C",
"x  c #7B457E",
"c  c #522582",
"v  c #57258D",
"b  c #5B2694",
"n  c #5F269C",
"m  c #6325A5",
"M  c #6625AA",
"N  c #6725AC",
"B  c #6925B1",
"V  c #6C25B6",
"C  c #6D26B7",
"Z  c #6F26BB",
"A  c #7D4880",
"S  c #7F4983",
"D  c #7126C0",
"F  c #7225C3",
"G  c #7226C2",
"H  c #7B26D5",
"J  c #7D26D8",
"K  c #804783",
"L  c #904F95",
"P  c #914F96",
"I  c #935098",
"U  c #A356AA",
"Y  c #B35CBA",
"T  c #8127DD",
"R  c #8126E0",
"E  c #8626E9",
"W  c #8626EA",
"Q  c #8926F1",
"!  c #8A26F3",
"~  c #8C26F5",
"^  c #8E26FA",
"/  c #9025FD",
"(  c #9027FD",
")  c #9127FE",
"_  c #9127FF",
"`  c #9228FF",
"'  c #952AFF",
"]  c #962BFF",
"[  c #972CFF",
"{  c #982CFF",
"}  c #9C30FF",
"|  c #9F32FF",
" . c #A234FF",
".. c #AB3BFF",
"X. c #AB3CFF",
"o. c #B85EC0",
"O. c #B95EC3",
"+. c #BA5FC3",
"@. c #AF40FF",
"#. c #B040FF",
"$. c #BE4BFF",
"%. c #C061C8",
"&. c #C363CB",
"*. c #C664D0",
"=. c #CC66D5",
"-. c #CE66D7",
";. c #CF67D9",
":. c #C551FF",
">. c #C752FF",
",. c #C953FF",
"<. c #C954FF",
"1. c #CC57FF",
"2. c #CD57FF",
"3. c #D45DFF",
"4. c #DC6DE6",
"5. c #DF6EEA",
"6. c #D760FF",
"7. c #D961FF",
"8. c #DC64FF",
"9. c #DF66FF",
"0. c #E369FF",
"q. c #E96EFF",
"w. c #E570F0",
"e. c #E972F5",
"r. c #EF74FB",
"t. c #EB70FF",
"y. c #EC70FF",
"u. c #EE72FF",
"i. c #EF72FF",
"p. c #EF73FF",
"a. c #F175FD",
"s. c #F074FF",
"d. c #F174FF",
"f. c #F175FF",
"g. c #F275FE",
"h. c #F275FF",
"j. c #F276FE",
"k. c #F376FF",
"l. c #F377FF",
"z. c #F378FE",
"x. c #F379FE",
"c. c #F378FF",
"v. c #F37AFE",
"b. c #F37BFE",
"n. c #F37EFD",
"m. c #F383FB",
"M. c #F380FC",
"N. c #F382FC",
"B. c #F389F9",
"V. c #F38DF8",
"C. c #F293F6",
"Z. c #F29CF3",
"A. c #F29AF4",
"S. c #F0B4EB",
"D. c #F1B2EC",
"F. c #F1B3EC",
"G. c #F1B9EA",
"H. c #F0BDE8",
"J. c #F1BEE8",
"K. c #F1A6F0",
"L. c #F2A6F0",
"P. c #EEDBDD",
"I. c #EEDCDD",
"U. c #EFCBE3",
"Y. c #EFCFE2",
"T. c #EFC9E4",
"R. c #F0C1E7",
"E. c #F0C6E5",
"W. c #F0C4E6",
"Q. c None",
/* pixels */
"Q.Q.Q.Q.Q.Q.Q.Q.Q.Q.Q.Q.Q.Q.Q.Q.Q.Q.Q.Q.Q.Q.Q.Q.Q.Q.Q.Q.Q.Q.Q.Q.",
"Q.Q.Q.Q.Q.Q.Q.Q.Q.Q.Q.Q.Q.Q.Q.Q.Q.Q.Q.Q.Q.Q.Q.Q.Q.Q.Q.Q.Q.Q.Q.Q.",
"Q.Q.Q.Q.Q.Q.Q.Q.Q.Q.Q.Q.Q.Q.Q.Q.Q.Q.Q.Q.Q.Q.Q.Q.Q.Q.Q.Q.Q.Q.Q.Q.",
"Q.Q.Q.Q.Q.Q.Q.Q.Q.Q.Q.Q.Q.Q.Q.Q.Q.Q.Q.Q.Q.Q.Q.Q.Q.Q.Q.Q.Q.Q.Q.Q.",
"Q.Q.Q.Q.Q.Q.Q.Q.Q.Q.Q.Q.Q.Q.Q.Q.Q.Q.Q.Q.Q.Q.Q.Q.Q.Q.Q.Q.Q.Q.Q.Q.",
"Q.Q.Q.Q.Q.Q.Q.Q.Q.Q.Q.  2 u l K f 5 O Q.Q.Q.Q.Q.Q.Q.Q.Q.Q.Q.Q.Q.",
"Q.Q.Q.Q.Q.Q.Q.Q.Q.w S +.e.k.l.k.k.r.-.I y ; Q.Q.Q.Q.Q.Q.Q.Q.Q.Q.",
"Q.Q.Q.Q.Q.Q.Q.Q.k =.g.k.B.K.D.L.v.k.k.k.5.P + Q.Q.Q.Q.Q.Q.Q.Q.Q.",
"Q.Q.Q.Q.Q.Q.Q.h k.k.V.J.I.I.I.I.S.z.k.k.k.k.Y 6 Q.Q.Q.Q.Q.Q.Q.Q.",
"Q.Q.Q.Q.Q.Q.q *.k.B.U.P.I.I.I.I.F.z.k.k.k.k.r.%.3 Q.Q.Q.Q.Q.Q.Q.",
"Q.Q.Q.Q.Q.Q.A g.b.H.I.I.I.I.I.Y.m.k.k.k.k.k.k.k.&.e Q.Q.Q.Q.Q.Q.",
"Q.Q.Q.Q.Q.X o.k.N.E.I.I.I.I.T.C.k.k.k.k.k.k.k.k.j.O.@ Q.Q.Q.Q.Q.",
"Q.Q.Q.Q.Q.& w.k.l.A.R.W.G.Z.c.k.k.k.k.k.k.k.k.k.k.9.d Q.Q.Q.Q.Q.",
"Q.Q.Q.Q.Q.0 a.k.k.l.n.M.x.k.k.k.k.k.k.k.k.k.k.k.k.<.n Q.Q.Q.Q.Q.",
"Q.Q.Q.Q.Q.g k.k.k.k.k.k.k.k.k.k.k.k.k.k.k.k.k.k.p.@.C # Q.Q.Q.Q.",
"Q.Q.Q.Q.Q.z k.k.k.k.k.k.k.k.k.k.k.k.k.k.k.k.k.k.8.} D : Q.Q.Q.Q.",
"Q.Q.Q.Q.Q.x k.k.k.k.k.k.k.k.k.k.k.k.k.k.k.k.k.d.X._ G > Q.Q.Q.Q.",
"Q.Q.Q.Q.Q.j k.k.k.k.k.k.k.k.k.k.k.k.k.k.k.k.f.2.` _ Z $ Q.Q.Q.Q.",
"Q.Q.Q.Q.Q.t k.k.k.k.k.k.k.k.k.k.k.k.k.k.k.s.>.[ _ _ M Q.Q.Q.Q.Q.",
"Q.Q.Q.Q.Q.4 r.k.k.k.k.k.k.k.k.k.k.k.k.k.u.:.] _ _ _ b Q.Q.Q.Q.Q.",
"Q.Q.Q.Q.Q.o ;.k.k.k.k.k.k.k.k.k.k.k.t.3.| _ _ _ _ ) i Q.Q.Q.Q.Q.",
"Q.Q.Q.Q.Q.Q.L k.k.k.k.k.k.k.k.k.q.1...[ _ _ _ _ _ Q < Q.Q.Q.Q.Q.",
"Q.Q.Q.Q.Q.Q.r 4.k.k.h.i.0.7.,.#.' _ _ _ _ _ _ _ _ m * Q.Q.Q.Q.Q.",
"Q.Q.Q.Q.Q.Q.- U y.6.$.#. .{ _ _ _ _ _ _ _ _ _ _ ! p Q.Q.Q.Q.Q.Q.",
"Q.Q.Q.Q.Q.Q.Q.= T _ _ _ _ _ _ _ _ _ _ _ _ _ _ _ B % Q.Q.Q.Q.Q.Q.",
"Q.Q.Q.Q.Q.Q.Q.Q.8 J _ _ _ _ _ _ _ _ _ _ _ _ _ ( 9 Q.Q.Q.Q.Q.Q.Q.",
"Q.Q.Q.Q.Q.Q.Q.Q.Q.1 V E ( _ _ _ _ _ _ _ ) ~ G s Q.Q.Q.Q.Q.Q.Q.Q.",
"Q.Q.Q.Q.Q.Q.Q.Q.Q.Q.% 7 c N H W / ^ R F v a , Q.Q.Q.Q.Q.Q.Q.Q.Q.",
"Q.Q.Q.Q.Q.Q.Q.Q.Q.Q.Q.Q.Q.Q.          . Q.Q.Q.Q.Q.Q.Q.Q.Q.Q.Q.Q.",
"Q.Q.Q.Q.Q.Q.Q.Q.Q.Q.Q.Q.Q.Q.Q.Q.Q.Q.Q.Q.Q.Q.Q.Q.Q.Q.Q.Q.Q.Q.Q.Q.",
"Q.Q.Q.Q.Q.Q.Q.Q.Q.Q.Q.Q.Q.Q.Q.Q.Q.Q.Q.Q.Q.Q.Q.Q.Q.Q.Q.Q.Q.Q.Q.Q.",
"Q.Q.Q.Q.Q.Q.Q.Q.Q.Q.Q.Q.Q.Q.Q.Q.Q.Q.Q.Q.Q.Q.Q.Q.Q.Q.Q.Q.Q.Q.Q.Q."
};
