/* XPM */
static char *result[] = {
/* columns rows colors chars-per-pixel */
"48 48 123 2 ",
"   c #561700",
".  c #5C1400",
"X  c #541800",
"o  c #611600",
"O  c #641A00",
"+  c #681D00",
"@  c #6F2200",
"#  c #6E2F00",
"$  c #722500",
"%  c #762B00",
"&  c #7D2F00",
"*  c #6F3100",
"=  c #743300",
"-  c #7D3600",
";  c #7E3C00",
":  c #803200",
">  c #823F00",
",  c #8B3B00",
"<  c #854300",
"1  c #8B4E00",
"2  c #954300",
"3  c #9B4400",
"4  c #944D00",
"5  c #9A4B00",
"6  c #945000",
"7  c #9A5300",
"8  c #945806",
"9  c #9D5A00",
"0  c #A34700",
"q  c #A54C00",
"w  c #A84E00",
"e  c #A55600",
"r  c #AC5200",
"t  c #A45E00",
"y  c #AF5B00",
"u  c #B25600",
"i  c #B75E00",
"p  c #BB5E00",
"a  c #9C6000",
"s  c #A36300",
"d  c #AE6400",
"f  c #AC6A00",
"g  c #B66700",
"h  c #BC6300",
"j  c #B36C01",
"k  c #BE6A00",
"l  c #AC7301",
"z  c #B67401",
"x  c #BC7300",
"c  c #BC7902",
"v  c #C36500",
"b  c #C36900",
"n  c #CA6B00",
"m  c #D46D00",
"M  c #D96E00",
"N  c #C67500",
"B  c #CC7400",
"V  c #CD7B00",
"C  c #DF7600",
"Z  c #DE7C00",
"A  c #E37700",
"S  c #E37A00",
"D  c #EA7E00",
"F  c #BE8401",
"G  c #C48302",
"H  c #CA8401",
"J  c #CD8C03",
"K  c #D58300",
"L  c #DC8100",
"P  c #D68B01",
"I  c #DA8B00",
"U  c #CE9103",
"Y  c #D59403",
"T  c #DE9500",
"R  c #DD9D03",
"E  c #E48400",
"W  c #ED8200",
"Q  c #E38E00",
"!  c #ED8C00",
"~  c #F28400",
"^  c #F38C00",
"/  c #E29500",
"(  c #EC9500",
")  c #E29E02",
"_  c #ED9B00",
"`  c #F49400",
"'  c #F89700",
"]  c #F49D00",
"[  c #F99C00",
"{  c #DAA003",
"}  c #E3A202",
"|  c #EAA300",
" . c #E2A904",
".. c #EEA902",
"X. c #F3A301",
"o. c #FBA400",
"O. c #F3AC03",
"+. c #F9AD00",
"@. c #F3B403",
"#. c #FDB401",
"$. c #F4B905",
"%. c #FDBC04",
"&. c #F1BA12",
"*. c #ECBD29",
"=. c #FFC206",
"-. c #FFC208",
";. c #FECB09",
":. c #FED20A",
">. c #F1C11E",
",. c #FFCF1E",
"<. c #FFD41D",
"1. c #FFD81F",
"2. c #F2C22A",
"3. c #FDD225",
"4. c #FFDA32",
"5. c #FED33F",
"6. c #FED544",
"7. c #FFD940",
"8. c #FFD64A",
"9. c #FFDD50",
"0. c #FFDA5B",
"q. c #FFDD6B",
"w. c None",
/* pixels */
"w.w.w.w.w.w.w.w.w.w.w.w.w.w.w.w.w.w.w.w.w.w.w.w.w.w.w.w.w.w.w.w.w.w.w.w.w.w.w.w.w.w.w.w.w.w.w.w.",
"w.w.w.w.w.w.w.w.w.w.w.w.w.w.w.w.w.w.w.w.w.w.w.w.w.w.w.w.w.w.w.w.w.w.w.w.w.w.w.w.w.w.w.w.w.w.w.w.",
"w.w.w.w.w.w.w.w.w.w.w.w.w.w.w.w.w.w.w.w.w.w.w.w.w.w.w.w.w.w.w.w.w.w.w.w.w.w.w.w.w.w.w.w.w.w.w.w.",
"w.w.w.w.w.w.w.w.w.w.w.w.w.w.w.w.w.w.w.w.w.w.w.w.w.w.w.w.w.w.w.w.w.w.w.w.w.w.w.w.w.w.w.w.w.w.w.w.",
"w.w.w.w.w.w.w.w.w.w.w.w.w.w.w.w.w.w.w.w.w.w.w.w.w.w.w.w.w.w.w.w.w.w.w.w.w.w.w.w.w.w.w.w.w.w.w.w.",
"w.w.w.w.w.w.w.w.w.w.w.w.w.w.w.w.w.w.w.w.w.w.w.w.w.w.w.w.w.w.w.w.w.w.w.w.w.w.w.w.w.w.w.w.w.w.w.w.",
"w.w.w.w.w.w.w.w.w.w.w.w.w.w.w.w.w.w.w.w.w.w.w.w.w.w.w.w.w.w.w.w.w.w.w.w.w.w.w.w.w.w.w.w.w.w.w.w.",
"w.w.w.w.w.w.w.w.w.w.w.w.w.w.w.w.w.w.w.w.w.w.w.w.w.w.w.w.w.w.w.w.w.w.w.w.w.w.w.w.w.w.w.w.w.w.w.w.",
"w.w.w.w.w.w.w.w.w.w.w.w.w.w.w.w.w.w.w.w.w.w.w.w.w.w.w.w.w.w.w.w.w.w.w.w.w.w.w.w.w.w.w.w.w.w.w.w.",
"w.w.w.w.w.w.w.w.w.w.w.w.w.w.w.w.w.w.w.w.w.w.w.w.w.w.w.w.w.w.w.w.w.w.w.w.w.w.w.w.w.w.w.w.w.w.w.w.",
"w.w.w.w.w.w.w.w.w.w.w.w.w.w.w.w.w.w.w.w.w.w.w.w.w.w.w.w.w.w.w.w.w.w.w.w.w.w.w.w.w.w.w.w.w.w.w.w.",
"w.w.w.w.w.w.w.w.w.w.w.w.w.w.w.w.w.w.w.w.w.w.w.w.w.w.w.w.w.w.w.w.w.w.w.w.w.w.w.w.w.w.w.w.w.w.w.w.",
"w.w.w.w.w.w.w.w.w.w.w.w.w.w.w.w.w.w.w.w.w.w.w.w.w.w.w.w.w.w.w.w.w.w.w.w.w.w.w.w.w.w.w.w.w.w.w.w.",
"w.w.w.w.w.w.w.w.w.w.w.w.w.w.w.w.w.w.w.w.w.w.w.w.w.w.w.w.w.w.w.w.w.w.w.w.w.w.w.w.w.w.w.w.w.w.w.w.",
"w.w.w.w.w.w.w.w.w.w.w.w.w.w.w.w.w.w.w.#.%.%.=.%.=.=.=.-.-.%.%.%.w.w.w.w.w.w.w.w.w.w.w.w.w.w.w.w.",
"w.w.w.w.w.w.w.w.w.w.w.w.w.w.w.w.#.%.$.R G z f s 9 7 6 4 9 j G } =.%.=.w.w.w.w.w.w.w.w.w.w.w.w.w.",
"w.w.w.w.w.w.w.w.w.w.w.w.w.w.%.%.} c d g N K / _ X.O...) R J j 7 5 Y -.-.w.w.w.w.w.w.w.w.w.w.w.w.",
"w.w.w.w.w.w.w.w.w.w.w.w.%.,.2.s e L ` ' o.o.[ T #.#.) 1 H -.-.%. .4 j -.%.w.w.w.w.w.w.w.w.w.w.w.",
"w.w.w.w.w.w.w.w.w.w.w.X.#.J 7 E [ ' ' ] 6 Q | = 9 < 9 Y @.%.-.-.=.-.H J -.-.w.w.w.w.w.w.w.w.w.w.",
"w.w.w.w.w.w.w.w.w.w.w.#.J 4 E ` ` ` [ ] > 9 9 * z | #.%.%.$.R l a %.%.f ;.;.w.w.w.w.w.w.w.w.w.w.",
"w.w.w.w.w.w.w.w.w.w.#.+., m ~ ^ ` Q d > > 4 X.f H %.%.O.F 1 s R $.=.%.G :.:.w.w.w.w.w.w.w.w.w.w.",
"w.w.w.w.w.w.w.w.w.w.#./ , D n y 4 e N ( _ - ( P 7 G a s J $.-.-.=.=.@. .1.<.w.w.w.w.w.w.w.w.w.w.",
"w.w.w.w.w.w.w.w.w.w.#.( r A p p C ^ ^ ' [ ; z s # j / #.%.%.-.=.;.$. .:.4.5.w.w.w.w.w.w.w.w.w.w.",
"w.w.w.w.w.w.w.w.w.w.+.X.r M D D ~ ~ ^ Q j = 4 Q 9 ) #.#.#.#.%.%.| R 3.9.q.7.w.w.w.w.w.w.w.w.w.w.",
"w.w.w.w.w.w.w.w.w.w.V E S v M A D W 5 2 B b 5 ` ' o.+.#.%.%.| ) $.;.3.0.q.8.w.w.w.w.w.w.w.w.w.w.",
"w.w.w.w.w.w.w.w.w.w.g q m C n v m C S S W E Z ( ( ` ( ( Q / $.:.;.;.$.6.q.6.w.w.w.w.w.w.w.w.w.w.",
"w.w.w.w.w.w.w.w.w.w.x - $ 0 M A m v i i v n b n B N H ) $.=.:.:.&.T } 6.q.3.w.w.w.w.w.w.w.w.w.w.",
"w.w.w.w.w.w.w.w.w.w.w.> o . O , u m ! ] +.#.%.%.%.-.=.=.%.@.) T K P } 5.0.w.w.w.w.w.w.w.w.w.w.w.",
"w.w.w.w.w.w.w.w.w.w.w.> o . . o @ & 2 r k V K K I P P K K K I T P I } 3.*.w.w.w.w.w.w.w.w.w.w.w.",
"w.w.w.w.w.w.w.w.w.w.w.= o . . o + @ & , 3 w r g h v v B K I / / I I / >.8 w.w.w.w.w.w.w.w.w.w.w.",
"w.w.w.w.w.w.w.w.w.w.w.w.. . . o + $ & , 3 w u i h b b B K I / / I I j $ w.w.w.w.w.w.w.w.w.w.w.w.",
"w.w.w.w.w.w.w.w.w.w.w.w.  . . . + @ & , 3 w u g h b b B K I T T x , o w.w.w.w.w.w.w.w.w.w.w.w.w.",
"w.w.w.w.w.w.w.w.w.w.w.w.w.w.X   + @ & , 2 w r h h k b V K K t % o w.w.w.w.w.w.w.w.w.w.w.w.w.w.w.",
"w.w.w.w.w.w.w.w.w.w.w.w.w.w.w.w.  o + $ & , 2 5 5 2 , : $ O w.w.w.w.w.w.w.w.w.w.w.w.w.w.w.w.w.w.",
"w.w.w.w.w.w.w.w.w.w.w.w.w.w.w.w.w.w.w.w.w.o . o o w.w.w.w.w.w.w.w.w.w.w.w.w.w.w.w.w.w.w.w.w.w.w.",
"w.w.w.w.w.w.w.w.w.w.w.w.w.w.w.w.w.w.w.w.w.w.w.w.w.w.w.w.w.w.w.w.w.w.w.w.w.w.w.w.w.w.w.w.w.w.w.w.",
"w.w.w.w.w.w.w.w.w.w.w.w.w.w.w.w.w.w.w.w.w.w.w.w.w.w.w.w.w.w.w.w.w.w.w.w.w.w.w.w.w.w.w.w.w.w.w.w.",
"w.w.w.w.w.w.w.w.w.w.w.w.w.w.w.w.w.w.w.w.w.w.w.w.w.w.w.w.w.w.w.w.w.w.w.w.w.w.w.w.w.w.w.w.w.w.w.w.",
"w.w.w.w.w.w.w.w.w.w.w.w.w.w.w.w.w.w.w.w.w.w.w.w.w.w.w.w.w.w.w.w.w.w.w.w.w.w.w.w.w.w.w.w.w.w.w.w.",
"w.w.w.w.w.w.w.w.w.w.w.w.w.w.w.w.w.w.w.w.w.w.w.w.w.w.w.w.w.w.w.w.w.w.w.w.w.w.w.w.w.w.w.w.w.w.w.w.",
"w.w.w.w.w.w.w.w.w.w.w.w.w.w.w.w.w.w.w.w.w.w.w.w.w.w.w.w.w.w.w.w.w.w.w.w.w.w.w.w.w.w.w.w.w.w.w.w.",
"w.w.w.w.w.w.w.w.w.w.w.w.w.w.w.w.w.w.w.w.w.w.w.w.w.w.w.w.w.w.w.w.w.w.w.w.w.w.w.w.w.w.w.w.w.w.w.w.",
"w.w.w.w.w.w.w.w.w.w.w.w.w.w.w.w.w.w.w.w.w.w.w.w.w.w.w.w.w.w.w.w.w.w.w.w.w.w.w.w.w.w.w.w.w.w.w.w.",
"w.w.w.w.w.w.w.w.w.w.w.w.w.w.w.w.w.w.w.w.w.w.w.w.w.w.w.w.w.w.w.w.w.w.w.w.w.w.w.w.w.w.w.w.w.w.w.w.",
"w.w.w.w.w.w.w.w.w.w.w.w.w.w.w.w.w.w.w.w.w.w.w.w.w.w.w.w.w.w.w.w.w.w.w.w.w.w.w.w.w.w.w.w.w.w.w.w.",
"w.w.w.w.w.w.w.w.w.w.w.w.w.w.w.w.w.w.w.w.w.w.w.w.w.w.w.w.w.w.w.w.w.w.w.w.w.w.w.w.w.w.w.w.w.w.w.w.",
"w.w.w.w.w.w.w.w.w.w.w.w.w.w.w.w.w.w.w.w.w.w.w.w.w.w.w.w.w.w.w.w.w.w.w.w.w.w.w.w.w.w.w.w.w.w.w.w.",
"w.w.w.w.w.w.w.w.w.w.w.w.w.w.w.w.w.w.w.w.w.w.w.w.w.w.w.w.w.w.w.w.w.w.w.w.w.w.w.w.w.w.w.w.w.w.w.w."
};
