/* XPM */
static char *result[] = {
/* columns rows colors chars-per-pixel */
"16 16 5 1 ",
"  c #1B1B1B",
". c #F2741B",
"X c #FBC41B",
"o c #FFF21B",
"O c None",
/* pixels */
"OOOOOOOOOOOOOOOO",
"OOOOOOOOOOOOOOOO",
"OOOOOOOOOOOOOOOO",
"OOOOOO    OOOOOO",
"OOOOO oooo OOOOO",
"OOOOO .Xoo OOOOO",
"OOOOO .XXo OOOOO",
"OOOOO ..oo OOOOO",
"OOOOO ..oo OOOOO",
"OOOOO .XXo OOOOO",
"OOOOO ..Xo OOOOO",
"OOOOO .... OOOOO",
"OOOOOO    OOOOOO",
"OOOOOOOOOOOOOOOO",
"OOOOOOOOOOOOOOOO",
"OOOOOOOOOOOOOOOO"
};
