/* XPM */
static char *result[] = {
/* columns rows colors chars-per-pixel */
"16 16 5 1 ",
"  c #1B1B1B",
". c #F2741B",
"X c #FBC41B",
"o c #FFF21B",
"O c None",
/* pixels */
"OOOOOOOOOOOOOOOO",
"OOOOOOOOOOOOOOOO",
"OOOOOOOOOOOOOOOO",
"OOOOOO    OOOOOO",
"OOOOO oooo OOOOO",
"OOOO ooXXX. OOOO",
"OOOO oXXoX. OOOO",
"OOOO oXo.X. OOOO",
"OOOO oXo.X. OOOO",
"OOOO oX.XX. OOOO",
"OOOO oXXX.. OOOO",
"OOOOO .... OOOOO",
"OOOOOO    OOOOOO",
"OOOOOOOOOOOOOOOO",
"OOOOOOOOOOOOOOOO",
"OOOOOOOOOOOOOOOO"
};
