/* XPM */
static char *result[] = {
/* columns rows colors chars-per-pixel */
"48 48 174 2 ",
"   c #320A0F",
".  c #390B11",
"X  c #3E0C13",
"o  c #420D14",
"O  c #420E14",
"+  c #440E15",
"@  c #470E15",
"#  c #521119",
"$  c #58121B",
"%  c #5C131C",
"&  c #64141E",
"*  c #64151E",
"=  c #6B1621",
"-  c #7E1A27",
";  c #801A27",
":  c #9A202F",
">  c #9C2030",
",  c #A62233",
"<  c #AD2435",
"1  c #B22537",
"2  c #B62638",
"3  c #B72638",
"4  c #BD273A",
"5  c #C1283B",
"6  c #CC2A3E",
"7  c #D72032",
"8  c #D72633",
"9  c #D72434",
"0  c #D72734",
"q  c #D72635",
"w  c #D92337",
"e  c #D82536",
"r  c #D92537",
"t  c #DA253A",
"y  c #DA2E3C",
"u  c #D22B40",
"i  c #D62C42",
"p  c #D72C42",
"a  c #D92D43",
"s  c #DA2D43",
"d  c #DC2E43",
"f  c #DD2E44",
"g  c #DD2F45",
"h  c #DD3145",
"j  c #DF394B",
"k  c #E03E4E",
"l  c #E03F4E",
"z  c #DE5350",
"x  c #E04250",
"c  c #E14552",
"v  c #E14754",
"b  c #E24955",
"n  c #E24A55",
"m  c #E24D57",
"M  c #E4545B",
"N  c #E55C60",
"B  c #E55E61",
"V  c #E86B69",
"C  c #E86D6B",
"Z  c #E9716D",
"A  c #EA736E",
"S  c #EA7570",
"D  c #EB7972",
"F  c #EB7D74",
"G  c #5C913B",
"H  c #5D913B",
"J  c #5D913C",
"K  c #5E923C",
"L  c #5E923E",
"P  c #5F933E",
"I  c #61933E",
"U  c #61943F",
"Y  c #62943F",
"T  c #609340",
"R  c #629341",
"E  c #639343",
"W  c #619441",
"Q  c #629441",
"!  c #629542",
"~  c #649541",
"^  c #659541",
"/  c #649542",
"(  c #649644",
")  c #659744",
"_  c #669645",
"`  c #679645",
"'  c #669647",
"]  c #689744",
"[  c #679845",
"{  c #669847",
"}  c #679848",
"|  c #689948",
" . c #699949",
".. c #69994A",
"X. c #6A994A",
"o. c #6C9B4D",
"O. c #6C9C4E",
"+. c #6E9C4E",
"@. c #739D4C",
"#. c #74A057",
"$. c #7AA152",
"%. c #7BA152",
"&. c #76A25A",
"*. c #7EA15B",
"=. c #7BA55F",
"-. c #7CA762",
";. c #7DA763",
":. c #81A557",
">. c #83A658",
",. c #8AA95D",
"<. c #8AAA5E",
"1. c #8CAB5F",
"2. c #83A863",
"3. c #8DAB60",
"4. c #90AD62",
"5. c #90AD63",
"6. c #95AF66",
"7. c #9DB46C",
"8. c #9EB46D",
"9. c #A0B172",
"0. c #A5B872",
"q. c #A8BA74",
"w. c #ADBC78",
"e. c #B0BE7B",
"r. c #B2BF7C",
"t. c #EC8076",
"y. c #ED867A",
"u. c #E59C72",
"i. c #B5C07E",
"p. c #F09684",
"a. c #F09885",
"s. c #F19D88",
"d. c #F2A18B",
"f. c #F5B596",
"g. c #F6B999",
"h. c #F7BD9C",
"j. c #BAC382",
"k. c #BCC484",
"l. c #BDC584",
"z. c #C0C686",
"x. c #C1C787",
"c. c #C2C788",
"v. c #CACC8E",
"b. c #CFCE92",
"n. c #D2D094",
"m. c #D3D094",
"M. c #D4D195",
"N. c #DAD49A",
"B. c #DFD79E",
"V. c #E1D89F",
"C. c #F8C4A0",
"Z. c #F9CAA3",
"A. c #F9CAA4",
"S. c #F9CBA4",
"D. c #FACCA5",
"F. c #FACDA5",
"G. c #E3D9A1",
"H. c #E6DAA3",
"J. c #E7DBA4",
"K. c #EEDFA9",
"L. c #FAD0A7",
"P. c #F3DFA6",
"I. c #FBD2A9",
"U. c #FCD9AD",
"Y. c #FDDDAF",
"T. c #F2E1AC",
"R. c #FDE0B1",
"E. c #FEE2B2",
"W. c #FAE5B2",
"Q. c #FDE7B5",
"!. c #FEE6B5",
"~. c #FEE8B6",
"^. c #FFE8B6",
"/. c None",
/* pixels */
"/./././././././././././././././././././././././././././././././././././././././././././././././.",
"/./././././././././././././././././././././././././././././././././././././././././././././././.",
"/./././././././././././././././././././././././././././././././././././././././././././././././.",
"/./././././././././././././././././././././././././././././././././././././././././././././././.",
"/./././././././././././././././././././././././././././././././././././././././././././././././.",
"/./././././././././././././././././././././././././././././././././././././././././././././././.",
"/./././././././././././././././././././././././././././././././././././././././././././././././.",
"/./././././././././././././././././././././././././././././././././././././././././././././././.",
"/./././././././././././././././././././././././././././././././././././././././././././././././.",
"/./././././././././././././././././././././././././././././././././././././././././././././././.",
"/./././././././././././././././././././././././././././././././././././././././././././././././.",
"/./././././././././././././././././././././././././././././././././././././././././././././././.",
"/./././././././././././././././././././././././././././././././././././././././././././././././.",
"/././././././././.;.9./././././././././././././././././././././././././././././././././././././.",
"/./././././././.2.G k.P.u./././././././././././././././././././././././././././././././././././.",
"/./././././././.O.H T.!.c f y /././././././././././././././././././././././././././././././././.",
"/./././././././.G $.^.A.f f f f g 8 /./././././././././././././././././././././././././././././.",
"/./././././././.G 6.^.d.f f f f f f f r /./././././././././././././././././././././././././././.",
"/././././././.#.G q.^.y.f f f f f f f f f f 9 /././././././././././././././././././././././././.",
"/././././././.-.G r.^.D f f f : > f f f f f f f t 7 /./././././././././././././././././././././.",
"/././././././.=.G w.^.t.f f f o 5 f f f f ; 3 f f f f e /./././././././././././././././././././.",
"/./././././././.G 7.^.p.f f f f f f f f s   u f f f f f f d q /././././././././././././././././.",
"/./././././././.G >.^.g.f f f f f f f f f f f f f f f f f f f f w /././././././././././././././.",
"/./././././././.! I W.E.j f f f f * 6 f f f f f f f f f f f f f f f f 0 /./././././././././././.",
"/./././././././.&.G b.^.S f f f f # 4 f f i + s f f f f f f f f f f f f f z /./././././././././.",
"/././././././././.G 1.^.D.h f f f f f f f f = 2 f f . f f f p O f f f f f C.^.5.*./././././././.",
"/././././././././.} G G.^.F f f f f f f f f f f f f X f f f , - f f f f A ^.J.J T /././././././.",
"/././././././././.+.G ,.^.R.m f f f f f f f f f f f f f f f f f f f f v Y.^.3.G | /././././././.",
"/./././././././././. .G j.^.L.l f f f f f & < f f f f f f f f f f f k F.^.z.G ) /./././././././.",
"/././././././././././.L P m.^.Z.x f f f p % a f f f f f 1 @ f f f n S.^.N.U G /././././././././.",
"/./././././././././././.G ^ M.^.U.C f f f f f f f f f f f $ f f Z Y.^.V.] G R /././././././././.",
"/././././././././././././.G K e.Q.^.h.N f f f f f f f f f f N f.^.^.x.Y G X././././././././././.",
"/./././././././././././././.P G :.B.^.^.I.s.Z B m b M V a.D.^.^.K.4.G G [ /././././././././././.",
"/././././././././././././././.Q G G <.M.~.^.^.^.^.^.^.^.^.^.H.0.~ G { /././././././././././././.",
"/././././././././././././././././.! G G @.7.i.c.b.n.v.l.8.%.G G W _ /./././././././././././././.",
"/././././././././././././././././././.E L G G G G G G G G G ( /././././././././././././././././.",
"/././././././././././././././././././././././.` o...' / /./././././././././././././././././././.",
"/./././././././././././././././././././././././././././././././././././././././././././././././.",
"/./././././././././././././././././././././././././././././././././././././././././././././././.",
"/./././././././././././././././././././././././././././././././././././././././././././././././.",
"/./././././././././././././././././././././././././././././././././././././././././././././././.",
"/./././././././././././././././././././././././././././././././././././././././././././././././.",
"/./././././././././././././././././././././././././././././././././././././././././././././././.",
"/./././././././././././././././././././././././././././././././././././././././././././././././.",
"/./././././././././././././././././././././././././././././././././././././././././././././././.",
"/./././././././././././././././././././././././././././././././././././././././././././././././.",
"/./././././././././././././././././././././././././././././././././././././././././././././././.",
"/./././././././././././././././././././././././././././././././././././././././././././././././."
};
