/* XPM */
static char *result[] = {
/* columns rows colors chars-per-pixel */
"48 48 74 1 ",
"  c black",
". c #34250A",
"X c #4C2B0F",
"o c #503410",
"O c #533A10",
"+ c #593F12",
"@ c #714117",
"# c #635215",
"$ c #625E16",
"% c #7C5819",
"& c #696517",
"* c #93581D",
"= c #9D6F1F",
"- c #8A731E",
"; c #BD6C26",
": c #C07226",
"> c #C17527",
", c #C37A27",
"< c #C47B27",
"1 c #8F821F",
"2 c #B7A828",
"3 c #BAB329",
"4 c #C68029",
"5 c #C88328",
"6 c #C88229",
"7 c #C98428",
"8 c #CC8C29",
"9 c #CD8D2B",
"0 c #CF9229",
"q c #D0942B",
"w c #D3992A",
"e c #D49E2B",
"r c #D69E2D",
"t c #D5A02B",
"y c #D5A32C",
"u c #D8A72C",
"i c #D8A42E",
"p c #DAA72E",
"a c #D8A82D",
"s c #D9A82E",
"d c #DBAC2F",
"f c #DDAD2E",
"g c #DEAF2F",
"h c #DEB62E",
"j c #DFB230",
"k c #E0B82F",
"l c #E0B430",
"z c #E1BD30",
"x c #E3BC31",
"c c #E6BF32",
"v c #E3C030",
"b c #E8C633",
"n c #E7CB31",
"m c #E8CB32",
"M c #EACA33",
"N c #ECD633",
"B c #ECD134",
"V c #EFD934",
"C c #EFDD34",
"Z c #F0DB35",
"A c #F1E035",
"S c #F5EB36",
"D c #90824F",
"F c #DBAC5C",
"G c #E8C952",
"H c #EED454",
"J c #F1DE55",
"K c #F7EE56",
"L c gray60",
"P c #E5C4A8",
"I c #FBF8B7",
"U c #F9F0CE",
"Y c white",
"T c None",
/* pixels */
"TTTTTTTTTTTTTTTTTTTTTTTTTTTTTTTTTTTTTTTTTTTTTTTT",
"TTTTTTTTTTTTTTTTTTTTTTTTTTTTTTTTTTTTTTTTTTTTTTTT",
"TTTTTTTTTTTTTTTTTTTTTTTTTTTTTTTTTTTTTTTTTTTTTTTT",
"TTTTTTTTTTTTTTTTTTTTTTTTTTTTTTTTTTTTTTTTTTTTTTTT",
"TTTTTTTTTTTTTTTTTTTTTTTTTTTTTTTTTTTTTTTTTTTTTTTT",
"TTTTTTTTTTTTTTTTTTTTTTTTTTTTTTTTTTTTTTTTTTTTTTTT",
"TTTTTTTTTTTTTTTTTTTTTTTTTTTTTTTTTTTTTTTTTTTTTTTT",
"TTTTTTTTTTTTTTTTTTTTTTTTTTTTTTTTTTTTTTTTTTTTTTTT",
"TTTTTTTTTTTTTTTTTTTTTTTTTTTTTTTTTTTTTTTTTTTTTTTT",
"TTTTTTTTTTTTTTTTTTTTTTTTTTTTTTTTTTTTTTTTTTTTTTTT",
"TTTTTTTTTTTTTTTTTTTTTTTTTTTTTTTTTTTTTTTTTTTTTTTT",
"TTTTTTTTTTTTTTTTTTTTTTTTTTTTTTTTTTTTTTTTTTTTTTTT",
"TTTTTTTTTTTTTTTTTTTTTTTTTTTTTTTTTTTTTTTTTTTTTTTT",
"TTTTTTTTTTTTTTTTTTTTTTT  TTTTTTTTTTTTTTTTTTTTTTT",
"TTTTTTTTTTTTTTTTTTTTT -cc- TTTTTTTTTTTTTTTTTTTTT",
"TTTTTTTTTTTTTTTTTTT LKSSSSa@1TTTTTTTTTTTTTTTTTTT",
"TTTTTTTTTTTTTTTTT LYISSSa:scc2TTTTTTTTTTTTTTTTTT",
"TTTTTTTTTTTTTTTTTDYYKSa:PZcccc2TTTTTTTTTTTTTTTTT",
"TTTTTTTTTTTTTTTTT-FIa:PYHcccccc3TTTTTTTTTTTTTTTT",
"TTTTTTTTTTTTTTTTT-0;PYYHcccccVz4oTTTTTTTTTTTTTTT",
"TTTTTTTTTTTTTTTT#w0;UYJccccVz4;;.TTTTTTTTTTTTTTT",
"TTTTTTTTTTTTTTT&N00;cGAccVz4;;;5TTTTTTTTTTTTTTTT",
"TTTTTTTTTTTTTT+SSN0<c7,BBq;;;;;oTTTTTTTTTTTTTTTT",
"TTTTTTTTTTTTTT%eSSN<c;pcc:;;;;;.TTTTTTTTTTTTTTTT",
"TTTTTTTTTTTTTT%>eSSvl,ccg;;;;;5TTTTTTTTTTTTTTTTT",
"TTTTTTTTTTTTTT%08kmSNxcc9;;;;yC3TTTTTTTTTTTTTTTT",
"TTTTTTTTTTTTTT%00fuSSSMc:;;yCSSS$TTTTTTTTTTTTTTT",
"TTTTTTTTTTTTTT 00i0uSSSM;yCSSzhtTTTTTTTTTTTTTTTT",
"TTTTTTTTTTTTTTT%>r00kSSSnhhb6;>OTTTTTTTTTTTTTTTT",
"TTTTTTTTTTTTTTT <r00fd<<;;jw;;;TTTTTTTTTTTTTTTTT",
"TTTTTTTTTTTTTTTT%r00f:;;;,w<;;oTTTTTTTTTTTTTTTTT",
"TTTTTTTTTTTTTTTT f007;;;;80;;,TTTTTTTTTTTTTTTTTT",
"TTTTTTTTTTTTTTTTT-00:;;;,0<;,OTTTTTTTTTTTTTTTTTT",
"TTTTTTTTTTTTTTTTTT=7;;;;80;XOTTTTTTTTTTTTTTTTTTT",
"TTTTTTTTTTTTTTTTTTT*;;;,.TTTTTTTTTTTTTTTTTTTTTTT",
"TTTTTTTTTTTTTTTTTTTTTTTTTTTTTTTTTTTTTTTTTTTTTTTT",
"TTTTTTTTTTTTTTTTTTTTTTTTTTTTTTTTTTTTTTTTTTTTTTTT",
"TTTTTTTTTTTTTTTTTTTTTTTTTTTTTTTTTTTTTTTTTTTTTTTT",
"TTTTTTTTTTTTTTTTTTTTTTTTTTTTTTTTTTTTTTTTTTTTTTTT",
"TTTTTTTTTTTTTTTTTTTTTTTTTTTTTTTTTTTTTTTTTTTTTTTT",
"TTTTTTTTTTTTTTTTTTTTTTTTTTTTTTTTTTTTTTTTTTTTTTTT",
"TTTTTTTTTTTTTTTTTTTTTTTTTTTTTTTTTTTTTTTTTTTTTTTT",
"TTTTTTTTTTTTTTTTTTTTTTTTTTTTTTTTTTTTTTTTTTTTTTTT",
"TTTTTTTTTTTTTTTTTTTTTTTTTTTTTTTTTTTTTTTTTTTTTTTT",
"TTTTTTTTTTTTTTTTTTTTTTTTTTTTTTTTTTTTTTTTTTTTTTTT",
"TTTTTTTTTTTTTTTTTTTTTTTTTTTTTTTTTTTTTTTTTTTTTTTT",
"TTTTTTTTTTTTTTTTTTTTTTTTTTTTTTTTTTTTTTTTTTTTTTTT",
"TTTTTTTTTTTTTTTTTTTTTTTTTTTTTTTTTTTTTTTTTTTTTTTT"
};
