/* XPM */
static char *result[] = {
/* columns rows colors chars-per-pixel */
"48 48 7 1 ",
"  c black",
". c #BD6C26",
"X c #CF9229",
"o c #E6BF32",
"O c #F5EB36",
"+ c white",
"@ c None",
/* pixels */
"@@@@@@@@@@@@@@@@@@@@@@@@@@@@@@@@@@@@@@@@@@@@@@@@",
"@@@@@@@@@@@@@@@@@@@@@@@@@@@@@@@@@@@@@@@@@@@@@@@@",
"@@@@@@@@@@@@@@@@@@@@@@@@    @@@@@@@@@@@@@@@@@@@@",
"@@@@@@@@@@@@@@@@@@@@@@  oooo  @@@@@@@@@@@@@@@@@@",
"@@@@@@@@@@@@@@@@@@@@  oooooooo  @@@@@@@@@@@@@@@@",
"@@@@@@@@@@@@@@@@@@  +OOOOOOOOOOO    @@@@@@@@@@@@",
"@@@@@@@@@@@@@@@@  ++OOOOOOOOOOX...oO @@@@@@@@@@@",
"@@@@@@@@@@@@@@  ++++OOOOOOOOX...ooooO @@@@@@@@@@",
"@@@@@@@@@@@@  +++++OOOOOOOX...OooooooO @@@@@@@@@",
"@@@@@@@@@@@@ ++++++OOOOOX...OOooooooooO @@@@@@@@",
"@@@@@@@@@@@@ o++++OOOOX...++OooooooooooO @@@@@@@",
"@@@@@@@@@@@@ oX+++OOX...+++OooooooooooooO @@@@@@",
"@@@@@@@@@@@@ oXX+OX...++++ooooooooooooooOO @@@@@",
"@@@@@@@@@@@@ oXX....+++++oooooooooooooOOO.. @@@@",
"@@@@@@@@@@@@ oXX..++++++OoooooooooooOOO...X @@@@",
"@@@@@@@@@@@ oXXX..+++++OooooooooooOOO.....X @@@@",
"@@@@@@@@@@ oXXXX..o+++OoooooooooOOO....... @@@@@",
"@@@@@@@@@ OXXXXX..oo+OOoooooooOOO........X @@@@@",
"@@@@@@@@ OOOXXXX..ooXoOOooooOOO..........X @@@@@",
"@@@@@@@ OOOOOXXXX.ooXX..OOOOO............ @@@@@@",
"@@@@@@ XOOOOOOXXX.ooX..Xooooo...........X @@@@@@",
"@@@@@@ XXOOOOOOXX.oo...oooooX...........X @@@@@@",
"@@@@@@ X.XOOOOOOX.oo..Xooooo............ @@@@@@@",
"@@@@@@ X..XOOOOOOXoo..oooooo...........X @@@@@@@",
"@@@@@@ XX..XOOOOXOXo.XoooooX...........X @@@@@@@",
"@@@@@@ XXX.XXOOXOOOX.oooooo...........XOO @@@@@@",
"@@@@@@ XXXXXXooOOOOOOoooooo.........XOOOOO @@@@@",
"@@@@@@ XXXXXXoXOOOOOOOooooX.......XOOOOOOOO @@@@",
"@@@@@@ XXXXXXoXXOOOOOOOooo......XOOOOOOOOOO @@@@",
"@@@@@@@ XXXXXoXXXOOOOOOOoo....XOOOOOOOOOOX @@@@@",
"@@@@@@@ XXXX.oXXXXOOOOOOOo..XOOOOOOOO.XXXX @@@@@",
"@@@@@@@@ X.X.oXXXXXOOOOOOOOOOOOOOoo....XX @@@@@@",
"@@@@@@@@ X...oXXXXXoOOOOOOOXXXXXooX.....X @@@@@@",
"@@@@@@@@@ X..oXXXXXooOXXXX.....ooX...... @@@@@@@",
"@@@@@@@@@ X..oXXXXXoo.........ooXX...... @@@@@@@",
"@@@@@@@@@@ X.oXXXXXoX.........oXX...... @@@@@@@@",
"@@@@@@@@@@ X.oXXXXXo.........XXXX.....X @@@@@@@@",
"@@@@@@@@@@@ XoXXXXXX.........XXX...... @@@@@@@@@",
"@@@@@@@@@@@ XoXXXXX.........XXXX.....X @@@@@@@@@",
"@@@@@@@@@@@@ oXXXXX.........XXX.....X @@@@@@@@@@",
"@@@@@@@@@@@@ oXXXX.........XXXX....XX @@@@@@@@@@",
"@@@@@@@@@@@@@ XXXX.........XXX....XX @@@@@@@@@@@",
"@@@@@@@@@@@@@@ XX.........XXXX..     @@@@@@@@@@@",
"@@@@@@@@@@@@@@@ X.........X     @@@@@@@@@@@@@@@@",
"@@@@@@@@@@@@@@@@ ........X @@@@@@@@@@@@@@@@@@@@@",
"@@@@@@@@@@@@@@@@@         @@@@@@@@@@@@@@@@@@@@@@",
"@@@@@@@@@@@@@@@@@@@@@@@@@@@@@@@@@@@@@@@@@@@@@@@@",
"@@@@@@@@@@@@@@@@@@@@@@@@@@@@@@@@@@@@@@@@@@@@@@@@"
};
