/* XPM */
static char *result[] = {
/* columns rows colors chars-per-pixel */
"48 48 151 2 ",
"   c #00455D",
".  c #00485D",
"X  c #004760",
"o  c #004A64",
"O  c #004D68",
"+  c #00536F",
"@  c #005774",
"#  c #005977",
"$  c #005C7B",
"%  c #00617E",
"&  c #006483",
"*  c #016A86",
"=  c #0B6C86",
"-  c #006C8D",
";  c #126E87",
":  c #01738E",
">  c #12738D",
",  c #006F90",
"<  c #007493",
"1  c #007D94",
"2  c #007798",
"3  c #007C9A",
"4  c #00839C",
"5  c #08849F",
"6  c #2C849A",
"7  c #0285A2",
"8  c #018AA4",
"9  c #008DA9",
"0  c #0D8BAC",
"q  c #0192AE",
"w  c #0A93AE",
"e  c #1F95AB",
"r  c #0195B4",
"t  c #0A95B2",
"y  c #0399B6",
"u  c #0B98B4",
"i  c #0297B8",
"p  c #029DBD",
"a  c #0C9DBD",
"s  c #179DBB",
"d  c #2E8DA6",
"f  c #2097AF",
"g  c #03A0BF",
"h  c #0AA1BF",
"j  c #10A5BF",
"k  c #22A2BB",
"l  c #28A4BD",
"z  c #3EA2B4",
"x  c #32A4BA",
"c  c #45A6B5",
"v  c #4CA7B8",
"b  c #4DA9BC",
"n  c #53ACBC",
"m  c #099FC0",
"M  c #05A4C4",
"N  c #0BA4C2",
"B  c #0DA9C6",
"V  c #02A6C9",
"C  c #03ABCD",
"Z  c #0CAAC9",
"A  c #12A6C2",
"S  c #19A6C2",
"D  c #14A9C4",
"F  c #1BA9C5",
"G  c #15ADC9",
"H  c #23ABC5",
"J  c #2BAEC6",
"K  c #20AFCA",
"L  c #2BAEC8",
"P  c #35ADC6",
"I  c #39AFC7",
"U  c #39AFC8",
"Y  c #25B2CD",
"T  c #2DB0C9",
"R  c #33B1CA",
"E  c #3CB3CA",
"W  c #37B8CF",
"Q  c #39B7D0",
"!  c #3AB8D0",
"~  c #51AEC0",
"^  c #47B0C4",
"/  c #42B6CB",
"(  c #4BB7CD",
")  c #46B9CE",
"_  c #4CB9CE",
"`  c #5CB2C2",
"'  c #57B6C8",
"]  c #58B5C8",
"[  c #53B9CE",
"{  c #5BBCCE",
"}  c #4EBDD1",
"|  c #54BCD1",
" . c #5DBED1",
".. c #63BDCE",
"X. c #69BFCF",
"o. c #62BED0",
"O. c #68BED0",
"+. c #1EC2E2",
"@. c #22C4E4",
"#. c #2DCBE7",
"$. c #2CCBEA",
"%. c #30CEEC",
"&. c #36D0EB",
"*. c #5CC0CF",
"=. c #5CC0D2",
"-. c #6DC1CF",
";. c #63C1D1",
":. c #6BC2D3",
">. c #6EC7D9",
",. c #74C6D5",
"<. c #7AC7D5",
"1. c #77CAD5",
"2. c #7CC9D7",
"3. c #74C7D9",
"4. c #7AC7D8",
"5. c #7DC9D8",
"6. c #44CEE9",
"7. c #53CFE7",
"8. c #55D6EF",
"9. c #5AD7ED",
"0. c #50D9EF",
"q. c #56D7F1",
"w. c #5BD7F2",
"e. c #5ADAF2",
"r. c #65D0E8",
"t. c #78D3E3",
"y. c #61DBF3",
"u. c #82CAD7",
"i. c #84CCD9",
"p. c #8BCDDA",
"a. c #93CEDB",
"s. c #98CFDD",
"d. c #8ED0DC",
"f. c #94D1DD",
"g. c #9BD2DD",
"h. c #A2D5DF",
"j. c #9CD8E4",
"k. c #A4D6E1",
"l. c #A4D9E2",
"z. c #ACD9E2",
"x. c #B2DAE2",
"c. c #BCDDE4",
"v. c #C2DFE5",
"b. c #C3E0E6",
"n. c #CCE2E7",
"m. c #D3E3E7",
"M. c #D3E5E9",
"N. c #DCE7EA",
"B. c #E1E7EB",
"V. c #EAECED",
"C. c None",
/* pixels */
"C.C.C.C.C.C.C.C.C.C.C.C.C.C.C.C.C.C.C.C.C.C.C.C.C.C.C.C.C.C.C.C.C.C.C.C.C.C.C.C.C.C.C.C.C.C.C.C.",
"C.C.C.C.C.C.C.C.C.C.C.C.C.C.C.C.C.C.C.C.C.C.C.C.C.C.C.C.C.C.C.C.C.C.C.C.C.C.C.C.C.C.C.C.C.C.C.C.",
"C.C.C.C.C.C.C.C.C.C.C.C.C.C.C.C.C.C.C.C.C.C.C.C.C.C.C.C.C.C.C.C.C.C.C.C.C.C.C.C.C.C.C.C.C.C.C.C.",
"C.C.C.C.C.C.C.C.C.C.C.C.C.C.C.C.C.C.C.C.C.C.C.C.C.C.C.C.C.C.C.C.C.C.C.C.C.C.C.C.C.C.C.C.C.C.C.C.",
"C.C.C.C.C.C.C.C.C.C.C.C.C.C.C.C.C.C.C.C.C.C.C.C.C.C.C.C.C.C.C.C.C.C.C.C.C.C.C.C.C.C.C.C.C.C.C.C.",
"C.C.C.C.C.C.C.C.C.C.C.C.C.C.C.C.C.C.C.C.C.C.C.C.C.C.C.C.C.C.C.C.C.C.C.C.C.C.C.C.C.C.C.C.C.C.C.C.",
"C.C.C.C.C.C.C.C.C.C.C.C.C.C.C.C.C.C.C.C.C.C.C.C.C.C.C.C.C.C.C.C.C.C.C.C.C.C.C.C.C.C.C.C.C.C.C.C.",
"C.C.C.C.C.C.C.C.C.C.C.C.C.C.C.C.C.C.C.C.C.C.C.C.C.C.C.C.C.+.@.@.$.e.C.C.C.C.C.C.C.C.C.C.C.C.C.C.",
"C.C.C.C.C.C.C.C.C.C.C.C.C.C.C.C.C.C.C.C.C.C.C.A B A L l.6.$.$.$.&.e.e.C.C.C.C.C.C.C.C.C.C.C.C.C.",
"C.C.C.C.C.C.C.C.C.C.C.C.C.C.C.C.C.C.C.N M M M B B Z Z Z p.7.$.$.$.e.e.y.0.C.C.C.C.C.C.C.C.C.C.C.",
"C.C.C.C.C.C.C.C.C.C.C.C.C.C.C.C.C.M m M B B Z B B G G G G >.r.&.&.q.w.w.e.e.C.C.C.C.C.C.C.C.C.C.",
"C.C.C.C.C.C.C.C.C.C.C.C.C.C.C.C.N B N A A A A A F F F Y Y Y 3.t.6.w.e.w.e.q.e.C.C.C.C.C.C.C.C.C.",
"C.C.C.C.C.C.C.C.C.C.C.C.C.C.C.A A D S D D F F F K Y T Q Q Q W 5.x.z.z.z.l.j.j.l.l.C.C.C.C.C.C.C.",
"C.C.C.C.C.C.C.C.C.C.C.C.C.C.F D F F F F F H H L L R ) ) } } } j.x.z.x.z.z.z.l.k.o.C.C.C.C.C.C.C.",
"C.C.C.C.C.C.C.C.C.C.C.C.C.H H H H H H H H H L R R ! ) | =.| =.l.x.z.x.z.z.z.z.z.J C.C.C.C.C.C.C.",
"C.C.C.C.C.C.C.C.C.C.C.C.R L T J T J L L L L P R / [ |  .>.:.>.c.x.x.x.z.z.z.k.h.0 C.C.C.C.C.C.C.",
"C.C.C.C.C.C.C.C.C.C.C./ E E E R T R R R R R E E _  . .>.3.4.5.M.x.x.x.x.h.x.l.f.7 C.C.C.C.C.C.C.",
"C.C.C.C.C.C.C.C.C.C.[ _ ( ) E E E R R E E / _ _ | ;.3.4.i.p.j.M.c.c.c.x.h.x.z.2.2 C.C.C.C.C.C.C.",
"C.C.C.C.C.C.C.C.C.{ { [ [ _ / / / / / / / / } _  .:.1.i.p.a.c.m.v.c.c.c.x.x.z.o.- C.C.C.C.C.C.C.",
"C.C.C.C.C.C.C.C.;.....{ { [ _ _ ( / / / / ( [ | =.3.5.p.a.h.B.n.v.v.x.x.x.z.h.E * C.C.C.C.C.C.C.",
"C.C.C.C.C.C.C.C.....o.o.{ [ [ [ _ _ _ ) / _ } | o.>.5.p.s.c.V.v.v.v.c.x.x.k.h.S % C.C.C.C.C.C.C.",
"C.C.C.C.C.C.C.d :.o...o.{ { [ [ [ _ _ _ ( } _ |  .:.5.p.k.N.V.N.M.n.c.x.z.h.a.t & C.C.C.C.C.C.C.",
"C.C.C.C.C.C.C.b :.X...o.o.{ { [ [ [ _ ( _ [ } |  .;.3.a.x.B.v.c.x.x.v.v.c.x.4.9 - C.C.C.C.C.C.C.",
"C.C.C.C.C.C.. ] :.X.O.o.{ { { | [ [ [ _ ( _ / } | ;.,.i.n.c.h.h.s.s.s.x.k.h.} 3 > C.C.C.C.C.C.C.",
"C.C.C.C.C.C.@ ..:.-...:...{ *.{ [ ' [ _ _ _ _ _ | =.:.z.x.f.j.a.f.p.f.h.g.p.D 2 C.C.C.C.C.C.C.C.",
"C.C.C.C.C.C.; :.-.:.O...o.o...{ { { { [ _ _ | [ | | g.k.p.p.i.i.i.p.a.g.a.P N - C.C.C.C.C.C.C.C.",
"C.C.C.C.C.. 6 :.-.-.-...X.o.o.o. .{ { ( _ _ _ _ | j.a.g.p.<.2.<.u.i.p.f.E j a & C.C.C.C.C.C.C.C.",
"C.C.C.C.C.. = ....-.:.-.O... .o. .{ { [ _ [ } | d.p.p.s.a.<.,.,.u.i.p./ H A a % C.C.C.C.C.C.C.C.",
"C.C.C.C.C.o $ = ....;.;.;... ...o... .{ [ { | p.u.u.p.a.s.u.,.,.1.p.L H H j t % C.C.C.C.C.C.C.C.",
"C.C.C.C.. + $ $ = ..X.;.=.o. .*. .{ ..{ { { 5.1.<.u.p.a.s.p.,.,.u.J h S A N 7 $ C.C.C.C.C.C.C.C.",
"C.C.C.C.o @ $ $ $ = ] ;.;.....;...{  .:.1.u.,.,.<.u.p.i.a.a.,.<.H N a N S A 2 $ C.C.C.C.C.C.C.C.",
"C.C.C.C.O @ $ $ % $ = ' o.o.;.3.u.a.i.,.-.,.,.<.<.u.u.p.p.p.p.H h p M h S D < $ C.C.C.C.C.C.C.C.",
"C.C.C.C.: * $ $ $ % $ : <.( I l s r y r r ^ ..2.u.u.u.i.i.p./ N h g g p S A & $ C.C.C.C.C.C.C.C.",
"C.C.C.C.7 4 4 3 < : & 5 w 9 q r i i i i i k n ..<.u.u.2.u.E S j p g g p A a & C.C.C.C.C.C.C.C.C.",
"C.C.C.C.C.4 3 4 8 9 9 D q 9 9 q r y r y r r n n n X.u.2.E S D D h g p p j w $ C.C.C.C.C.C.C.C.C.",
"C.C.C.C.C.C.4 4 4 9 y C C C M y q r q q r q x b n n n ^ F S h j D g p p A 7 $ C.C.C.C.C.C.C.C.C.",
"C.C.C.C.C.C.4 4 4 9 Z V C C C C C Z g r 9 q w v c n f 4 u F j D N h i g N : $ C.C.C.C.C.C.C.C.C.",
"C.C.C.C.C.C.C.1 8 p V C C C C C C C C C C p 9 z c f 4 4 4 9 j j B A g g a & C.C.C.C.C.C.C.C.C.C.",
"C.C.C.C.C.C.C.C.t B V C C C C C C C C C C C C Y j r 4 4 4 4 4 w A A h p r & C.C.C.C.C.C.C.C.C.C.",
"C.C.C.C.C.C.C.C.C.2 - * * % $ % $ $ % % % $ $ $ % = 3 9 4 4 : 4 8 j S y 2 & C.C.C.C.C.C.C.C.C.C.",
"C.C.C.C.C.C.C.C.C.C.C.C.C.C.C.C.C.$ $ $ $ $ $ # @ $ $ $ $ & * : : 1 w h : C.C.C.C.C.C.C.C.C.C.C.",
"C.C.C.C.C.C.C.C.C.C.C.C.C.C.C.C.C.C.C.C.C.C.C.C.C.C.C.C.C.$ # # # # # * 2 C.C.C.C.C.C.C.C.C.C.C.",
"C.C.C.C.C.C.C.C.C.C.C.C.C.C.C.C.C.C.C.C.C.C.C.C.C.C.C.C.C.C.C.C.C.C.C.C.C.C.C.C.C.C.C.C.C.C.C.C.",
"C.C.C.C.C.C.C.C.C.C.C.C.C.C.C.C.C.C.C.C.C.C.C.C.C.C.C.C.C.C.C.C.C.C.C.C.C.C.C.C.C.C.C.C.C.C.C.C.",
"C.C.C.C.C.C.C.C.C.C.C.C.C.C.C.C.C.C.C.C.C.C.C.C.C.C.C.C.C.C.C.C.C.C.C.C.C.C.C.C.C.C.C.C.C.C.C.C.",
"C.C.C.C.C.C.C.C.C.C.C.C.C.C.C.C.C.C.C.C.C.C.C.C.C.C.C.C.C.C.C.C.C.C.C.C.C.C.C.C.C.C.C.C.C.C.C.C.",
"C.C.C.C.C.C.C.C.C.C.C.C.C.C.C.C.C.C.C.C.C.C.C.C.C.C.C.C.C.C.C.C.C.C.C.C.C.C.C.C.C.C.C.C.C.C.C.C.",
"C.C.C.C.C.C.C.C.C.C.C.C.C.C.C.C.C.C.C.C.C.C.C.C.C.C.C.C.C.C.C.C.C.C.C.C.C.C.C.C.C.C.C.C.C.C.C.C."
};
