/* XPM */
static char *result[] = {
/* columns rows colors chars-per-pixel */
"48 48 179 2 ",
"   c black",
".  c #010000",
"X  c #010100",
"o  c #020100",
"O  c #020101",
"+  c #030201",
"@  c #040301",
"#  c #050401",
"$  c #060401",
"%  c #060501",
"&  c #090702",
"*  c #0A0702",
"=  c #0A0703",
"-  c #0C0803",
";  c #0D0A03",
":  c #100B04",
">  c #110C04",
",  c #110D04",
"<  c #130D05",
"1  c #130E04",
"2  c #140E05",
"3  c #150E05",
"4  c #150E06",
"5  c #161005",
"6  c #171105",
"7  c #191106",
"8  c #1B1406",
"9  c #1E1607",
"0  c #1E1408",
"q  c #201707",
"w  c #221907",
"e  c #201608",
"r  c #221709",
"t  c #231709",
"y  c #251B08",
"u  c #261A0A",
"i  c #271C08",
"p  c #271D08",
"a  c #281B0A",
"s  c #2C1E0B",
"d  c #2D1E0B",
"f  c #2E1F0C",
"g  c #32250B",
"h  c #33260B",
"j  c #30200C",
"k  c #36260D",
"l  c #37280C",
"z  c #3B2C0D",
"x  c #3D2D0D",
"c  c #432D11",
"v  c #442E12",
"b  c #493113",
"n  c #493611",
"m  c #4E3A12",
"M  c #523C12",
"N  c #5D3F18",
"B  c #584114",
"V  c #594214",
"C  c #594215",
"Z  c #5C4415",
"A  c #5D4515",
"S  c #614219",
"D  c #724D1D",
"F  c #734D1E",
"G  c #6F5219",
"H  c #705319",
"J  c #79531E",
"K  c #7B521F",
"L  c #7B5B1C",
"P  c #7B5320",
"I  c #7C5320",
"U  c #7E5520",
"Y  c #805E1D",
"T  c #835F1D",
"R  c #85631F",
"E  c #8A651F",
"W  c #835822",
"Q  c #875B22",
"!  c #8A5D23",
"~  c #8A6520",
"^  c #8E6024",
"/  c #906125",
"(  c #986727",
")  c #926C22",
"_  c #946D22",
"`  c #966F22",
"'  c #996827",
"]  c #9A6927",
"[  c #9F7525",
"{  c #9F7625",
"}  c #A06B29",
"|  c #A26D29",
" . c #A87C27",
".. c #A7712B",
"X. c #AD772B",
"o. c #AD742C",
"O. c #B27A2D",
"+. c #B4792E",
"@. c #B57A2E",
"#. c #BB7E30",
"$. c #BC7E30",
"%. c #B8872C",
"&. c #BF8D2D",
"*. c #C18F2E",
"=. c #C48631",
"-. c #C58432",
";. c #C88B31",
":. c #CA8A33",
">. c #CF8F33",
",. c #CD8B34",
"<. c #CE8B34",
"1. c #CF8B35",
"2. c #D08D34",
"3. c #D08F34",
"4. c #D28F35",
"5. c #C89430",
"6. c #CA9530",
"7. c #D99636",
"8. c #DB9636",
"9. c #DC9836",
"0. c #DD9937",
"q. c #DE9A36",
"w. c #DE9A37",
"e. c #DE9C36",
"r. c #E29D37",
"t. c #D9A134",
"y. c #DAA134",
"u. c #DBA235",
"i. c #DEA434",
"p. c #DFA435",
"a. c #DFA535",
"s. c #E5A337",
"d. c #E1A736",
"f. c #E2A736",
"g. c #E5AA37",
"h. c #E7AB37",
"j. c #E9AC37",
"k. c #E7A538",
"l. c #ECAA39",
"z. c #EDAA39",
"x. c #EEAB39",
"c. c #EEAB3A",
"v. c #EFAC39",
"b. c #EFAC3A",
"n. c #F0AD3A",
"m. c #EDB039",
"M. c #F0B239",
"N. c #F3B03B",
"B. c #F0B23A",
"V. c #F1B33A",
"C. c #F4B33A",
"Z. c #F6B33B",
"A. c #F2B43A",
"S. c #F3B43A",
"D. c #F7B43B",
"F. c #F5B63B",
"G. c #F7B73B",
"H. c #F7B63C",
"J. c #F8B53C",
"K. c #F9B63C",
"L. c #FAB73C",
"P. c #F8B83C",
"I. c #FAB83C",
"U. c #FBB83C",
"Y. c #FAB93C",
"T. c #FBB93C",
"R. c #FAB83D",
"E. c #FAB93D",
"W. c #FBBA3C",
"Q. c #FDBA3C",
"!. c #FCBA3D",
"~. c #FCBB3D",
"^. c #FDBB3D",
"/. c #FDBC3D",
"(. c #FEBC3D",
"). c #FEBC3E",
"_. c #FEBD3E",
"`. c #FFBD3E",
"'. c None",
/* pixels */
"'.'.'.'.'.'.'.'.'.'.'.'.'.'.'.'.'.'.'.'.'.'.'.'.'.'.'.'.'.'.'.'.'.'.'.'.'.'.'.'.'.'.'.'.'.'.'.'.",
"'.'.'.'.'.'.'.'.'.'.'.'.'.'.'.'.'.'.'.'.'.'.'.'.'.'.'.'.'.'.'.'.'.'.'.'.'.'.'.'.'.'.'.'.'.'.'.'.",
"'.'.'.'.'.'.'.'.'.'.'.'.'.'.'.'.'.'.'.'.'.'.'.'.'.'.'.'.'.'.'.'.'.'.'.'.'.'.'.'.'.'.'.'.'.'.'.'.",
"'.'.'.'.'.'.'.'.'.'.'.'.'.'.'.'.'.'.'.'.'.'.'.'.'.'.'.'.'.'.'.'.'.'.'.'.'.'.'.'.'.'.'.'.'.'.'.'.",
"'.'.'.'.'.'.'.'.'.'.'.'.'.'.'.'.'.'.'.'.'.'.'.'.'.'.'.'.'.'.'.'.'.'.'.'.'.'.'.'.'.'.'.'.'.'.'.'.",
"'.'.'.'.'.'.'.'.'.'.'.'.'.'.'.'.'.'.'.'.'.'.'.'.'.'.'.'.'.'.'.'.'.'.'.'.'.'.'.'.'.'.'.'.'.'.'.'.",
"'.'.'.'.'.'.'.'.'.'.'.'.'.'.'.'.'.'.'.'.'.'.'.'.'.'.'.'.'.'.'.'.'.'.'.'.'.'.'.'.'.'.'.'.'.'.'.'.",
"'.'.'.'.'.'.'.'.'.'.'.'.'.'.'.'.'.'.'.'.'.'.'.'.'.'.'.'.'.'.'.'.'.'.'.'.'.'.'.'.'.'.'.'.'.'.'.'.",
"'.'.'.'.'.'.'.'.'.'.'.'.'.'.'.'.'.'.'.'.'.'.'.'.'.'.'.'.'.'.'.'.'.'.'.'.'.'.'.'.'.'.'.'.'.'.'.'.",
"'.'.'.'.'.'.'.'.'.'.'.'.'.'.'.'.'.'.'.'.'.'.'.'.'.'.'.'.'.'.'.'.'.'.'.'.'.'.'.'.'.'.'.'.'.'.'.'.",
"'.'.'.'.'.'.'.'.'.'.'.'.'.'.'.'.'.'.'.'.'.'.'.'.'.'.'.'.'.'.'.'.'.'.'.'.'.'.'.'.'.'.'.'.'.'.'.'.",
"'.'.'.'.'.'.'.'.'.'.'.'.'.'.'.'.'.'.'.'.'.'.'.'.'.'.'.'.'.'.'.'.'.'.'.'.      '.'.'.'.'.'.'.'.'.",
"'.'.'.'.'.'.'.'.'.'.'.'.'.'.'.'.'.'.'.'.'.'.'.'.'.'.'.'.'.'.'.'.'.'.'.  B M._ + '.'.'.'.'.'.'.'.",
"'.'.'.'.'.'.'.'.'.'.'.'.'.'.'.'.'.'.'.'.'.'.'.'.'.'.'.'.'.'.'.'.'.'.'.  M E.H.k '.'.'.'.'.'.'.'.",
"'.'.'.'.'.'.'.'.'.'.'.'.'.'.'.'.'.'.'.'.'.'.'.'.'.'.'.'.'.'.'.'.'.'.'.  8 f.!.]   '.'.'.'.'.'.'.",
"'.'.'.'.'.'.'.'.'.'.'.'.'.'.'.'.'.'.'.'.'.'.'.'.'.'.'.'.'.'.'.'.'.  # Z h.`.b.+.  '.'.'.'.'.'.'.",
"'.'.'.'.'.'.'.'.'.'.'.'.'.'.'.'.'.'.'.'.'.'.'.'.'.'.'.'.'.'.'.  $ m d.`.`.R.N >   '.'.'.'.'.'.'.",
"'.'.'.'.'.'.'.'.'.'.'.'.'.'.'.'.'.'.'.'.'.'.'.'.'.'.'.'.'.'.  q &.~.`.`.`.(.' + '.'.'.'.'.'.'.'.",
"'.'.'.'.'.'.'.'.'.'.'.'.'.'.'.'.'.'.'.'.'.'.'.'.'.'.'.'.  & E P.`.`.`.`.`.`.e.s '.'.'.'.'.'.'.'.",
"'.'.'.'.'.'.'.'.'.'.'.'.'.'.'.'.'.'.'.'.'.'.'.'.'.'.'.  h 5.`.`.`.`.`.(.D.L.Z.Q   '.'.'.'.'.'.'.",
"'.'.'.'.'.'.'.'.'.'.'.'.'.'.'.'.'.'.'.'.'.'.'.'.'.  w { /.!.s.:.z.`.c.<.U W q.2.2 '.'.'.'.'.'.'.",
"'.'.'.'.'.'.'.'.'.'.'.'.'.'.'.'.'.'.'.'.'.'.'.  1 Y B.).l.X.d a 4.I.@.f o @ ..1.D   '.'.'.'.'.'.",
"'.'.'.'.'.'.'.'.'.'.'.'.'.'.'.'.'.'.'.'.'.  , L F.).x.=.c O     P 9.F . '.'.4 ! j   '.'.'.'.'.'.",
"'.'.'.'.'.'.'.'.'.'.'.'.'.'.'.'.'.'.'.  $ A a._.D.0./ 7   '.'.'.= ( -.d   '.      '.'.'.'.'.'.'.",
"'.'.'.'.'.'.'.'.  5 i 9 o '.'.'.'.'.o z p.`.L.r.#.b   '.'.'.'.'.'.- $.}   '.'.'.'.'.'.'.'.'.'.'.",
"'.'.'.'.'.'.'.  g g.W.S. .6 '.'.  ; ) G.`.b.,.W 4   '.'.'.'.'.'.'.  b S   '.'.'.'.'.'.'.'.'.'.'.",
"'.'.'.'.'.'.'.  6.`.(.).`.y.$ * H j.`.J.>.K :   '.'.'.'.'.'.'.'.'.'.    '.'.'.'.'.'.'.'.'.'.'.'.",
"'.'.'.'.'.'.'.6 ^.).8.7.C.`.~ R `.`.k.^ e X '.'.'.'.'.'.'.'.'.'.'.'.'.'.'.'.'.'.'.'.'.'.'.'.'.'.",
"'.'.'.'.'.'.  n `.N.I < @ ` `.`.I.;.e   '.'.'.'.'.'.'.'.'.'.'.'.'.'.'.'.'.'.'.'.'.'.'.'.'.'.'.'.",
"'.'.'.'.'.'.  C `.z.3 '.'.p `.T.O.0   '.'.'.'.'.'.'.'.'.'.'.'.'.'.'.'.'.'.'.'.'.'.'.'.'.'.'.'.'.",
"'.'.'.'.'.'.'.h `.v.t '.'.  t.w.u   '.'.'.'.'.'.'.'.'.'.'.'.'.'.'.'.'.'.'.'.'.'.'.'.'.'.'.'.'.'.",
"'.'.'.'.'.'.'.+ i.U.T   '.  *.n.s   '.'.'.'.'.'.'.'.'.'.'.'.'.'.'.'.'.'.'.'.'.'.'.'.'.'.'.'.'.'.",
"'.'.'.'.'.'.'.  l V.Y.G % x ^.Q.| X '.'.'.'.'.'.'.'.'.'.'.'.'.'.'.'.'.'.'.'.'.'.'.'.'.'.'.'.'.'.",
"'.'.'.'.'.'.'.'.X V (.~.u.A.`.K.o.+ '.'.'.'.'.'.'.'.'.'.'.'.'.'.'.'.'.'.'.'.'.'.'.'.'.'.'.'.'.'.",
"'.'.'.'.'.'.'.'.'.  V m.`.`.K.3.v   '.'.'.'.'.'.'.'.'.'.'.'.'.'.'.'.'.'.'.'.'.'.'.'.'.'.'.'.'.'.",
"'.'.'.'.'.'.'.'.'.'.  y [ %.J r   '.'.'.'.'.'.'.'.'.'.'.'.'.'.'.'.'.'.'.'.'.'.'.'.'.'.'.'.'.'.'.",
"'.'.'.'.'.'.'.'.'.'.'.'.      '.'.'.'.'.'.'.'.'.'.'.'.'.'.'.'.'.'.'.'.'.'.'.'.'.'.'.'.'.'.'.'.'.",
"'.'.'.'.'.'.'.'.'.'.'.'.'.'.'.'.'.'.'.'.'.'.'.'.'.'.'.'.'.'.'.'.'.'.'.'.'.'.'.'.'.'.'.'.'.'.'.'.",
"'.'.'.'.'.'.'.'.'.'.'.'.'.'.'.'.'.'.'.'.'.'.'.'.'.'.'.'.'.'.'.'.'.'.'.'.'.'.'.'.'.'.'.'.'.'.'.'.",
"'.'.'.'.'.'.'.'.'.'.'.'.'.'.'.'.'.'.'.'.'.'.'.'.'.'.'.'.'.'.'.'.'.'.'.'.'.'.'.'.'.'.'.'.'.'.'.'.",
"'.'.'.'.'.'.'.'.'.'.'.'.'.'.'.'.'.'.'.'.'.'.'.'.'.'.'.'.'.'.'.'.'.'.'.'.'.'.'.'.'.'.'.'.'.'.'.'.",
"'.'.'.'.'.'.'.'.'.'.'.'.'.'.'.'.'.'.'.'.'.'.'.'.'.'.'.'.'.'.'.'.'.'.'.'.'.'.'.'.'.'.'.'.'.'.'.'.",
"'.'.'.'.'.'.'.'.'.'.'.'.'.'.'.'.'.'.'.'.'.'.'.'.'.'.'.'.'.'.'.'.'.'.'.'.'.'.'.'.'.'.'.'.'.'.'.'.",
"'.'.'.'.'.'.'.'.'.'.'.'.'.'.'.'.'.'.'.'.'.'.'.'.'.'.'.'.'.'.'.'.'.'.'.'.'.'.'.'.'.'.'.'.'.'.'.'.",
"'.'.'.'.'.'.'.'.'.'.'.'.'.'.'.'.'.'.'.'.'.'.'.'.'.'.'.'.'.'.'.'.'.'.'.'.'.'.'.'.'.'.'.'.'.'.'.'.",
"'.'.'.'.'.'.'.'.'.'.'.'.'.'.'.'.'.'.'.'.'.'.'.'.'.'.'.'.'.'.'.'.'.'.'.'.'.'.'.'.'.'.'.'.'.'.'.'.",
"'.'.'.'.'.'.'.'.'.'.'.'.'.'.'.'.'.'.'.'.'.'.'.'.'.'.'.'.'.'.'.'.'.'.'.'.'.'.'.'.'.'.'.'.'.'.'.'.",
"'.'.'.'.'.'.'.'.'.'.'.'.'.'.'.'.'.'.'.'.'.'.'.'.'.'.'.'.'.'.'.'.'.'.'.'.'.'.'.'.'.'.'.'.'.'.'.'."
};
