/* XPM */
static char *result[] = {
/* columns rows colors chars-per-pixel */
"48 48 5 1 ",
"  c black",
". c #B35F0E",
"X c #CB8F18",
"o c #FFD145",
"O c None",
/* pixels */
"OOOOOOOOOOOOOOOOOOOOO         OOOOOOOOOOOOOOOOOO",
"OOOOOOOOOOOOOOOOOOOOO         OOOOOOOOOOOOOOOOOO",
"OOOOOOOOOOOOOOOOOOOOO         OOOOOOOOOOOOOOOOOO",
"OOOOOOOOOOOOOOOOOO   ooooooooo   OOOOOOOOOOOOOOO",
"OOOOOOOOOOOOOOOOOO   ooooooooo   OOOOOOOOOOOOOOO",
"OOOOOOOOOOOOOOOOOO   ooooooooo   OOOOOOOOOOOOOOO",
"OOOOOOOOOOOOOOO   oooXXX   XXXXXX   OOOOOOOOOOOO",
"OOOOOOOOOOOOOOO   oooXXX   XXXXXX   OOOOOOOOOOOO",
"OOOOOOOOOOOOOOO   oooXXX   XXXXXX   OOOOOOOOOOOO",
"OOOOOOOOOOOOOOO   ooo   OOO   XXX   OOOOOOOOOOOO",
"OOOOOOOOOOOOOOO   ooo   OOO   XXX   OOOOOOOOOOOO",
"OOOOOOOOOOOOOOO   ooo   OOO   XXX   OOOOOOOOOOOO",
"OOOOOOOOOOOOOOO   XXX...   XXX...   OOOOOOOOOOOO",
"OOOOOOOOOOOOOOO   XXX...   XXX...   OOOOOOOOOOOO",
"OOOOOOOOOOOOOOO   XXX...   XXX...   OOOOOOOOOOOO",
"OOOOOOOOOOOOOOOOOO   XXXooo...   OOOOOOOOOOOOOOO",
"OOOOOOOOOOOOOOOOOO   XXXooo...   OOOOOOOOOOOOOOO",
"OOOOOOOOOOOOOOOOOO   XXXooo...   OOOOOOOOOOOOOOO",
"OOOOOOOOOOOOOOOOOOOOO   ...   OOOOOOOOOOOOOOOOOO",
"OOOOOOOOOOOOOOOOOOOOO   ...   OOOOOOOOOOOOOOOOOO",
"OOOOOOOOOOOOOOOOOOOOO   ...   OOOOOOOOOOOOOOOOOO",
"OOOOOOOOOOOOOOOOOOOOO   XXX   OOOOOOOOOOOOOOOOOO",
"OOOOOOOOOOOOOOOOOOOOO   XXX   OOOOOOOOOOOOOOOOOO",
"OOOOOOOOOOOOOOOOOOOOO   XXX   OOOOOOOOOOOOOOOOOO",
"OOOOOOOOOOOOOOOOOOOOO   XXX   OOOOOOOOOOOOOOOOOO",
"OOOOOOOOOOOOOOOOOOOOO   XXX   OOOOOOOOOOOOOOOOOO",
"OOOOOOOOOOOOOOOOOOOOO   XXX   OOOOOOOOOOOOOOOOOO",
"OOOOOOOOOOOOOOOOOO      XXX   OOOOOOOOOOOOOOOOOO",
"OOOOOOOOOOOOOOOOOO      XXX   OOOOOOOOOOOOOOOOOO",
"OOOOOOOOOOOOOOOOOO      XXX   OOOOOOOOOOOOOOOOOO",
"OOOOOOOOOOOOOOOOOO   oooXXX   OOOOOOOOOOOOOOOOOO",
"OOOOOOOOOOOOOOOOOO   oooXXX   OOOOOOOOOOOOOOOOOO",
"OOOOOOOOOOOOOOOOOO   oooXXX   OOOOOOOOOOOOOOOOOO",
"OOOOOOOOOOOOOOOOOOOOO   XXX   OOOOOOOOOOOOOOOOOO",
"OOOOOOOOOOOOOOOOOOOOO   XXX   OOOOOOOOOOOOOOOOOO",
"OOOOOOOOOOOOOOOOOOOOO   XXX   OOOOOOOOOOOOOOOOOO",
"OOOOOOOOOOOOOOO         ...   OOOOOOOOOOOOOOOOOO",
"OOOOOOOOOOOOOOO         ...   OOOOOOOOOOOOOOOOOO",
"OOOOOOOOOOOOOOO         ...   OOOOOOOOOOOOOOOOOO",
"OOOOOOOOOOOOOOO   oooXXXXXX   OOOOOOOOOOOOOOOOOO",
"OOOOOOOOOOOOOOO   oooXXXXXX   OOOOOOOOOOOOOOOOOO",
"OOOOOOOOOOOOOOO   oooXXXXXX   OOOOOOOOOOOOOOOOOO",
"OOOOOOOOOOOOOOO         ...   OOOOOOOOOOOOOOOOOO",
"OOOOOOOOOOOOOOO         ...   OOOOOOOOOOOOOOOOOO",
"OOOOOOOOOOOOOOO         ...   OOOOOOOOOOOOOOOOOO",
"OOOOOOOOOOOOOOOOOOOOO         OOOOOOOOOOOOOOOOOO",
"OOOOOOOOOOOOOOOOOOOOO         OOOOOOOOOOOOOOOOOO",
"OOOOOOOOOOOOOOOOOOOOO         OOOOOOOOOOOOOOOOOO"
};
