/* XPM */
static char *result[] = {
/* columns rows colors chars-per-pixel */
"24 24 5 1 ",
"  c #161320",
". c #6DA200",
"X c #BAD200",
"o c #F3F1E2",
"O c None",
/* pixels */
"OOOOOOOOOOOOOOOOOOOOOOOO",
"OOOOOOOOOOOOOOOOOOOOOOOO",
"OOOOOOOOOOOOOOOOOOOOOOOO",
"OOOOOOO          OOOOOOO",
"OOOOOOO ooo..... OOOOOOO",
"OOOOOOO oXXXXXX. OOOOOOO",
"OOOOOOO .X  XXX  OOOOOOO",
"OOOOOOO .X  XXX  OOOOOOO",
"OOOOOOO .XXXXXX. OOOOOOO",
"OOOOOOO . X X X  OOOOOOO",
"OOOOOOO   X   X  OOOOOOO",
"OOOOOOOO        OOOOOOOO",
"OOOOOOO          OOOOOOO",
"OOOOOO            OOOOOO",
"OOOOO  .    X   .  OOOOO",
"OOOOO ..X X X X .. OOOOO",
"OOOOO ............ OOOOO",
"OOOOO              OOOOO"
"OOOOOOOOOOOOOOOOOOOOOOOO",
"OOOOOOOOOOOOOOOOOOOOOOOO",
"OOOOOOOOOOOOOOOOOOOOOOOO",
"OOOOOOOOOOOOOOOOOOOOOOOO",
"OOOOOOOOOOOOOOOOOOOOOOOO",
"OOOOOOOOOOOOOOOOOOOOOOOO",
};
