/* XPM */
static char *result[] = {
/* columns rows colors chars-per-pixel */
"24 24 5 1 ",
"  c #161320",
". c #6DA200",
"X c #BAD200",
"o c #F3F1E2",
"O c None",
/* pixels */
"OOOOOOOOOOOOOOOOOOOOOOOO",
"OOOOOOOOOOOOOOOOOOOOOOOO",
"OOOOOOOOOOOOOOOOOOOOOOOO",
"OOOOOOOOOOOOOOOOOOOOOOOO",
"OOOOOOOOOOOOOOOOOOOOOOOO",
"OOOOOOOOOOOOOOOOOOOOOOOO",
"OOOOOOOOOOOOOOOOOOOOOOOO",
"OOOOOOOOOOOOOOOOOOOOOOOO",
"OOOOOOO          OOOOOOO",
"OOOOOOO ooo..... OOOOOOO",
"OOOOOOO oXXXXXX. OOOOOOO",
"OOOOOOO .XXXXXX. OOOOOOO",
"OOOOOOO .XXXXXX. OOOOOOO",
"OOOOOO  .XXXXXX.  OOOOOO",
"OOOOO  ..XX X X..  OOOOO",
"OOOOO ..X X XXXX.. OOOOO",
"OOOOO ............ OOOOO",
"OOOOO              OOOOO"
"OOOOOOOOOOOOOOOOOOOOOOOO",
"OOOOOOOOOOOOOOOOOOOOOOOO",
"OOOOOOOOOOOOOOOOOOOOOOOO",
"OOOOOOOOOOOOOOOOOOOOOOOO",
"OOOOOOOOOOOOOOOOOOOOOOOO",
"OOOOOOOOOOOOOOOOOOOOOOOO",
};
