/* XPM */
static char *result[] = {
/* columns rows colors chars-per-pixel */
"24 24 6 1 ",
"  c #120C0A",
". c #6F2C77",
"X c #E65F69",
"o c #B73D94",
"O c #EDE4DA",
"+ c None",
/* pixels */
"++++++++++++++++++++++++",
"++++++++++++++++++++++++",
"++++++++++++++++++++++++",
"++++++++++++++++++++++++",
"++++++++++++++++++++++++",
"++++++++++++++++++++++++",
"+++++++          +++++++",
"+++++++ OOOooooo +++++++",
"+++++++ OXXXXXXo +++++++",
"+++++++ oX  XXX  +++++++",
"+++++++ oX  XXX  +++++++",
"+++++++ oXXXXXXo +++++++",
"+++++++ o X X X  +++++++",
"+++++++   X   X  +++++++",
"++++++            ++++++",
"+++++  .    o   .  +++++",
"+++++ ..o o o o .. +++++",
"+++++ ............ +++++",
"+++++              +++++"
"++++++++++++++++++++++++",
"++++++++++++++++++++++++",
"++++++++++++++++++++++++",
"++++++++++++++++++++++++",
"++++++++++++++++++++++++",
};
