/* XPM */
static char *result[] = {
/* columns rows colors chars-per-pixel */
"48 51 179 2 ",
"   c #000000",
".  c #0B0600",
"X  c #0C0A01",
"o  c #0C0C0C",
"O  c #130C00",
"+  c #1C0E00",
"@  c #1A1500",
"#  c #1F1A00",
"$  c #121212",
"%  c #191B1A",
"&  c #191813",
"*  c #211100",
"=  c #2B1600",
"-  c #231D00",
";  c #2F1800",
":  c #341C00",
">  c #3B1F00",
",  c #272100",
"<  c #2D2600",
"1  c #242108",
"2  c #3C2300",
"3  c #352D00",
"4  c #3E2C00",
"5  c #312200",
"6  c #3E3504",
"7  c #212121",
"8  c #272A2A",
"9  c #353525",
"0  c #343433",
"q  c #363A3A",
"w  c #3F3F3F",
"e  c #3A3935",
"r  c #442400",
"t  c #492600",
"y  c #412C00",
"u  c #532C00",
"i  c #5A2F00",
"p  c #413600",
"a  c #463B00",
"s  c #5F3200",
"d  c #453F12",
"f  c #623300",
"g  c #693700",
"h  c #6D3A00",
"j  c #713B00",
"k  c #783F00",
"l  c #4D4100",
"z  c #514501",
"x  c #554903",
"c  c #594B00",
"v  c #564B0D",
"b  c #5E5000",
"n  c #574E17",
"m  c #664300",
"M  c #734400",
"N  c #7C4100",
"B  c #7F4F00",
"V  c #744F00",
"C  c #695901",
"Z  c #785300",
"A  c #746200",
"S  c #7A6500",
"D  c #7C6900",
"F  c #78680A",
"G  c #766715",
"H  c #464429",
"J  c #4F4927",
"K  c #574F23",
"L  c #5B5328",
"P  c #454544",
"I  c #464941",
"U  c #464A4A",
"Y  c #4D4D4D",
"T  c #5E5A43",
"R  c #555555",
"E  c #555B5A",
"W  c #5C5D5D",
"Q  c #605C4B",
"!  c #626262",
"~  c #616867",
"^  c #6B6B6B",
"/  c #70706E",
"(  c #707070",
")  c #7C7D7D",
"_  c #824400",
"`  c #8E4A00",
"'  c #824E00",
"]  c #934D00",
"[  c #984F00",
"{  c #835500",
"}  c #865900",
"|  c #9C5E00",
" . c #9A5400",
".. c #A35500",
"X. c #AD5A00",
"o. c #B25D00",
"O. c #876300",
"+. c #826E00",
"@. c #8D6A00",
"#. c #896100",
"$. c #8B7500",
"%. c #8E7800",
"&. c #877302",
"*. c #937C00",
"=. c #977300",
"-. c #A06500",
";. c #AA6500",
":. c #B46000",
">. c #BD6300",
",. c #B56A00",
"<. c #AB7E00",
"1. c #BD7F00",
"2. c #B87400",
"3. c #C16500",
"4. c #C36A00",
"5. c #CB6D00",
"6. c #D16D00",
"7. c #C67700",
"8. c #C87F00",
"9. c #C47A00",
"0. c #D37400",
"q. c #D77C00",
"w. c #9A8201",
"e. c #A98F00",
"r. c #A58C00",
"t. c #BF8400",
"y. c #AB9101",
"u. c #B29600",
"i. c #B69A00",
"p. c #B99C00",
"a. c #C58300",
"s. c #CB8400",
"d. c #CC8800",
"f. c #D98400",
"g. c #DD8C00",
"h. c #D48600",
"j. c #CE9600",
"k. c #C99E00",
"l. c #DE9200",
"z. c #D39D00",
"x. c #D69900",
"c. c #E09500",
"v. c #E39C00",
"b. c #C0A300",
"n. c #C7A800",
"m. c #CDAD00",
"M. c #D6A300",
"N. c #DFA500",
"B. c #D4B300",
"V. c #D9B500",
"C. c #DBBA00",
"Z. c #E5A300",
"A. c #E6A900",
"S. c #E9AD00",
"D. c #ECB400",
"F. c #E0BE00",
"G. c #EEBC00",
"H. c #F0BF00",
"J. c #E4C100",
"K. c #E8C400",
"L. c #EEC900",
"P. c #F2C500",
"I. c #F5CD00",
"U. c #F6D000",
"Y. c gray55",
"T. c #949494",
"R. c #9F9F9F",
"E. c #A3A3A3",
"W. c gray68",
"Q. c #B2B2B2",
"!. c gray74",
"~. c #C1C1C1",
"^. c #D5D5D5",
"/. c #DFDFDF",
"(. c #E5E5E5",
"). c #E9E9E9",
"_. c #F3F3F3",
"`. c #FEFEFE",
"'. c None",
/* pixels */
"'.'.'.'.'.'.'.'.'.'.'.'.'.                                                  '.'.'.'.'.'.'.'.'.'.",
"'.'.'.'.'.'.'.'.'.'.'.'.'.                                                  '.'.'.'.'.'.'.'.'.'.",
"'.'.'.'.'.'.'.'.'.'.'.'.= : 2 y p a a a a a a a p y 2 2 y p a a a a a a a p 3 '.'.'.'.'.'.'.'.'.",
"'.'.'.'.'.'.'.'.'.'.'.O r f N } #.*.*.*.*.*.*.*.=.#.{ N } @.*.*.*.*.*.*.*.D c ,   '.'.'.'.'.'.'.",
"'.'.'.'.'.'.'.'.'.'.  O u ` >.s.z.F.F.F.F.F.F.F.V.j.7.4.d.M.F.F.J.C.J.C.C.u.C ,   '.'.'.'.'.'.'.",
"'.'.'.'.'.'.'.'.'.= = r M ;.f.v.D.I.U.U.U.U.U.U.P.S.c.f.v.A.H.P.P.U.U.U.U.m.*.x 3 < '.'.'.'.'.'.",
"'.'.'.'.'.'.'.'.+ r f N -.a.Z.D.P.I.U.U.U.U.U.U.P.H.A.Z.Z.v.c.S.G.U.U.U.U.C.p.w.S c < '.'.'.'.'.",
"'.'.'.'.'.'.'.  * i ] ,.d.N.L.P.I.I.U.U.U.U.U.U.U.P.P.H.Z.g.q.v.D.I.U.U.U.I.J.B.i.S 3     '.'.'.",
"'.'.'.'.'.'.    * f ..0.v.D.U.U.U.U.U.U.U.U.U.U.U.U.U.P.S.g.6.g.S.I.U.U.U.U.U.U.m.+.3     '.'.'.",
"'.'.'.'.'.'.    * f ..q.l.D.U.U.U.U.U.U.U.U.U.U.U.U.U.P.Z.g.6.c.S.I.U.U.U.U.U.U.B.+.3     '.'.'.",
"'.'.'.'.'.'.    * f ..0.l.D.U.U.U.U.U.U.U.U.U.U.U.U.U.P.A.g.6.c.D.I.U.U.U.U.U.U.m.+.3     '.'.'.",
"'.'.'.'.'.'.    * f ..0.l.D.U.L.J.C.C.C.C.C.C.C.C.C.C.V.j.7.>.8.j.C.C.C.C.C.C.C.p.A 3     '.'.'.",
"'.'.'.'.'.      * f ..0.c.D.I.B.u.*.%.%.$.*.$.%.%.%.%.$.} B M { O.*.%.%.%.%.%.%.S l #     '.'.'.",
"'.'.'.'.        * f ..q.c.D.I.p.+.a 6 p p a p p p p p 6 4 2 2 2 y p p p p p p a 3 - X     '.'.'.",
"'.'.'.. . .     * f ..0.l.S.J.w.x o X o o o $ o o o $ o o o o o o o o o o o o o o o o o o '.'.'.",
"'.'.= > t > * . * f ..5.2.<.w.G L e w Y E W W W W W W W W W W W W ! W W W W W ! W W W E U 0 '.'.",
"    : f _ h r O * f ..4.| V z J T ! ) Y.E.Q.W.W.W.W.W.W.W.W.W.W.W.W.W.W.W.W.W.W.W.W.W.R.( P     ",
"    > k o...f * * f ..>.N > . 0 ! T.Q.^._.`.`.`.`.`.`.`.`.`.`.`.`.`.`.`.`.`.`.`.`.`.`.(.T.U     ",
"    > _ 3...f * * f ..>.N > o 0 ! T.Q.^._.`.`.`.`.`.`._.(.~.Q.W.Q.Q.~./._.`.`.`.`.`.`.(.T.Y     ",
"    > k 3...f * * f ..>.N > . 0 ! T.Q.^._.`.`.`.`.`.`._.!.Y.! ! ! W T.!._.`.`.`.`.`.`.).T.U     ",
"    > N >...f * * f ..>.N 2 o 0 ! T.Q.^._.`.`.`.`.`.`.).R.R $ $ $ $ R R.).`.`.`.`.`.`.).T.U     ",
"    > N >...f * * f ..3. .m 6 H Q / Y.E.!.~.~.~.~.~.~.Q.) U % & % % U ) Q.~.!.~.~.~.~.Q.) P     ",
"    > N >...f * * f ..5.2.=.+.G L I Y W ^ ( ( ( ( ( ( ^ E U q q q q U E ^ ( / ( ( ( ( ^ R 0 '.'.",
"    > N >...f * @ f ..0.d.M.m.w.v & % % % 7 7 7 % 7 7 7 q U E E E E U q 7 7 7 7 7 % 7 7 7 '.'.'.",
"    > N >...f * * f ..q.l.D.L.u.A 3 < < < < < < , @ . o 8 U ~ ~ ~ ~ U 8 o X @ , , @ .     '.'.'.",
"    > N >...f * * f ..0.c.D.I.m.r.D D D D D D D C p @ o 8 U ~ ~ ~ ~ U 8 o @ 6 C C p @     '.'.'.",
"    > N >...f * * f ..0.c.D.U.J.C.n.n.n.n.n.n.n.e.C < o 8 U ~ ~ ~ ~ U 8 o , C y.e.C <     '.'.'.",
"    > N >...f * * f ..0.c.D.U.U.U.U.U.U.U.U.U.U.B.*.l 1 9 I E E E E I 9 1 l %.B.B.+.3     '.'.'.",
"    > k >...f * * f ..0.x.D.U.U.U.U.U.U.U.U.U.U.F.i.$.C n H q q q q H n C $.i.C.m.D 3     '.'.'.",
"    > N >...f * * f ..q.c.G.U.U.U.U.U.U.U.U.U.U.L.C.n.y.F 6 % % % % l G y.n.C.L.B.D 3     '.'.'.",
"    > N >...f * * f ..0.c.D.U.U.U.U.U.U.U.U.U.U.U.U.U.F.w.z o O O O z w.C.U.U.U.B.+.3     '.'.'.",
"    > N >...f * * f ..0.c.D.U.U.U.U.U.U.U.U.U.U.U.U.U.K.p.$.b b b b $.p.K.U.U.U.B.+.3     '.'.'.",
"    > N >...f * * f ..0.c.D.U.U.U.U.U.U.U.U.U.U.U.U.U.I.V.b.y.y.y.y.k.V.P.U.U.U.B.D 3     '.'.'.",
"    > N >...f * * f ..0.c.D.U.U.U.U.U.U.U.U.U.U.U.U.U.U.U.I.U.U.U.U.U.U.U.U.U.U.B.+.3     '.'.'.",
"    > N >...f * * f ..0.c.D.U.U.U.U.U.U.U.U.U.U.U.U.U.I.P.G.D.H.P.I.U.U.U.U.U.U.B.+.3     '.'.'.",
"    > N >...f * * f ..0.c.D.U.U.U.U.U.U.U.U.U.U.U.U.U.P.D.v.c.Z.G.I.U.U.U.U.U.U.m.D 3     '.'.'.",
"    > N >...f * * f ..0.c.D.U.U.U.U.U.U.U.U.U.U.U.U.U.P.S.g.0.c.D.I.U.U.U.U.U.U.B.+.3     '.'.'.",
"    > f ` k t + * f ..0.g.Z.D.H.P.I.U.U.U.U.U.U.U.U.U.I.A.g.6.g.S.I.U.U.U.U.U.U.B.+.3     '.'.'.",
"'.'.= r u r = . * f ..0.q.g.v.A.H.I.U.U.U.U.U.U.U.U.U.P.A.f.6.c.S.I.U.U.U.U.U.U.m.D 3     '.'.'.",
"'.'.'.O O O .   * f ..6.0.0.q.c.D.I.U.U.U.U.U.U.U.U.U.P.A.g.6.c.S.I.U.U.U.U.U.U.B.+.3     '.'.'.",
"'.'.'.'.        * f ..6.6.6.6.f.v.H.H.H.G.G.H.H.G.G.G.D.v.f.0.l.S.I.U.U.U.I.P.H.k.S 3     '.'.'.",
"'.'.'.'.'.      * f ..6.6.6.6.q.g.v.v.v.v.v.v.v.v.v.v.c.f.q.6.g.S.I.U.U.U.P.G.Z.t.Z 5     '.'.'.",
"'.'.'.'.'.'.    * f ..6.6.6.0.0.0.q.q.q.q.0.q.q.q.q.q.q.q.0.0.g.S.U.U.U.U.H.Z.f.,.M ;     '.'.'.",
"'.'.'.'.'.'.    * f ..6.6.6.6.6.6.6.6.6.6.5.3.o.o.o.o.o.o.o.:.a.x.H.P.H.H.S.c.q.o.h ;     '.'.'.",
"'.'.'.'.'.'.    * f ..6.6.6.6.6.6.6.6.6.6.o. ._ j j j j j j j | 9.v.Z.Z.v.c.f.0.o.h ;     '.'.'.",
"'.'.'.'.'.'.    * f ..6.6.6.6.6.6.6.6.6.6.o.k t : = : = ; ; : h -.f.f.f.f.q.q.0.o.h ;     '.'.'.",
"'.'.'.'.'.'.'.  * s [ >.3.3.>.>.3.>.o.3.3.[ i +               r _ >.>.>.3.3.>.>. .f =     '.'.'.",
"'.'.'.'.'.'.'.  + t g _ k k _ k k _ _ _ k f > O             . > f k k k k _ k _ g r +     '.'.'.",
"'.'.'.'.'.'.'.'.'.= > > > > > > > > > > > ; + .     '.'.'.'.'.= : > > > > > > > : + .     '.'.'.",
"'.'.'.'.'.'.'.'.'.'.                                '.'.'.'.'.'.                          '.'.'.",
"'.'.'.'.'.'.'.'.'.'.                                '.'.'.'.'.'.                          '.'.'."
};
