/* XPM */
static char *result[] = {
/* columns rows colors chars-per-pixel */
"48 51 167 2 ",
"   c #2A2F3F",
".  c #213038",
"X  c #28363E",
"o  c #2D2F41",
"O  c #332F45",
"+  c #3B2E4B",
"@  c #362F48",
"#  c #243741",
"$  c #263A45",
"%  c #2B3B43",
"&  c #273D49",
"*  c #283F4C",
"=  c #323E43",
"-  c #402E4E",
";  c #432E51",
":  c #4E2D59",
">  c #4B2D56",
",  c #522D5C",
"<  c #49355D",
"1  c #5B2C62",
"2  c #523967",
"3  c #612C67",
"4  c #692C6D",
"5  c #662B6A",
"6  c #6E2B70",
"7  c #742B74",
"8  c #29404E",
"9  c #364042",
"0  c #2B4554",
"q  c #2B4758",
"w  c #2D4B5C",
"e  c #3B425F",
"r  c #2F4F62",
"t  c #2F5063",
"y  c #315265",
"u  c #32556A",
"i  c #33596F",
"p  c #3C5B6D",
"a  c #355C74",
"s  c #395B76",
"d  c #37627B",
"f  c #39647E",
"g  c #424568",
"h  c #526369",
"j  c #486779",
"k  c #586A74",
"l  c #696D68",
"z  c #7B7465",
"x  c #606A70",
"c  c #6D777C",
"v  c #812A7D",
"b  c #396782",
"n  c #3B6A86",
"m  c #3C6D8B",
"M  c #3E708E",
"N  c #3F7392",
"B  c #496D83",
"V  c #5C7A8B",
"C  c #557181",
"Z  c #407697",
"A  c #4E7791",
"S  c #417798",
"D  c #427B9D",
"F  c #4B7E9C",
"G  c #4E7C95",
"H  c #517C95",
"J  c #677882",
"K  c #437DA0",
"L  c #872982",
"P  c #8F2988",
"I  c #4D819F",
"U  c #54849E",
"Y  c #6E818B",
"T  c #63899C",
"R  c #6C8D9B",
"E  c #788C91",
"W  c #7E949A",
"Q  c #4581A5",
"!  c #4684A9",
"~  c #4887AD",
"^  c #4888AF",
"/  c #4D84A5",
"(  c #5B8AA5",
")  c #5589A9",
"_  c #5B8FAE",
"`  c #5387A5",
"'  c #5E90AE",
"]  c #4A8BB3",
"[  c #4C8FB8",
"{  c #4D92BC",
"}  c #5E97B6",
"|  c #5394BA",
" . c #5895B8",
".. c #6A8EA2",
"X. c #638CA5",
"o. c #6191AE",
"O. c #6E92A8",
"+. c #7C9EAE",
"@. c #6498B5",
"#. c #6C9AB4",
"$. c #649BB9",
"%. c #6297B5",
"&. c #749EB2",
"*. c #729EB8",
"=. c #7BA3BB",
"-. c #9E9B8C",
";. c #859799",
":. c #8D9B9E",
">. c #879B9F",
",. c #9C9F96",
"<. c #A19C8C",
"1. c #A8A595",
"2. c #BAAF98",
"3. c #B7AE99",
"4. c #849AA7",
"5. c #949EA3",
"6. c #8EA3A7",
"7. c #81A0AB",
"8. c #8BA5AC",
"9. c #91A4A6",
"0. c #97ABAC",
"q. c #8AA2B1",
"w. c #9CB0B3",
"e. c #A4ABAE",
"r. c #A3A9A0",
"t. c #B1AFA0",
"y. c #A5B2AF",
"u. c #B9B8A9",
"i. c #A2AFB7",
"p. c #ADB5B9",
"a. c #B3B8BB",
"s. c #C0A888",
"d. c #CAB291",
"f. c #C1B39A",
"g. c #DBBA92",
"h. c #E1BE94",
"j. c #C6B9A1",
"k. c #D7C09F",
"l. c #E8C49A",
"z. c #EDC89C",
"x. c #E6C49A",
"c. c #CDC1A9",
"v. c #D3C6AD",
"b. c #DCC8A9",
"n. c #EBCCA5",
"m. c #E1C9A8",
"M. c #F5CFA1",
"N. c #F9D2A4",
"B. c #FFD7A8",
"V. c #8CAEC3",
"C. c #84AAC1",
"Z. c #8FB2C7",
"A. c #9BBACC",
"S. c #97B4C6",
"D. c #A0BECF",
"F. c #AAC2D1",
"G. c #B6CDDA",
"H. c #BDCBD4",
"J. c #C8D3D9",
"K. c #CBDAE4",
"L. c #D6E3EA",
"P. c #DDE6EC",
"I. c #EAECEC",
"U. c #E2E6E9",
"Y. c #EFF2F4",
"T. c #F8F8F9",
"R. c None",
/* pixels */
"R.R.R.R.R.R.. . . . . . . . . . . . . . . . . . . . . . . . . . . . . . . . . . . . R.R.R.R.R.R.",
"R.R.R.R.R.R.. . . . . . . . . . . . . . . . . . . . . . . . . . . . . . . . . . . . R.R.R.R.R.R.",
"R.R.R.R.R.R.. . # $ * q * q q q q q * $ . # * w w w r w w r w w w w w w w w w w w 0 R.R.R.R.R.R.",
"R.R.R.R.. . . . # q i s a a a a a a t 0 X * t s n n n n n n n n m n n n n m m n f u 0 . R.R.R.R.",
"R.R.R.. . . . . & y b N S S S S N N f r # 0 s K ^ ] ] ] ^ ] ^ ^ ] ] ^ ] ^ ] ] ] D d 0 . . R.R.R.",
"R.R.R.+ + @ O . & y m K ) o.#.( F N B j h j H K [ [ [ { { { { { { { { { { { { { ~ m i 0 0 R.R.R.",
". . + , 1 , +   & y Z K #.V.D.7.H u k J :.;...) ^ ] [ { { { { { { { { { { { { { ] D m d u 0 . . ",
". . ; 3 v 7 , O & y B ) C.G.P.i.J * k 5.J.J.V.o.! ^ [ { { { { { { { { { { { { { { ] ~ K f w . . ",
". . ; 5 P v 3 @ $ u n ) Z.K.T.a.c % x e.I.L.A.o.K ^ ] [ ] ~ ! ~ ] { { { { { { { [ ] ^ N d 0 . . ",
". . ; 5 P v , + $ u B ) Z.K.T.p.c % x e.I.L.A.o.K ^ [ ] K N b N Q { { { { { { { ] K m a r $ . . ",
". . ; 4 P v , O & u m ) Z.K.T.a.c X x e.I.L.A.o.K ~ [ ] M a 0 a S { { { { { { { ^ n u 0 & X . . ",
". . ; 3 v 7 , O $ u n ) Z.K.T.a.c X x e.I.L.A.o.! ~ ] ] m y & a N { { { { { { { ! n r $ # . . . ",
". . O > 3 , ;   & u m ) Z.K.T.a.c X k e.I.L.A.o.Q ~ [ ] D n s m K { { { { { { { ^ N b u 0 & . . ",
". .   O - + O . & u n ) Z.K.T.p.c X x e.I.L.A.o.Q ^ ] { ~ K S Q ] { { { { { { { [ ^ K N a 0 . . ",
". . . . . . .   & i n ` V.J.Y.p.J & x e.U.K.A.o.K ] ] { { { { { { { { { { { { { { { { ^ n w . . ",
". . . . .   + ; < < s n ..S.G.q.V r k 4.F.D.=.) K ~ [ { { { { { { { { { { { { { { { { ] n w . . ",
"R.R.. . . O : 5 4 2 e y B ..=.o.H b A X.*.*.o.` K ~ [ { { { { { { { { { { { { { { { { ] n w . . ",
"R.R.R.. . + 3 L L 3 + # y b K K D D K K K K K K Q ~ ] { { { { { { { { { { { { { { { { ] n w . . ",
"R.R.R.. . + 3 L L 3 + # y b K K K K K K K K K K Q ~ ] { { { { { { { { { { { { { { { { ] n w . . ",
"R.R.R.. . + 3 L L 3 + # r b K K K D K K K K D K K ] [ { { { { { { { { { { { { { { { { ] n w . . ",
"R.R.R.. . + 3 L L 3 + # r b K K K K K K K K K K K ~ [ { { { { { { | { { { { { { { { { ] n w . . ",
"R.R.R.. . @ , 6 6 , @ # t b K K K K K D D K K K K ! ] ] [ { { ] Q D D D D S D S S D D N a 0 . . ",
"R.R.R.. . o + : : + o # r b K K D K K K K K K D K ! ~ ~ ] { [ K m a a a a a a a a a a u q & . . ",
"R.R.R.. . . o o o X X # r b K K K K K K K K K K K K K Q ~ ] [ S a & $ & & & & & & & $ & # . . . ",
"R.R.R.R.. . . . . . . X q a m N S K K K K K K K ! K K ! ^ [ [ S a 0 & # . . . . . . . . . . . . ",
"R.R.R.R.R.R.R.R.. . . X 8 w i b M D K K K K ! ~ ^ ^ ~ ^ ] [ { K Z d y 0 X . . . R.R.R.R.R.R.R.R.",
"R.R.R.R.R.R.R.R.R.. . . # $ 8 u n D K K K ! ~ ] [ [ [ [ [ { { ] ~ Q n y # . . R.R.R.R.R.R.R.R.R.",
"R.R.R.R.R.R.R.R.R.R.. . . . . w d D F I U ( _ @.$.$.$.$.$.$.$.$.$.@.H p # . R.R.R.R.R.R.R.R.R.R.",
"R.R.R.R.R.R.R.R.R.R.R.. . . . w d N ` R ;.>.9.w.w.w.w.w.w.w.w.w.w.w.E h % . R.R.R.R.R.R.R.R.R.R.",
"R.R.R.R.R.R.R.R.R.R.R.R.. . . w d D T ;.1.2.j.j.v.v.v.v.v.v.v.v.v.v.<.l = . R.R.R.R.R.R.R.R.R.R.",
"R.R.R.R.R.R.R.R.R.R.R.R.R.. . w f D R ,.d.h.n.N.B.B.B.B.B.B.B.B.B.B.s.z 9 . R.R.R.R.R.R.R.R.R.R.",
"R.R.R.R.R.R.R.R.R.R.R.R.. . . w f K R ,.d.h.z.N.B.B.B.B.B.B.B.B.B.B.s.z 9 . R.R.R.R.R.R.R.R.R.R.",
"R.R.R.R.R.R.R.. . . . . . . . w b N ..,.d.k.z.N.B.B.B.B.B.B.B.B.B.B.2.z 9 . R.R.R.R.R.R.R.R.R.R.",
"R.R.R.R.R.R.. . . . . . . . X w b N ..,.d.x.z.N.B.B.B.B.B.B.B.B.B.B.s.z 9 . R.R.R.R.R.R.R.R.R.R.",
"R.R.R.R.R.R.. . X * q t t t t d M I R ,.d.g.z.M.B.B.B.B.B.B.B.B.B.N.s.z 9 . R.R.R.R.R.R.R.R.R.R.",
"R.R.R.R.R.R.. . $ w d M m M m N N I R ,.d.x.z.M.B.B.B.B.B.B.B.B.B.N.s.z 9 . R.R.R.R.R.R.R.R.R.R.",
"R.R.R.R.R.R.. . * a N { [ ] ] ^ ! K R ,.d.x.z.M.B.B.B.B.B.B.B.B.B.B.2.z 9 . R.R.R.R.R.R.R.R.R.R.",
"R.R.R.R.R.R.. . & u m N Q ~ ] ^ ! K U ;.1.3.u.c.b.m.z.M.M.M.M.m.k.v.-.l 9 . R.R.R.R.R.R.R.R.R.R.",
"R.R.R.R.R.R.. . # 0 r a m N ~ ! Q K U R W ;.8.0.y.u.k.l.l.x.x.k.u.w.E h X . R.R.R.R.R.R.R.R.R.R.",
"R.R.R.R.R.R.. . . . $ 0 i n Q K Q N I I I ` _  .&.0.d.k.g.x.g.1.8.$.I p X . R.R.R.R.R.R.R.R.R.R.",
"R.R.R.R.R.R.R.. . . . # q a m N N Q Q K Q ! ] [ } 7.1.3.2.3.3.9.&.{ D b w 0 8 R.R.R.R.R.R.R.R.R.",
"R.R.R.R.R.R.R.R.. . . # * w i f M K Q ! ^ ] ] [  .#.7.6.9.9.6.+.@.{ ^ N b a t & R.R.R.R.R.R.R.R.",
"R.R.R.R.R.R.R.R.R.. . . # $ & t b K Q ~ ] [ [ { |  .} @.@.@.@.}  .{ ] ^ Q N a 8 . R.R.R.R.R.R.R.",
"R.R.R.R.R.R.R.R.R.R.. . X # & u n N ! ] [ [ ] ~ ! ~ / ! ! ! ! ~ ] ] [ { { K a 8 . . R.R.R.R.R.R.",
"R.R.R.R.R.R.R.R.R.R.. # * w u d N K ! ^ [ ~ N m f f f f f b b M D ~ ] [ { N d 8 . . R.R.R.R.R.R.",
"R.R.R.R.R.R.R.R.R.R.. # q i n N N K ! ] { / M t q q 0 q 0 q q a m Q ^ ] [ I d 8 . . R.R.R.R.R.R.",
"R.R.R.R.R.R.R.R.R.R.. # r b N N N N N Q ~ N d $ . . . . . . . w d N D Q ~ N i 8 . . R.R.R.R.R.R.",
"R.R.R.R.R.R.R.R.R.R.. . 8 t d d d d b b n f t 8 . . . . . . . q t a d b b d w $ . . R.R.R.R.R.R.",
"R.R.R.R.R.R.R.R.R.R.. . $ 8 0 0 0 0 0 q w w 0 R.R.R.R.R.R.R.R.& 0 0 0 q w q & X . . R.R.R.R.R.R.",
"R.R.R.R.R.R.R.R.R.R.. . . . . . . . . . . . R.R.R.R.R.R.R.R.R.R.. . . . . . . . . . R.R.R.R.R.R.",
"R.R.R.R.R.R.R.R.R.R.. . . . . . . . . . . . R.R.R.R.R.R.R.R.R.R.. . . . . . . . . . R.R.R.R.R.R."
};
