/* XPM */
static char *_da8f1ff825942ec9d3fac0ffa33d61cxKLOU2uwyHyI00at[] = {
/* columns rows colors chars-per-pixel */
"23 24 10 1 ",
"  c None",
". c #211F30",
"X c #E44A4A",
"o c #72A11D",
"O c #CC3048",
"+ c #9C1B4D",
"@ c #28860F",
"# c #076029",
"$ c white",
"% c #A4CC42",
/* pixels */
" ...   ......   ....   ",
".XXX. .oooooo. .oooo.  ",
".OOO+................  ",
" ..+.+OXXXOXOOOOXOXXX. ",
".O+....+++O+OOOO+O++.. ",
".XO.++OOOOOOOOOOOOOOO. ",
".XO................... ",
".X..@@@@#$$$$#@#$$$$#@.",
" ..@oooo@####@o@####@o.",
"  .ooooooooooooooooooo.",
"  .ooooo############oo.",
"  .oooo@oooooooooooo@o.",
"  .ooooooooo@@@@@ooooo.",
"   .@ooooooooooooooo@. ",
"    .@@ooooooooooo@@.  ",
"    ...ooooooooooo...  ",
"   .oooooo%%%%%%%oo.@. ",
"  .@oo@.o%%%%%%%%%o.@@.",
"  .@@@.oo%%%%%%%%%o.@@.",
"   ...@ooo%%%%%%%oo... ",
"     .@oo........oo.   ",
"     .@o@.     .@o@.   ",
"     .@@.      .@@.    ",
"      ..        ..     "
};
