/* XPM */
static char *result[] = {
/* columns rows colors chars-per-pixel */
"48 48 229 2 ",
"   c #0C0301",
".  c #0E0B03",
"X  c #090709",
"o  c #130201",
"O  c #1B0201",
"+  c #130B03",
"@  c #1C0B02",
"#  c #140D0A",
"$  c #190C0B",
"%  c #141204",
"&  c #1B1202",
"*  c #14110B",
"=  c #1A140B",
"-  c #1E1907",
";  c #1B1513",
":  c #1A1A17",
">  c #230501",
",  c #2B0301",
"<  c #230B03",
"1  c #2A0C05",
"2  c #210A0A",
"3  c #320102",
"4  c #3B0102",
"5  c #2A1307",
"6  c #23120B",
"7  c #2A130D",
"8  c #241908",
"9  c #351709",
"0  c #221914",
"q  c #2A1B14",
"w  c #231D1C",
"e  c #2A1D1D",
"r  c #271412",
"t  c #361D14",
"y  c #192019",
"u  c #2C250C",
"i  c #2F280E",
"p  c #35280E",
"a  c #21211D",
"s  c #2B231A",
"d  c #362816",
"f  c #3B3417",
"g  c #36310F",
"h  c #1E1E21",
"j  c #262423",
"k  c #2B2423",
"l  c #332A29",
"z  c #32322D",
"x  c #3A332D",
"c  c #3C3532",
"v  c #3B3836",
"b  c #2F3029",
"n  c #450302",
"m  c #4B0202",
"M  c #45080F",
"N  c #540203",
"B  c #5C0304",
"V  c #53070C",
"C  c #441906",
"Z  c #460814",
"A  c #6A0304",
"S  c #780706",
"D  c #4C230E",
"F  c #53250A",
"G  c #472617",
"H  c #582A18",
"J  c #473B18",
"K  c #5B331B",
"L  c #683918",
"P  c #703511",
"I  c #472F25",
"U  c #483527",
"Y  c #583927",
"T  c #453B38",
"R  c #6D3C22",
"E  c #4E450F",
"W  c #54440E",
"Q  c #56490F",
"!  c #4F4415",
"~  c #4C431C",
"^  c #514414",
"/  c #51431C",
"(  c #574B18",
")  c #5F5116",
"_  c #7D431B",
"`  c #66561B",
"'  c #76671D",
"]  c #7A661E",
"[  c #75691E",
"{  c #79681B",
"}  c #5D4729",
"|  c #4A4221",
" . c #675924",
".. c #79553C",
"X. c #6D4B30",
"o. c #746424",
"O. c #7A6523",
"+. c #746922",
"@. c #796821",
"#. c #73632A",
"$. c #776628",
"%. c #666021",
"&. c #3F3E44",
"*. c #434343",
"=. c #4B4946",
"-. c #524B47",
";. c #545352",
":. c #5B5858",
">. c #514E50",
",. c #675345",
"<. c #7C5944",
"1. c #62605B",
"2. c #757473",
"3. c #8B0404",
"4. c #840505",
"5. c #990606",
"6. c #AC0604",
"7. c #A60807",
"8. c #B40604",
"9. c #BC0606",
"0. c #B90808",
"q. c #A80C13",
"w. c #C30907",
"e. c #D8090B",
"r. c #C60A13",
"t. c #ED0904",
"y. c #E30A0B",
"u. c #EB090B",
"i. c #E70508",
"p. c #F50503",
"a. c #FB0102",
"s. c #F20604",
"d. c #88481A",
"f. c #99531D",
"g. c #8C4A21",
"h. c #9C5625",
"j. c #835B3F",
"k. c #9B5729",
"l. c #A35B29",
"z. c #B15F2B",
"x. c #BD6D36",
"c. c #A6673A",
"v. c #C76D31",
"b. c #CD773A",
"n. c #D67836",
"m. c #FD7F29",
"M. c #FF7E24",
"N. c #ED7D33",
"B. c #E67B37",
"V. c #F57E34",
"C. c #845D44",
"Z. c #8C6853",
"A. c #856959",
"S. c #956E54",
"D. c #977158",
"F. c #90694F",
"G. c #BA7548",
"H. c #AD7C5B",
"J. c #A77657",
"K. c #B27F5D",
"L. c #B67B55",
"P. c #917B6B",
"I. c #A47F64",
"U. c #FD8026",
"Y. c #FB822D",
"T. c #F38235",
"R. c #F88639",
"E. c #EA813A",
"W. c #AE805D",
"Q. c #B6825E",
"!. c #AB8266",
"~. c #B68362",
"^. c #BA8967",
"/. c #BB8E72",
"(. c #D78957",
"). c #CD8253",
"_. c #FB8C44",
"`. c #F78B4A",
"'. c #FC924A",
"]. c #F4924F",
"[. c #FA9956",
"{. c #EC965F",
"}. c #F6A05F",
"|. c #C28D69",
" X c #C68A64",
".X c #C7926A",
"XX c #C49271",
"oX c #CD9774",
"OX c #D29A77",
"+X c #F49D61",
"@X c #E69F75",
"#X c #D8A27D",
"$X c #FDA568",
"%X c #FDAA6D",
"&X c #F8A164",
"*X c #E8A67C",
"=X c #FFAE74",
"-X c #FEAF7A",
";X c #F6A874",
":X c #FEB27D",
">X c #FCB074",
",X c #EFA16F",
"<X c #8A8886",
"1X c #929293",
"2X c #918E8D",
"3X c #A09E9B",
"4X c #A09EA0",
"5X c #A5A6A7",
"6X c #BCBBBC",
"7X c #D0A281",
"8X c #EAAB83",
"9X c #E7AC86",
"0X c #F3AE82",
"qX c #F5B284",
"wX c #FEB382",
"eX c #F4B48B",
"rX c #FBB489",
"tX c #EDB58B",
"yX c #C8C8C7",
"uX c #D8D7D7",
"iX c #D1D0D2",
"pX c #E1DFDD",
"aX c #E3E3E4",
"sX c #ECECEC",
"dX c #E9E5EA",
"fX c #F2F1EE",
"gX c #F2F2F1",
"hX c #EEF1F4",
"jX c None",
/* pixels */
"jXjXjXjXjXjXjXjXjXjXjXjXjXjXjXjXjXjXjX;.T = o o > < @ o   @ k T jXjXjXjXjXjXjXjXjXjXjXjXjXjXjXjX",
"jXjXjXjXjXjXjXjXjXjXjXjXjXjXjXjXjX-.t D P z.v.n.n.n.n.b.G.c._ F 9 7 v jXjXjXjXjXjXjXjXjXjXjXjXjX",
"jXjXjXjXjXjXjXjXjXjXjXjXjXjXjXjXe D z.B.R.R.[.+X%X%X%X%X$X%X$X+X(.c.K & k jXjXjXjXjXjXjXjXjXjXjX",
"jXjXjXjXjXjXjXjXjXjXjXjXjXjXjXq d.n.Y.Y.'.=X-X:XwXwXwX:X:XwXwXqX:X-X,X).R < T jXjXjXjXjXjXjXjXjX",
"jXjXjXjXjXjXjXjXjXjXjXjXjXjX7 d.N.R._.$XwXeXrX:X:XwX:X:XwXwXwXrXwX:XwX:X;XG.t w jXjXjXjXjXjXjXjX",
"jXjXjXjXjXjXjXjXjXjXjXjXjXI P N.V.`.%XwXwXwXwXrXrXwXrXrXwX:X:XwX:XwXwXwXwXqX.XL 0 jXjXjXjXjXjXjX",
"jXjXjXjXjXjXjXjXjXjXjXjX:.9 G.B.B.(..X^.K.L.L.H.H.W.W.~.W.K.W.~.^.!.~. X|.XXoX/.U * jXjXjXjXjXjX",
"jXjXjXjXjXjXjXjX*.r > $ X 5 D C 3 < < 2 > , > @ < > < , > > > < , < > 2 > > 1 < 2 o w jXjXjXjXjX",
"jXjXjXjXjXjXjXw   V q.B   > N A 3.5.5.6.8.0.9.9.w.9.9.w.9.9.8.9.6.6.6.6.q.7.5.5.S B 3 2 *.jXjXjX",
"jXjXjXjXjXjXj   O n S , n w.t.s.s.s.a.a.p.a.a.a.a.a.a.a.p.p.s.p.p.a.p.a.p.a.a.p.s.u.r.4., T jXjX",
"jXjXjXjXjXjXo V 5.N o   S u.a.a.a.a.a.a.a.a.a.a.a.a.a.a.a.a.a.a.a.a.a.a.a.a.a.a.a.a.a.i.4.$ jXjX",
"jXjXjXjXjXe n w.y.S   > n q.e.t.s.p.s.a.a.a.p.a.a.a.p.p.a.p.p.a.t.s.s.p.s.s.u.u.i.i.e.w.S $ jXjX",
"jXjXjXjXw n 9.s.w.4 > V o 3 N 4.7.6.8.0.0.9.9.9.8.8.8.6.6.7.5.5.3.3.3.4.S A A N m m n 3 o a jXjX",
"jXjXjXr m 9.i.e.A O     p _ F , > > > > > O > > > O > > > O > > > O < 1 9 t G U Y X.<.Z.I j jXjX",
"jXjX; N r.e.6.N , S O < v.N.B.@X.X^.K.K.W.W.W.~.~.~.^.^./.~.F./.#X*X8X*X*X8X9XoX.X8X0XqXS.# jXjX",
"jXl m q.7.N > n 7.6.O d B.m._.=X:X:XrXwXwXwXwXwX:X:XwX9Xj.q @ r C.9XwX:XwXOXX.7 = G ~.rXoX@ jXjX",
"jXl 4 4 @ * O 6.u.3.o D N.Y._.=XwX:XwXwXwX:XwXwX:X:XqX<.. =.<X=.o C.eXwX8XU # 1.2.a 6 /.OX5 jXjX",
"jXjXT T jX-.3 e.y.m + H N.m.'.=XwXwXwXwXwXwXwXwX:XwXoX6 :.aXsXdX;.5 OXwXJ.$ <XsXfXyXs Y 9Xs =.jX",
"jXjXjXjXjXl N y.w.> # H V.m.'.=XwX:X:XwX:XwXwXwXwXrXD.. 6X6X| 4X5X; J.eXG s pX1X;.yX2.6 ^.s jXjX",
"jXjXjXjXjXe S y.3.= z H V.m.'.-XwXwXwXwXwXwXwX:XwXrXX.; dX2.h :.iXj <.tXs 1.fX&.: 1X5X+ I.d T jX",
"jXjXjXjXjX7 7.e.m v c H T.Y.'.-XwXwXwXwXwX:XwXwXwXrXY : hX2Xh 2.aXb ..tXy !.sX>.h 5X6X; I.q jXjX",
"jXjXjXjXjX, 0.7.> jXc H N.M._.-XwX:XwXwXwXwX:XwXwXrXC.; uXaX1XiXiXs S.eXs =.hXyX2XaX1X@ I.q jXjX",
"jXjXjXjX-.3 r.A l jX-.H V.m._.=XwXwXwXwXwXwX:XwXwXwX|.@ 1XhXhXhX<X2 |.eX<.: yXgXgXhX;.G XX$ jXjX",
"jXjXjXjXz n q.O :.jXjXG N.Y.R.=XwX:X:X:XwXwXwXwXwXwXtXY h 5XuX1X: Y 0XrXoX7 *.yXuX2.# Z.^.+ jXjX",
"jXjXjXjXe Z M e jXjXjX9 b.Y.R.%XwXwX>X:XwXrXwX:X:XwXqXXXI # # X I /.wX:X8XD.= # $ O ..7XF.# jXjX",
"jXjXjXjXT O 2 jXjXjXjX7 v.U.R.$X:X:X:XwXwXwXwXwXwXwXwX X!.D.,.D.!.OXeX:X0X|.!...,.P.J.7XU c jXjX",
"jXjXjXjXjXjXjXjXjXjXjXt f.Y.Y.[.wXwXrXwXwX:X:XwXwXwXwX9XW.Z.A.S..XqXwX:XwX8XJ.Z.A.F. XXX5 *.jXjX",
"jXjXjXjXjXjXjXjXjXjXjX-.C B.M.R.%X:XwXwX:X:XwXrXwX:XwXwXqX*X*X*XwXwXwXwXwXeXrX*XOX;XeXX.0 jXjXjX",
"jXjXjXjXjXjXjXjXjXjXjXjX6 l.V.m.[.-XwXwXwX:X:XwXwX:X:X:XwXwX:X:XwXwXwXwXwX:X:XwX:X:XJ.$ :.jXjXjX",
"jXjXjXjXjXjXjXjXjXjXjXjX;.9 v.T.Y.'.=XwXwX:X:X:X:X:X:X:X:XwXwXrXwXwXwX:X:X:XwXrX;XL.1 *.jXjXjXjX",
"jXjXjXjXjXjXjXjXjXjXjXjXjXc 9 l.B.T._.[.%X:X:X>XwXrXrXwXwX:X:X:X:X:X:X:X=X=X;X(.X.< T jXjXjXjXjX",
"jXjXjXjXjXjXjXjXjXjXjXjXjXjXj @ D d.v.E.E.].].[.[.}.}.}.&X&X&X&X}.}.{.{.(.k.L 1 q jXjXjXjXjXjXjX",
"jXjXjXjXjXjXjXjXjXjXjXjXjXjXz # 8 & < 9 C H _ d.f.h.h.l.l.l.h.h.d.P D 9 6 @ = X jXjXjXjXjXjXjXjX",
"jXjXjXjXjXjXjXjXjXjXjXjXjXjXv * ~ J ~ ~ g u 8 & & @ @ + + o + & & 8 i f ~ ` ~ o jXjXjXjXjXjXjXjX",
"jXjXjXjXjXjXjXjXjXjXjXjXjXjXT = ! E  .o.o.o.o.#.#.#.o.o.o.o.#.#.#.o.o.+.[ +.~ X jXjXjXjXjXjXjXjX",
"jXjXjXjXjXjXjXjXjXjXjXjXjXjXv = ~ E ` o.{ { ] ] ' [ +.@.[ o.{ { O.O.{ { ] +.f : jXjXjXjXjXjXjXjX",
"jXjXjXjXjXjXjXjXjXjXjXjXjXjXv - / ^ ` o.@.+.+.+.' ' +.o.`  .#.O.+.' o.O.O.+.g j jXjXjXjXjXjXjXjX",
"jXjXjXjXjXjXjXjXjXjXjXjXjXjXjX% J E ` ' { [ @.[ { o.` Q Q Q ` #.' ' { O.O.#.i z jXjXjXjXjXjXjXjX",
"jXjXjXjXjXjXjXjXjXjXjXjXjXjXjX= J ! ) o.+.[ +.+.#.` ( ! ^ ^ ^ ` #.O.O.O.O.#.8 v jXjXjXjXjXjXjXjX",
"jXjXjXjXjXjXjXjXjXjXjXjXjXjXjX* J ^ ( o.O.{ @.+.} u % p | ~ ^ W ` ' [ { [ %.& *.jXjXjXjXjXjXjXjX",
"jXjXjXjXjXjXjXjXjXjXjXjXjXjXjX; f ! ( o.{ { +./ % a *.* s ~ ! ^ Q %.[ { $. .. jXjXjXjXjXjXjXjXjX",
"jXjXjXjXjXjXjXjXjXjXjXjXjXjXjX: f ~ ! %.O.$.} + b jXjXjX* i ~ ! / ( ` @.$.~ . jXjXjXjXjXjXjXjXjX",
"jXjXjXjXjXjXjXjXjXjXjXjXjXjXjX: g ~ ! ` #. .& z jXjXjXjXjX# g | / ^ ( o.#.p h jXjXjXjXjXjXjXjXjX",
"jXjXjXjXjXjXjXjXjXjXjXjXjXjXjXz u ~ ^ E  .8 : jXjXjXjXjXjX=.% f J ^ W ( #.= | jXjXjXjXjXjXjXjXjX",
"jXjXjXjXjXjXjXjXjXjXjXjXjXjXjX:.# ~ E E p . jXjXjXjXjXjXjXjXx % J ! ! ! J . jXjXjXjXjXjXjXjXjXjX",
"jXjXjXjXjXjXjXjXjXjXjXjXjXjXjXjX. f ~ g . >.jXjXjXjXjXjXjXjXjXa 8 ~ ~ ~ i : jXjXjXjXjXjXjXjXjXjX",
"jXjXjXjXjXjXjXjXjXjXjXjXjXjXjXjXz # = . =.jXjXjXjXjXjXjXjXjXjXjXa = f f . jXjXjXjXjXjXjXjXjXjXjX",
"jXjXjXjXjXjXjXjXjXjXjXjXjXjXjXjXjX>.&.jXjXjXjXjXjXjXjXjXjXjXjXjXjX:   X v jXjXjXjXjXjXjXjXjXjXjX"
};
