/* XPM */
static char *result[] = {
/* columns rows colors chars-per-pixel */
"48 48 11 1 ",
"  c black",
". c #422865",
"X c #C44831",
"o c #D57F43",
"O c #C06B53",
"+ c #E3B062",
"@ c #E9AB7E",
"# c #E9CD4D",
"$ c #595990",
"% c #FEFEFE",
"& c None",
/* pixels */
"&&&&&&&&&&&&&&&&&&&&&&&&&&&&&&&&&&&&&&&&&&&&&&&&",
"&&&&&&&&&&&&&&&&&&&&&&&&&&&&&&&&&&&&&&&&&&&&&&&&",
"&&&&&&&&&&&&&&&&&&&&&&&&&&&&&&&&&&&&&&&&&&&&&&&&",
"&&&&&&&&&&&&&&&&&&&&&&&&&&&&&&&&&&&&&&&&&&&&&&&&",
"&&&&&&&&&&&&&&&&&&&&&&&&&&&&&&&&&&&&&&&&&&&&&&&&",
"&&&&&&&&&&&&&&&&&&&&&&&&&&&&&&&&&&&&&&&&&&&&&&&&",
"&&&&&&&&&&&&&&&&&&&&&&&&&&&&&&&&&&&&&&&&&&&&&&&&",
"&&&&&&&&&&&&&&&&&&&&&&&&&&&&&&&&&&&&&&&&&&&&&&&&",
"&&&&&&&&&&&&&&&&&&&&&&&&&&&&&&&&&&&&&&&&&&&&&&&&",
"&&&&&&&&&&&&&&&&&&&          &&&&&&&&&&&&&&&&&&&",
"&&&&&&&&&&&&&&&&&& ..$$$$$$$$ &&&&&&&&&&&&&&&&&&",
"&&&&&&&&&&&&&&&&& ..$       $$ &&&&&&&&&&&&&&&&&",
"&&&&&&&&&&&&&&&&& .. %%%%%%% $ &&&&&&&&&&&&&&&&&",
"&&&&&&&&&&&&&&&&& .. %  %  % $ &&&&&&&&&&&&&&&&&",
"&&&&&&&&&&&&&&&&& .. %  %  % $ &&&&&&&&&&&&&&&&&",
"&&&&&&&&&&&&&&&&& ..$ %%%%% $$ &&&&&&&&&&&&&&&&&",
"&&&&&&&&&&&&&&&&& ..$ %.%.% $$ &&&&&&&&&&&&&&&&&",
"&&&&&&&&&&&&&   & ..$$$$$$$$$$ &   &&&&&&&&&&&&&",
"&&&&&&&&&&&& $$ & ..$$$$$$$$$$ & $$ &&&&&&&&&&&&",
"&&&&&&&&&&&& $     ...$$$$$.$..   $ &&&&&&&&&&&&",
"&&&&&&&&&&&& $$$$$$$$$$$$$$$$$$$$$$ &&&&&&&&&&&&",
"&&&&&&&&&&&&&                      &&&&&&&&&&&&&",
"&&&&&&&&&&&&&&&&       XXXXX    &&&&&&&&&&&&&&&&",
"&&&&&&&&&&&&&&&& O %% Xoooooo O &&&&&&&&&&&&&&&&",
"&&&&&&&&&&&&&&&& O    Xoo++oo @ &&&&&&&&&&&&&&&&",
"&&&&&&&&&&&&&&&& O % % Xoooo @@ &&&&&&&&&&&&&&&&",
"&&&&&&&&&&&&&&&  OO   O     @@@ &&&&&&&&&&&&&&&&",
"&&&&&&&&&&&&&& XX OOOO@@@@@@@@   &&&&&&&&&&&&&&&",
"&&&&&&&&&&&&& oooX            X X &&&&&&&&&&&&&&",
"&&&&&&&&&&&&& oooXXXXXXXXXXXXXo X &&&&&&&&&&&&&&",
"&&&&&&&&&&&&&    XXXooo    oooo   &&&&&&&&&&&&&&",
"&&&&&&&&&&&&& @@@      ###%     O &&&&&&&&&&&&&&",
"&&&&&&&&&&&&&&   ..$$$.....$$$$  &&&&&&&&&&&&&&&",
"&&&&&&&&&&&&&&&& ..$         $$ &&&&&&&&&&&&&&&&",
"&&&&&&&&&&&&&&&&  .. &&&&&& ... &&&&&&&&&&&&&&&&",
"&&&&&&&&&&&&&&&& OO &&&&&&& OO &&&&&&&&&&&&&&&&&",
"&&&&&&&&&&&&&&&&   &&&&&&&&   &&&&&&&&&&&&&&&&&&",
"&&&&&&&&&&&&&&&&&&&&&&&&&&&&&&&&&&&&&&&&&&&&&&&&",
"&&&&&&&&&&&&&&&&&&&&&&&&&&&&&&&&&&&&&&&&&&&&&&&&",
"&&&&&&&&&&&&&&&&&&&&&&&&&&&&&&&&&&&&&&&&&&&&&&&&",
"&&&&&&&&&&&&&&&&&&&&&&&&&&&&&&&&&&&&&&&&&&&&&&&&",
"&&&&&&&&&&&&&&&&&&&&&&&&&&&&&&&&&&&&&&&&&&&&&&&&",
"&&&&&&&&&&&&&&&&&&&&&&&&&&&&&&&&&&&&&&&&&&&&&&&&",
"&&&&&&&&&&&&&&&&&&&&&&&&&&&&&&&&&&&&&&&&&&&&&&&&",
"&&&&&&&&&&&&&&&&&&&&&&&&&&&&&&&&&&&&&&&&&&&&&&&&",
"&&&&&&&&&&&&&&&&&&&&&&&&&&&&&&&&&&&&&&&&&&&&&&&&",
"&&&&&&&&&&&&&&&&&&&&&&&&&&&&&&&&&&&&&&&&&&&&&&&&",
"&&&&&&&&&&&&&&&&&&&&&&&&&&&&&&&&&&&&&&&&&&&&&&&&"
};
