/* XPM */
static char *result[] = {
/* columns rows colors chars-per-pixel */
"48 48 200 2 ",
"   c #34323D",
".  c #3B353F",
"X  c #363541",
"o  c #3A3741",
"O  c #3C3943",
"+  c #3B3749",
"@  c #3D3B4B",
"#  c #3F3D50",
"$  c #443B44",
"%  c #4C3D44",
"&  c #413E4A",
"*  c #533E45",
"=  c #403F51",
"-  c #463E59",
";  c #4E4246",
":  c #43414D",
">  c #4C434B",
",  c #4E484D",
"<  c #514549",
"1  c #53484B",
"2  c #5E4B4D",
"3  c #584347",
"4  c #424152",
"5  c #484653",
"6  c #4C4A55",
"7  c #47465B",
"8  c #49455C",
"9  c #4D4C5B",
"0  c #534C55",
"q  c #5C4D52",
"w  c #54535D",
"e  c #66474B",
"r  c #7B4C4E",
"t  c #754C4D",
"y  c #644E53",
"u  c #655255",
"i  c #6A5657",
"p  c #725355",
"a  c #7C5B52",
"s  c #775856",
"d  c #7C655E",
"f  c #4C4262",
"g  c #4F4D64",
"h  c #52456A",
"j  c #534B6D",
"k  c #554B66",
"l  c #535363",
"z  c #54536C",
"x  c #59556D",
"c  c #5C5A6C",
"v  c #5B5A64",
"b  c #5A4B74",
"n  c #5D4D7B",
"m  c #554770",
"M  c #565674",
"N  c #5A5675",
"B  c #5A5A75",
"V  c #5C5B7B",
"C  c #604D6F",
"Z  c #785F61",
"A  c #605872",
"S  c #63636B",
"D  c #63637D",
"F  c #75747B",
"G  c #8E5453",
"H  c #815352",
"J  c #915554",
"K  c #985A58",
"L  c #AA5E5A",
"P  c #A55D59",
"I  c #826154",
"U  c #85605E",
"Y  c #8B6557",
"T  c #926B59",
"R  c #9B665A",
"E  c #95775C",
"W  c #AB645B",
"Q  c #B3645C",
"!  c #B8675F",
"~  c #A2745E",
"^  c #8C6667",
"/  c #956B66",
"(  c #9D6E68",
")  c #956965",
"_  c #8E7369",
"`  c #937468",
"'  c #87637D",
"]  c #977C70",
"[  c #9B7F72",
"{  c #8F7D79",
"}  c #A06F69",
"|  c #A4726C",
" . c #A77771",
".. c #B27A71",
"X. c #B97C63",
"o. c #C36C61",
"O. c #CC6B62",
"+. c #D06C63",
"@. c #CD7063",
"#. c #C67764",
"$. c #D27566",
"%. c #D37A67",
"&. c #978B5C",
"*. c #9A906F",
"=. c #9A8379",
"-. c #B58063",
";. c #B98164",
":. c #AB8B7B",
">. c #A98778",
",. c #B38779",
"<. c #AB9074",
"1. c #CD8D6A",
"2. c #C68A68",
"3. c #D58C6C",
"4. c #DA8D6D",
"5. c #D58469",
"6. c #D7906C",
"7. c #DB946E",
"8. c #C28377",
"9. c #DE9A70",
"0. c #D5BF7B",
"q. c #E1A275",
"w. c #E3A97A",
"e. c #E2A779",
"r. c #5F5E80",
"t. c #604E80",
"y. c #635183",
"u. c #675288",
"i. c #68548A",
"p. c #6A598F",
"a. c #615E83",
"s. c #6C5C91",
"d. c #735F83",
"f. c #636385",
"g. c #66648B",
"h. c #6A6789",
"j. c #7E6887",
"k. c #7E6A8C",
"l. c #7A7A81",
"z. c #7C7B8D",
"x. c #6D6293",
"c. c #6C6B93",
"v. c #6F6F99",
"b. c #706397",
"n. c #72679B",
"m. c #736C9C",
"M. c #71719B",
"N. c #7673A3",
"B. c #7875A6",
"V. c #7B7BAA",
"C. c #7B7BA6",
"Z. c #756EA0",
"A. c #806E9A",
"S. c #936A84",
"D. c #857EAA",
"F. c #85848B",
"G. c #808087",
"H. c #8C8B96",
"J. c #908F95",
"K. c #919197",
"L. c #9C969B",
"P. c #9B979A",
"I. c #B79380",
"U. c #BC9682",
"Y. c #9D9DA3",
"T. c #8887B2",
"R. c #968CB3",
"E. c #8E84AC",
"W. c #A39FA4",
"Q. c #A4A3AA",
"!. c #A9A9AD",
"~. c #A3A2A7",
"^. c #ADADB2",
"/. c #B9B9BD",
"(. c #B4B3B7",
"). c #C89F88",
"_. c #CBA28B",
"`. c #D9A890",
"'. c #E8BA84",
"]. c #E2B397",
"[. c #EDBB9C",
"{. c #E6B699",
"}. c #D8C797",
"|. c #BCB2CA",
" X c #C1B9CF",
".X c #C6BED3",
"XX c #C3C3C6",
"oX c #C7C7CA",
"OX c #CCCBCE",
"+X c #C8C6D8",
"@X c #D7D6D8",
"#X c #DDDDDF",
"$X c #D7D3D5",
"%X c #E0DFE1",
"&X c #E4E4E6",
"*X c #EBEAED",
"=X c #E7E6E9",
"-X c #EFEDF3",
";X c #FAF9FA",
":X c None",
/* pixels */
":X:X:X:X:X:X:X:X:X:X:X:X:X:X:X:X:X:X:X:X:X:X:X:X:X:X:X:X:X:X:X:X:X:X:X:X:X:X:X:X:X:X:X:X:X:X:X:X",
":X:X:X:X:X:X:X:X:X:X:X:X:X:X:X:X:X:X:X:X:X:X:X:X:X:X:X:X:X:X:X:X:X:X:X:X:X:X:X:X:X:X:X:X:X:X:X:X",
":X:X:X:X:X:X:X:X:X:X:X:X:X:X:X:X:Xg l v v S S S S S S S v S l :X:X:X:X:X:X:X:X:X:X:X:X:X:X:X:X:X",
":X:X:X:X:X:X:X:X:X:X:X:X:X:X:X:X9 @ @ @ : 4 4 4 4 4 4 : 4 4 : g :X:X:X:X:X:X:X:X:X:X:X:X:X:X:X:X",
":X:X:X:X:X:X:X:X:X:X:X:X:X:X:X9 C n n g.c.c.c.c.c.c.c.c.c.c.c.D w :X:X:X:X:X:X:X:X:X:X:X:X:X:X:X",
":X:X:X:X:X:X:X:X:X:X:X:X:X:Xc f t.s.x.f.V V V V V V V V V f.N.g.B z :X:X:X:X:X:X:X:X:X:X:X:X:X:X",
":X:X:X:X:X:X:X:X:X:X:X:X:X5 f u.u.s.c.x 9 4 : 4 4 4 4 5 9 l c.N.v.7 8 :X:X:X:X:X:X:X:X:X:X:X:X:X",
":X:X:X:X:X:X:X:X:X:X:X:X:X> f u.u.n z ~.oXXX~.F.:XF P./.oX^.c f.v.4 5 :X:X:X:X:X:X:X:X:X:X:X:X:X",
":X:X:X:X:X:X:X:X:X:X:X:X:X: f u.i.h 6 XX&X/.(.OX*X$X(.(.#X@Xw M v.4 5 :X:X:X:X:X:X:X:X:X:X:X:X:X",
":X:X:X:X:X:X:X:X:X:X:X:X:X: f u.i.j 6 XX/.6 : F #XJ.: 5 !.@Xw M v.4 4 :X:X:X:X:X:X:X:X:X:X:X:X:X",
":X:X:X:X:X:X:X:X:X:X:X:X:X: f u.i.h 6 XX(.:   F #XF.  O ~.@Xw z v.4 7 :X:X:X:X:X:X:X:X:X:X:X:X:X",
":X:X:X:X:X:X:X:X:X:X:X:X:X& f u.i.b c Y.~.l.F ~.=X!.F F Y.!.c f.m.4 4 :X:X:X:X:X:X:X:X:X:X:X:X:X",
":X:X:X:X:X:X:X:X:X:X:X:X:X: f u.i.x.v.l G.#X=X*X;X-X&X&XK.9 c.C.M.4 4 :X:X:X:X:X:X:X:X:X:X:X:X:X",
":X:X:X:X:X:X:X:X:X:X:X:X:X: 8 u.i.b.M.7 l.=X|.|.-X|.|.*XH.4 v.V.M.4 4 :X:X:X:X:X:X:X:X:X:X:X:X:X",
":X:X:X:X:X:X:X:X:X:X:X:X:X& f u.i.b.N.M z.+XR.E.+XR.T.+XH.z M.V.M.4 5 :X:X:X:X:X:X:X:X:X:X:X:X:X",
":X:X:X:X:X:X:X6 9 6   :X:X& f u.i.b.V.M.C.T.V.V.T.T.V.T.V.M.V.V.M.4 4 :X@ 6 9 = 5 :X:X:X:X:X:X:X",
":X:X:X:X:X:Xc D V z @ :X:X@ f u.i.n.V.V.V.V.V.V.V.V.V.V.V.V.V.V.m.4 4 :X@ 7 M V h.l :X:X:X:X:X:X",
":X:X:X:X:X9 7 M.M.r.@ @ :X@ - n y.s.Z.N.N.V.V.V.V.V.V.V.V.B.V.B.c.f 8 :X5 8 c.B.f.5 :X:X:X:X:X:X",
":X:X:X:X:Xw 7 M.M @ X 5 : o X # n p.p.p.n.V.V.V.V.V.V.V.n.b.B.n.s.y.x 5 O + 4 g.f.5 :X:X:X:X:X:X",
":X:X:X:X:Xw 7 M.g.M M M M M M B x.n.n.n.m.V.V.V.V.V.V.V.N.n.B.B.n.n.a.M M M V M.f.6 :X:X:X:X:X:X",
":X:X:X:X:X5 c c.M.v.v.v.v.v.v.v.v.v.v.v.v.v.v.v.v.v.v.v.v.v.v.v.v.v.v.v.v.v.v.v.h.7 :X:X:X:X:X:X",
":X:X:X:X:X:X:X7 4 4 = = 4 = = 4 # # = = = 4 4 4 4 = 4 4 # 4 4 # 4 4 = 4 # 4 4 4 g :X:X:X:X:X:X:X",
":X:X:X:X:X:X:X:X:X:X# 4         X X     X   e r r r r r r e +         @ @ @ :X:X:X:X:X:X:X:X:X:X",
":X:X:X:X:X:X:X:X:X:X:X@ . $ O   5 6 5 O   ; K @.@.O.@.@.@.Q 2 o   $ O o :X:X:X:X:X:X:X:X:X:X:X:X",
":X:X:X:X:X:X:X:X:X:X:X$ $ ) i 6 !.OX|.v 3 P #.4.6.4.4.4.4.3.;.s $ ) p O :X:X:X:X:X:X:X:X:X:X:X:X",
":X:X:X:X:X:X:X:X:X:X:X; ; ..U 5 J.^.W.l e O.4.9.9.q.w.w.q.9.9.I ; ,._ % :X:X:X:X:X:X:X:X:X:X:X:X",
":X:X:X:X:X:X:X:X:X:X:X< > ..H O 6 6 & > p ! 5.7.9.w.'.'.w.7.1.Y u _.=.> :X:X:X:X:X:X:X:X:X:X:X:X",
":X:X:X:X:X:X:X:X:X:X:X1 % ..^ 5 W.F.6 L.L.p W 5.7.q.e.q.9.2.a _ U.].] , :X:X:X:X:X:X:X:X:X:X:X:X",
":X:X:X:X:X:X:X:X:X:X:X0 * ..( Z W.G., K.L.i G R ~ ~ ~ E ~ E d <.[.[.=., :X:X:X:X:X:X:X:X:X:X:X:X",
":X:X:X:X:X:X:X:X:X:X< $ 3 | ,...i > O , s ..s , < < < , < i _.[.[.].` , :X:X:X:X:X:X:X:X:X:X:X:X",
":X:X:X:X:X:X:X:X:Xu K K J p ( 8.| / / / ,.`.).<.:.:.:.:.:.U.].[.`._ q $ 5 :X:X:X:X:X:X:X:X:X:X:X",
":X:X:X:X:X:X:X:Xp a #.%.o.t a ( } } } }  .I.I.,.U.,.I.I.I.U.U.,.>.p % . * y :X:X:X:X:X:X:X:X:X:X",
":X:X:X:X:X:X:X1 E 6.7.7.3.o.G % % % % % % < < < ; < ; < < < > < e L H $ K J * :X:X:X:X:X:X:X:X:X",
":X:X:X:X:X:X:X0 T 9.9.9.7.$.Q J G G J G G G G G G J G G J J J G K 2.J % L J 6 :X:X:X:X:X:X:X:X:X",
":X:X:X:X:X:X:X0 a -.-.-.X.O.+.+.+.$.%.%.$.$.! L L L L L ! %.%.$.%.6.T % G r , :X:X:X:X:X:X:X:X:X",
":X:X:X:X:X:X:X6 : ; ; ; e Q O.O.O.%.3.6.6.1.a % % % % * R 6.3.6.7.7.T . $ $ : :X:X:X:X:X:X:X:X:X",
":X:X:X:X:X:X:X6 i ] ] ] ` a r r r a H a I I E &.&.&.*.L.{ Y I I I I 2 O p u & :X:X:X:X:X:X:X:X:X",
":X:X:X:X:X:X:X> =._._._.:.q + @ # 4 4 4 : : *.0.0.0.}.@XH.& 4 # = = O O ) _ < :X:X:X:X:X:X:X:X:X",
":X:X:X:X:X:X:X:Xi 0 1 1 0 b t.y.x.v.v.v.g.y.j.j.A.S.k.m.m.m.v.c.v.v.z . $ 2 :X:X:X:X:X:X:X:X:X:X",
":X:X:X:X:X:X:X:X:X:X:X5 + n u.p.N.c.B N M f f f 8 f f f j B B c.C.V.V = O :X:X:X:X:X:X:X:X:X:X:X",
":X:X:X:X:X:X:X:X:X:X:X> + m y.p.m.V + 6 : & + & & @ & : @ X + N N.B.N 9 :X:X:X:X:X:X:X:X:X:X:X:X",
":X:X:X:X:X:X:X:X:X:X:X& X + h u.p.j + :X:X:X:X:X:X:X:X:X& + m u.s.s.j & :X:X:X:X:X:X:X:X:X:X:X:X",
":X:X:X:X:X:X:X:X:X:X:X& + y ^ S.b A :X:X:X:X:X:X:X:X:X:X: & ' S.' C A :X:X:X:X:X:X:X:X:X:X:X:X:X",
":X:X:X:X:X:X:X:X:X:X:X> % ( ..} y :X:X:X:X:X:X:X:X:X:X:X> ; } .. .q :X:X:X:X:X:X:X:X:X:X:X:X:X:X",
":X:X:X:X:X:X:X:X:X:X:X:XX 3 q u :X:X:X:X:X:X:X:X:X:X:X:X$ o 3 q u :X:X:X:X:X:X:X:X:X:X:X:X:X:X:X",
":X:X:X:X:X:X:X:X:X:X:X:Xo $ % :X:X:X:X:X:X:X:X:X:X:X:X:X:X  $ % :X:X:X:X:X:X:X:X:X:X:X:X:X:X:X:X",
":X:X:X:X:X:X:X:X:X:X:X:X:X:X:X:X:X:X:X:X:X:X:X:X:X:X:X:X:X:X:X:X:X:X:X:X:X:X:X:X:X:X:X:X:X:X:X:X",
":X:X:X:X:X:X:X:X:X:X:X:X:X:X:X:X:X:X:X:X:X:X:X:X:X:X:X:X:X:X:X:X:X:X:X:X:X:X:X:X:X:X:X:X:X:X:X:X"
};
