/* XPM */
static char *result[] = {
/* columns rows colors chars-per-pixel */
"48 48 11 1 ",
"  c #1E160F",
". c #300A0A",
"X c #4E1414",
"o c #453525",
"O c #B14040",
"+ c #D85757",
"@ c #BA936F",
"# c #E5BD98",
"$ c #EEABAB",
"% c white",
"& c None",
/* pixels */
"&&&&&&&&&&&&&&&&&&&&&&&&&&&&&&&&&&&&&&&&&&&&&&&&",
"&&&&&&&&&&&&&&&&&&&&&&&&&&&&&&&&&&&&&&&&&&&&&&&&",
"&&&&&&&&&&&&&&&&&&&&&&&&&&&&&&&&&&&&&&&&&&&&&&&&",
"&&&&&&&&&&&&&&&&&&&&&&&&&&&&&&&&&&&&&&&&&&&&&&&&",
"&&&&&&&&&&&&&&&&&&&&&&&&&&&&&&&&&&&&&&&&&&&&&&&&",
"&&&&&&&&&&&&&&&&&&&&&&&&&&&&&&&&&&&&&&&&&&&&&&&&",
"&&&&&&&&&&&&&&&&&&&&&&&&&&&&&&&&&&&&&&&&&&&&&&&&",
"&&&&&&&&&&&&&&&&&&&&&&&&&&&&&&&&&&&&&&&&&&&&&&&&",
"&&&&&&&&&&&&&&&&&&&&&&&&&&&&&&&&&&&&&&&&&&&&&&&&",
"&&&&&&&&&&&&&&&&&&%%%%%%%%%%%%&&&&&&&&&&&&&&&&&&",
"&&&&&&&&&&&&&&&&%%XXXXXXXXXXXX%%&&&&&&&&&&&&&&&&",
"&&&&&&&&&&&&&&%%XX++++++++++++XX%%&&&&&&&&&&&&&&",
"&&&&&&&&&&&&&%XX+++$$$$$$$$$$+++XX%&&&&&&&&&&&&&",
"&&&&&&&&&&&&%X+++$$++++++++++$$+++X%&&&&&&&&&&&&",
"&&&&&&&&&&&%X++$++++++++++++++++$++X%&&&&&&&&&&&",
"&&&&&&&&&&%X++++++++++++++++++++++++X%&&&&&&&&&&",
"&&&&&&&&&&%X++++++++++++++++++++++++X%&&&&&&&&&&",
"&&&&&&&&&%X++++++++++++++++++++++++++X%&&&&&&&&&",
"&&&&&&&&&%X++++++++++++++++++++++++++X%&&&&&&&&&",
"&&&&&&&&&%X++++++++++++++++++++++++++X%&&&&&&&&&",
"&&&&&&&&&%X++++++++++++++++++++++++++X%&&&&&&&&&",
"&&&&&&&&&%X++++++OOOOOOOOOOOOOO++++++X%&&&&&&&&&",
"&&&&&&&&&%X++++OOOOOOOOOOOOOOOOOO++++X%&&&&&&&&&",
"&&&&&&&&&%.+++OOOOO..........OOOOO+++.%&&&&&&&&&",
"&&&&&&&&&%..+OOOO..............OOOO+..%&&&&&&&&&",
"&&&&&&&&&&%...OO...@@@@@@@@@@...OO...%&&&&&&&&&&",
"&&&&&&&&&&&%......@@@@@@@@@@@@......%&&&&&&&&&&&",
"&&&&&&&&&&&&%%...@@##########@@...%%&&&&&&&&&&&&",
"&&&&&&&&&&&&&&%%o#% #####% ####o%%&&&&&&&&&&&&&&",
"&&&&&&&&&&&&&&&%o#  #####  ####o%&&&&&&&&&&&&&&&",
"&&&&&&&&&&&&&&&%o####@@########o%&&&&&&&&&&&&&&&",
"&&&&&&&&&&&&&&&% ############## %&&&&&&&&&&&&&&&",
"&&&&&&&&&&&&&&&%  @@@@@@@#####@ %&&&&&&&&&&&&&&&",
"&&&&&&&&&&&&&&&%         @###@  %&&&&&&&&&&&&&&&",
"&&&&&&&&&&&&&&&&%         @@@  %&&&&&&&&&&&&&&&&",
"&&&&&&&&&&&&&&&&%      %%      %&&&&&&&&&&&&&&&&",
"&&&&&&&&&&&&&&&&&%    %&&%    %&&&&&&&&&&&&&&&&&",
"&&&&&&&&&&&&&&&&&&%%%%&&&&%%%%&&&&&&&&&&&&&&&&&&",
"&&&&&&&&&&&&&&&&&&&&&&&&&&&&&&&&&&&&&&&&&&&&&&&&",
"&&&&&&&&&&&&&&&&&&&&&&&&&&&&&&&&&&&&&&&&&&&&&&&&",
"&&&&&&&&&&&&&&&&&&&&&&&&&&&&&&&&&&&&&&&&&&&&&&&&",
"&&&&&&&&&&&&&&&&&&&&&&&&&&&&&&&&&&&&&&&&&&&&&&&&",
"&&&&&&&&&&&&&&&&&&&&&&&&&&&&&&&&&&&&&&&&&&&&&&&&",
"&&&&&&&&&&&&&&&&&&&&&&&&&&&&&&&&&&&&&&&&&&&&&&&&",
"&&&&&&&&&&&&&&&&&&&&&&&&&&&&&&&&&&&&&&&&&&&&&&&&",
"&&&&&&&&&&&&&&&&&&&&&&&&&&&&&&&&&&&&&&&&&&&&&&&&",
"&&&&&&&&&&&&&&&&&&&&&&&&&&&&&&&&&&&&&&&&&&&&&&&&",
"&&&&&&&&&&&&&&&&&&&&&&&&&&&&&&&&&&&&&&&&&&&&&&&&"
};
