/* XPM */
static char *result[] = {
/* columns rows colors chars-per-pixel */
"48 48 231 2 ",
"   c #1C150C",
".  c #1E1707",
"X  c #1B1613",
"o  c #1D1915",
"O  c #161511",
"+  c #140F0B",
"@  c #290A06",
"#  c #360604",
"$  c #3A0505",
"%  c #3A0B01",
"&  c #3C0B0B",
"*  c #340A08",
"=  c #241409",
"-  c #23180C",
";  c #291909",
":  c #3B120B",
">  c #371809",
",  c #380F11",
"<  c #231C1B",
"1  c #261B14",
"2  c #3D1411",
"3  c #361312",
"4  c #352314",
"5  c #2C2116",
"6  c #3A352B",
"7  c #3D3937",
"8  c #342523",
"9  c #450B04",
"0  c #450A08",
"q  c #540F0E",
"w  c #4E1110",
"e  c #401010",
"r  c #511111",
"t  c #591819",
"y  c #561210",
"u  c #661C19",
"i  c #482918",
"p  c #56281D",
"a  c #4F341D",
"s  c #63221F",
"d  c #5A1C21",
"f  c #582624",
"g  c #483727",
"h  c #533C2C",
"j  c #573827",
"k  c #433B33",
"l  c #473A37",
"z  c #573936",
"x  c #612423",
"c  c #672A28",
"v  c #732524",
"b  c #732C2B",
"n  c #7B2D2C",
"m  c #752A25",
"M  c #78322D",
"N  c #783836",
"B  c #6B372E",
"V  c #54412B",
"C  c #5B4127",
"Z  c #45413C",
"A  c #5B4333",
"S  c #654B36",
"D  c #62442C",
"F  c #793D41",
"G  c #554D48",
"H  c #57524F",
"J  c #56534F",
"K  c #694C4C",
"L  c #695747",
"P  c #7A5643",
"I  c #775945",
"U  c #675851",
"Y  c #7C5958",
"T  c #79624B",
"R  c #66615B",
"E  c #796759",
"W  c #7B6E65",
"Q  c #686461",
"!  c #84322F",
"~  c #872F34",
"^  c #853535",
"/  c #8B3534",
"(  c #873738",
")  c #8A3A3A",
"_  c #953838",
"`  c #822C2D",
"'  c #A93B3D",
"]  c #B43D3E",
"[  c #B83D3D",
"{  c #8B413E",
"}  c #92433F",
"|  c #BE433E",
" . c #883D40",
".. c #9A3E42",
"X. c #AA3F43",
"o. c #B33F42",
"O. c #8B494A",
"+. c #954244",
"@. c #9A4244",
"#. c #9D464A",
"$. c #984D50",
"%. c #86595B",
"&. c #945455",
"*. c #815B46",
"=. c #A34345",
"-. c #AA4445",
";. c #A24649",
":. c #AB4549",
">. c #AC4A4D",
",. c #A44B4C",
"<. c #B44143",
"1. c #BC4443",
"2. c #B6494B",
"3. c #AB4D52",
"4. c #B14E53",
"5. c #AA5255",
"6. c #B9575A",
"7. c #8B6B58",
"8. c #89725C",
"9. c #92755D",
"0. c #8C6551",
"q. c #866563",
"w. c #936262",
"e. c #867567",
"r. c #937A70",
"t. c #A56B6A",
"y. c #A87270",
"u. c #C6494D",
"i. c #C54948",
"p. c #C8514B",
"a. c #D1554F",
"s. c #CD5453",
"d. c #CC5B54",
"f. c #CB575B",
"g. c #C5595C",
"h. c #CC5A5D",
"j. c #C35658",
"k. c #D55555",
"l. c #DB5654",
"z. c #D55956",
"x. c #D95856",
"c. c #D6565A",
"v. c #DC565A",
"b. c #D55959",
"n. c #DA595A",
"m. c #CB4D50",
"M. c #D4645E",
"N. c #CC5E62",
"B. c #C05B61",
"V. c #D35D62",
"C. c #DA5A60",
"Z. c #CC6468",
"A. c #D46061",
"S. c #D76868",
"D. c #D66D72",
"F. c #DD6C72",
"G. c #DD7674",
"H. c #DB7068",
"J. c #E2726E",
"K. c #E46F72",
"L. c #E67B7D",
"P. c #E97876",
"I. c #988772",
"U. c #A58166",
"Y. c #A6886C",
"T. c #B28F6F",
"R. c #B9936C",
"E. c #B89369",
"W. c #AD817E",
"Q. c #A98B75",
"!. c #B28777",
"~. c #B59273",
"^. c #B2957A",
"/. c #BA9878",
"(. c #AD937A",
"). c #C49E74",
"_. c #C39C7A",
"`. c #C5986E",
"'. c #CAA379",
"]. c #CBA077",
"[. c #D2A57C",
"{. c #EE7D81",
"}. c #988887",
"|. c #9C9797",
" X c #98938B",
".X c #B99C85",
"XX c #AF9693",
"oX c #BDA188",
"OX c #B9A794",
"+X c #A9A7A2",
"@X c #B9B8AC",
"#X c #BAB8B2",
"$X c #BFAAA9",
"%X c #C29B86",
"&X c #E88588",
"*X c #E98587",
"=X c #F78685",
"-X c #F6979B",
";X c #FC989A",
":X c #F7938D",
">X c #CBA584",
",X c #CBAB8C",
"<X c #C8A687",
"1X c #D3AC8B",
"2X c #D2AA87",
"3X c #DBB28B",
"4X c #D2B28B",
"5X c #D4B295",
"6X c #DDB594",
"7X c #DEBC95",
"8X c #DDBC9B",
"9X c #D8B59A",
"0X c #CCAE94",
"qX c #E3BB95",
"wX c #E3BD9B",
"eX c #E7BC96",
"rX c #E0B58B",
"tX c #C2BBB5",
"yX c #D1B2AB",
"uX c #E1BCA2",
"iX c #E8BFA1",
"pX c #DFC19F",
"aX c #E5C19B",
"sX c #E9C29D",
"dX c #E6C097",
"fX c #D0C7BB",
"gX c #E4C2A3",
"hX c #E4C1A6",
"jX c #ECCDB6",
"kX c #E9D5CC",
"lX c None",
/* pixels */
"lXlXlXlXlXlXlXlXlXlXlXlXlXlX}.y..XW.W.W.W.W.W.}.!.y.W.W.W.W.W.W.W.lXlXlXlXlXlXlXlXlXlXlXlXlXlXlX",
"lXlXlXlXlXlXlXlXlXlXlXlXlXlXN x u x x x x x x x c c f x x x x x d F lXlXlXlXlXlXlXlXlXlXlXlXlXlX",
"lXlXlXlXlXlXlXlXlXlXlXq.w.&.#...;.;.X.;.;.;.;.;.;.;.;.;.;.;.;.;.....&.w.q.lXlXlXlXlXlXlXlXlXlXlX",
"lXlXlXlXlXlXlXlXlXlX%.f b +.B.D.D.D.D.D.D.D.D.D.F.D.D.D.D.D.D.F.F.6...b c q.yXlXlXlXlXlXlXlXlXlX",
"lXlXlXlXlXlXlXY N F &.5.3.4.C.P.-X-X-X-X-X-X-X-X-X-X-X-X-X-X-X-X{.f.2.3.3.$.F F %.lXlXlXlXlXlXlX",
"lXlXlXlXlXlXy.( ^ ~ 6.Z.F.{.{.].&X&X&X&X&X&X&X&X&X&X&X&X&X&X*X*X[.L.{.K.Z.4.~ ~ O.y.yXlXlXlXlXlX",
"lXlXlXlXlX&.^ 4.B.g.N.F.=X;X:XG.V.A.A.V.A.A.A.V.A.A.A.A.A.A.V.A.G.:X;X=XF.V.v.f.>.( &.yXlXlXlXlX",
"lXlXlXlXt...>.V.K.P.S.V.P.P.G.M.b.b.b.b.b.b.z.z.b.z.z.b.z.z.b.b.S.P.L.K.V.V.{.K.f.>.+.y.yXlXlXlX",
"lXlXlXw.^ >.V.b.L.=XJ.s.n.M.d.M.z.z.z.z.z.x.z.x.z.z.z.x.z.x.z.z.z.d.n.b.d.J.[.P.c.V.4.n w.lXlXlX",
"lXlX%.O.>.f.V.b.M.H.M.s.n.n.a.x.z.z.x.z.z.z.z.z.z.z.z.z.z.z.z.z.l.l.n.b.d.A.H.M.v.C.f.3.O.q.lXlX",
"lXlXf ,.Z.f.c.z.d.d.d.z.l.l.l.l.l.b.b.b.z.x.z.z.c.b.c.c.b.b.l.n.v.l.l.n.d.d.d.a.k.c.b.N.$.f XXlX",
"lXy.x ,.N.b.b.b.M.d.z.z.v.l.l.v.l.x.n.x.b.x.x.x.v.z.x.x.v.k.b.l.l.v.l.v.b.M.z.M.z.n.b.b.@.s .XlX",
"%Xw.+.2.b.n.x.l.x.z.z.b.k.l.v.l.l.l.l.l.l.l.l.l.l.l.l.l.l.l.l.l.k.n.v.l.v.l.l.l.x.x.z.h.4.{ t.lX",
"N O.6.N.n.x.k.l.x.k.v.v.v.c.b.k.x.x.l.l.l.l.l.l.l.l.l.l.x.l.l.l.k.b.b.l.v.n.l.l.l.a.z.n.N.6.{ N ",
"n / j.k.n.n.n.x.l.v.v.n.b.b.h.z.b.x.z.z.b.z.n.z.x.z.b.z.b.x.z.z.c.b.n.b.v.l.x.l.l.l.v.v.c.j.! N ",
"m / d.n.v.l.z.k.k.n.v.c.b.b.b.b.b.z.z.z.b.b.b.z.z.z.b.b.b.b.z.z.M.b.b.n.n.l.x.x.x.l.v.l.n.h.! b ",
"m ( f.C.v.l.z.z.c.n.v.v.n.b.z.b.b.b.z.b.b.z.b.b.b.z.b.b.b.b.z.b.x.k.z.v.v.l.k.z.b.x.v.v.C.j.~ b ",
"b ( g.C.v.l.z.z.b.b.v.l.v.b.z.b.z.z.z.z.k.z.z.z.z.z.k.b.z.z.z.z.z.b.x.l.l.v.n.z.b.z.v.v.C.g.( M ",
"m ) f.v.v.l.M.z.z.z.n.l.k.k.c.k.c.c.v.c.c.c.v.c.v.c.c.c.c.c.v.c.k.k.k.l.l.n.n.z.z.k.v.v.C.N./ M ",
"m / c.v.l.l.a.z.z.z.v.k.u.u.u.u.u.u.u.u.u.u.u.u.u.u.u.u.u.u.u.u.u.u.u.u.k.n.b.z.d.l.v.v.c.f./ n ",
"m _ k.l.l.l.x.z.z.a.a.m.i.] o.o.o.o.<.X.] <.-.o.o.<.<.] o.-.o.o.<.o.o.i.s.s.s.z.z.z.x.l.n.f./ n ",
"m _ f.k.l.x.x.a.p.| i.i.o.' o.o.-.-.-.-.-.-.-.-.-.-.-.-.:.-.-.-.:.<.X.o.1.i.1.p.d.z.n.k.c.h._ M ",
"v ( j.b.b.l.a.p.| [ [ ] X.-.-._ ( ( ( ( ( ( ( / ( ( ( ( ( ( ( ( _ ;.:.X.<.<.[ 1.p.d.x.z.V.B.( b ",
"s ^ 6.N.n.k.p.i.[ o.o.X.=.,.} v q w r w w w w w w w w w w w q q m +.,.=.-.<.] 1.1.p.z.h.N.6.M c ",
"f p  .6.B.g.2.<.o.X.o...n n b t # & & # & % # * # # % * & # # $ t m m ! } | <.o.| i.j.j.4.) t f ",
"f 2 t O.4.X.X.X.>.X.X. .q 0 9 # : : : : & 2 2 * : : e e : : : : % 9 9 y / } X.X.| } :.3.{ t : z ",
"lXK 2 x b v ^ #.;...n t 0 # % B P S P I P P P P P P P S P P P P B % % 9 u ` X.,.@.n v n s & K OX",
"lXlXz , $ 0 d N  .~ y 9 & & i *./.R.~.^.T.T.~.~.~.~.~.~.~.~.~.~.*.i > % 9 t ~ ) N t 9 $ e z XXlX",
"lXlXlXK , * , d d r 0 # % j 7.y.R.`.R.E.R.).`.E.R.E.R.R.R.R.E.R.y.7.j % # e w d t , # , K yXlXlX",
"lXlXlXlXK U l , $ # * : a *.~._._._.'._.].).`._.).).'.).).).'.>X_.Q.S j : * * * 3 z K U  XlXlXlX",
"lXlXlXlXlXlX}.8 @ 3 % i 9.U./.2XqXeX3X1XrXqX6XwXqXwXqX6X6XqX6X1X>X%XY.9.i @ 3 3 8  XlXlXlXlXlXlX",
"lXlXlXlXlXlXlX}.r.q.h A (.<X2X3XqXgX%XU.%XjXjXuXwXwXwXwXiXaX<Xy.^.uX0X Xz z q.r.}.lXlXlXlXlXlXlX",
"lXlXlXlXlXlXlXlXlXlXE I <X7XqXqXsX6XY.j r.kXjXuXuXwXqXwXwXuX^.j 8.jXfXOXU W kXlXlXlXlXlXlXlXlXlX",
"lXlXlXlXlXlXlXlXlXlXW I ,XpXdXqXsXuXY.i j 9.OXuXuXiXqXeXaX8X(.i g 8.OXOXJ W lXlXlXlXlXlXlXlXlXlX",
"lXlXlXlXlXlXlXlXlXlXW L ,XqXqXqXqX8XT.D j S (.8XqXqX3XrX7XpX/.D a C I.OXL I.lXlXlXlXlXlXlXlXlXlX",
"lXlXlXlXlXlXlXlXlXlXW I 0XeXdXdXaXaX5X^.^.(.5XhXqXrX].`.].4X7X(./.^.0XOXL e.lXlXlXlXlXlXlXlXlXlX",
"lXlXlXlXlXlXlXlXlXlXE L ,X8XwXqXeXqXaX7XpXpXpXaXqX3X[.].].3XdXpXpXgXgXOXS E lXlXlXlXlXlXlXlXlXlX",
"lXlXlXlXlXlXlXlXlXlXU A oX8XeXqXeXqXaXaXdXpXdXaXqXqXrXqXeXeXdXdX7XaX8XoXA E lXlXlXlXlXlXlXlXlXlX",
"lXlXlXlXlXlXlXlXlXlXU Z (.9XiXeXqXqXdXdXdXpX4X'.1X2X>X<X,X2X>X,X0X<XY.S 4 L lXlXlXlXlXlXlXlXlXlX",
"lXlXlXlXlXlXlXlXlXlXU i r..X9XeX7XdXdXdXpX'.).Y.y.Y.Y.Y.Y.Y.Y.Y.Y.9.A 4 . R lXlXlXlXlXlXlXlXlXlX",
"lXlXlXlXlXlXlXlXlXlXJ 5 V 8./.9XwXsXqXaX,X/.T C j z z h V V V V V V 4 -   Q lXlXlXlXlXlXlXlXlXlX",
"lXlXlXlXlXlXlXlXlXlXI.k 5 A 9./.6X4X1X9X/.7.a ; > = = @ ; = = = - - . 5 Z lXlXlXlXlXlXlXlXlXlXlX",
"lXlXlXlXlXlXlXlXlXlXlX X6 > g 8.oXoXoX(.T i ; . = < X < 1       -   o Z lXlXlXlXlXlXlXlXlXlXlXlX",
"lXlXlXlXlXlXlXlXlXlXlXfXk = ; z T T T T V 4 S W W G < X O X < o   o O 7 lXlXlXlXlXlXlXlXlXlXlXlX",
"lXlXlXlXlXlXlXlXlXlXlXlXZ - 1 - 4 5 ; 5 1 l +XlXlX|.7 < X o X + o O < J lXlXlXlXlXlXlXlXlXlXlXlX",
"lXlXlXlXlXlXlXlXlXlXlXlX+XU 5   . . . 5 H |.lXlXlXlX|.J < X 1 o o o R lXlXlXlXlXlXlXlXlXlXlXlXlX",
"lXlXlXlXlXlXlXlXlXlXlXlXlX+XG 6 7 6 6 Z |.lXlXlXlXlXlX Xl 6 k l 7 J +XlXlXlXlXlXlXlXlXlXlXlXlXlX",
"lXlXlXlXlXlXlXlXlXlXlXlXlXlX#X@X#X#XtX#XlXlXlXlXlXlXlXlX#XtXtX#X#XlXlXlXlXlXlXlXlXlXlXlXlXlXlXlX"
};
