/* XPM */
static char *result[] = {
/* columns rows colors chars-per-pixel */
"48 48 157 2 ",
"   c #121215",
".  c #17171A",
"X  c #19191C",
"o  c #1F1F23",
"O  c #212024",
"+  c #2A2726",
"@  c #2C2927",
"#  c #25252A",
"$  c #28272B",
"%  c #2A292D",
"&  c #302C27",
"*  c #332D2A",
"=  c #343127",
"-  c #3B3229",
";  c #2C2C32",
":  c #302F33",
">  c #333235",
",  c #3A3635",
"<  c #3E3937",
"1  c #343439",
"2  c #39373D",
"3  c #3B3A3D",
"4  c #43342C",
"5  c #443B2B",
"6  c #4C3A2E",
"7  c #503E2E",
"8  c #423C3A",
"9  c #533D30",
"0  c #4C462B",
"q  c #4F492C",
"w  c #57502D",
"e  c #46413D",
"r  c #4A433F",
"t  c #5C4531",
"y  c #5F4832",
"u  c #60582F",
"i  c #6A4C35",
"p  c #625A32",
"a  c #745038",
"s  c #696031",
"d  c #6A623A",
"f  c #716731",
"g  c #756B34",
"h  c #796F3B",
"j  c #7A6F33",
"k  c #7D7238",
"l  c #7E7233",
"z  c #363641",
"x  c #3E3D41",
"c  c #3E3D4B",
"v  c #403F43",
"b  c #434246",
"n  c #4F4842",
"m  c #454349",
"M  c #48474B",
"N  c #4C4A4D",
"B  c #534B45",
"V  c #5A5448",
"C  c #54504B",
"Z  c #454351",
"A  c #484650",
"S  c #4E4C51",
"D  c #504F53",
"F  c #555357",
"G  c #58565B",
"H  c #5C5A5D",
"J  c #565259",
"K  c #625C45",
"L  c #62584E",
"P  c #6A5E53",
"I  c #6E6256",
"U  c #726559",
"Y  c #7C6D5E",
"T  c #5E5C60",
"R  c #635F66",
"E  c #646266",
"W  c #666469",
"Q  c #69676C",
"!  c #6C696E",
"~  c #7E6F60",
"^  c #6E6A71",
"/  c #716C74",
"(  c #797577",
")  c #835C3A",
"_  c #866039",
"`  c #9B6D3E",
"'  c #817634",
"]  c #897C35",
"[  c #827638",
"{  c #867935",
"}  c #A0703F",
"|  c #9D6841",
" . c #A96E44",
".. c #A66C43",
"X. c #AC7542",
"o. c #AF7A42",
"O. c #A57440",
"+. c #B47546",
"@. c #B87747",
"#. c #BC7A48",
"$. c #B07B42",
"%. c #897867",
"&. c #857565",
"*. c #BC8245",
"=. c #96836F",
"-. c #84837E",
";. c #978470",
":. c #9D8A74",
">. c #A38E77",
",. c #A7927A",
"<. c #AC957D",
"1. c #C68947",
"2. c #CA8B48",
"3. c #C58349",
"4. c #D18C4A",
"5. c #D4914A",
"6. c #DB944C",
"7. c #DF984C",
"8. c #E49A4D",
"9. c #EA9E4E",
"0. c #EDA14F",
"q. c #7D7780",
"w. c #7E7881",
"e. c #837C85",
"r. c #867F89",
"t. c #888782",
"y. c #8C8A85",
"u. c #87808A",
"i. c #89828C",
"p. c #B39C81",
"a. c #B9A085",
"s. c #BEA588",
"d. c #A6A49C",
"f. c #A7A2A9",
"g. c #ACA7AE",
"h. c #ACAAA1",
"j. c #B5B3AA",
"k. c #B2AEB4",
"l. c #B6B2B8",
"z. c #B8B4BA",
"x. c #C1A88B",
"c. c #D4B796",
"v. c #D7BA98",
"b. c #D9BB99",
"n. c #DFC19D",
"m. c #E0C29F",
"M. c #C5C3B8",
"N. c #E7C8A3",
"B. c #EACAA5",
"V. c #EFCFA8",
"C. c #E3C4A0",
"Z. c #F0CFA8",
"A. c #F1D0A9",
"S. c #CECCC0",
"D. c #D7D4C8",
"F. c #E0DDD0",
"G. c None",
/* pixels */
"G.G.G.G.G.G.G.G.G.G.G.G.G.G.G.G.G.G.G.G.G.G.G.G.G.G.G.G.G.G.G.G.G.G.G.G.G.G.G.G.G.G.G.G.G.G.G.G.",
"G.G.G.G.G.G.G.G.G.G.G.G.G.G.G.G.G.G.G.G.G.G.G.G.G.G.G.G.G.G.G.G.G.G.G.G.G.G.G.G.G.G.G.G.G.G.G.G.",
"G.G.G.G.G.G.G.G.G.G.G.G.G.G.G.G.G.G.G.G.G.G.G.G.G.G.G.G.G.G.G.G.G.G.G.G.G.G.G.G.G.G.G.G.G.G.G.G.",
"G.G.G.G.G.G.G.G.G.G.G.G.G.G.G.G.G.G.G.G.G.G.G.G.G.G.G.G.G.G.G.G.G.G.G.G.G.G.G.G.G.G.G.G.G.G.G.G.",
"G.G.G.G.G.G.G.O O G.G.G.G.G.G.G.G.G.G.G.G.G.G.G.G.G.G.G.G.G.G.G.G.G.G.G.G.G.G.G.G.G.G.G.G.G.G.G.",
"G.G.G.G.G.G.G.O O O G.G.G.G.G.G.G.G.G.G.O O O O O O G.G.G.G.G.G.G.G.G.G.G.G.G.G.G.G.G.G.G.G.G.G.",
"G.G.G.G.G.G.G.O % # G.G.G.G.G.G.G.G.O O $ 1 m A M % o O G.G.G.G.G.G.G.G.G.G.G.G.G.G.G.G.G.G.G.G.",
"G.G.G.G.G.G.G.O 3 M O G.G.G.G.G.G.O > W u.r.u.u.r.w.S # O G.G.G.G.G.G.G.G.G.G.G.G.G.G.G.G.G.G.G.",
"G.G.G.G.G.G.G.G.% j.# O G.G.G.O O G l.z.l.i.u.u.u.u.u.e.v # O G.G.G.G.G.G.G.O O G.G.G.G.G.G.G.G.",
"G.G.G.G.G.G.G.G.O y.-.O O G.O O J k.z.z.g.u.u.u.u.u.u.u.r.R O O G.G.G.G.o # : O G.G.G.G.G.G.G.G.",
"G.G.G.G.G.G.G.G.O # M.d.; O O G u.f.l.f.u.u.u.u.u.u.u.u.u.u.^ # O O O % G h.C O G.G.G.G.G.G.G.G.",
"G.G.G.G.G.G.G.G.G.O 3 S.d.O D r.u.u.i.u.u.u.u.u.u.u.u.u.u.u.u.A O > y.D.D.F O G.G.G.G.G.G.G.G.G.",
"G.G.G.G.G.G.G.G.G.G.O O o # e.u.u.u.u.u.u.u.u.u.u.u.u.r.u.u.u./ O ( D.-.$ O G.G.G.G.G.G.G.G.G.G.",
"G.G.G.G.G.G.G.G.G.G.G.G.o 2 u.u.u.u.u.u.u.u.u.u.u.u.u.r.u.u.u.! : % > # o G.G.G.G.G.G.G.G.G.G.G.",
"G.G.G.G.G.G.G.G.G.G.G.G.O J r.u.u.u.u.u.r.e.e.e.e.e.r.r.u.u.w.E x O O G.G.G.G.G.G.G.G.G.G.G.G.G.",
"G.G.G.G.G.G.G.G.G.G.G.G.o / u.u.r.( / ! W E E E E E W W ! ! E E S O G.G.G.G.G.G.G.G.G.G.G.G.G.G.",
"G.G.G.G.G.G.G.G.G.G.G.o # ^ ! W E E E R H H H F D S N N M M m m 3 o G.G.G.G.G.G.G.G.G.G.G.G.G.G.",
"G.G.G.G.G.G.G.G.G.G.O O O $ $ % ; ; % $ # # o O o o o o o o O o o o O o G.G.G.G.G.G.G.G.G.G.G.G.",
"G.G.G.G.G.G.G.G.G.G.o O 2 m b 3 > > 1 x b M N J H H T T T H H H H G $ O G.G.G.G.G.G.G.G.G.G.G.G.",
"G.G.G.G.G.G.G.G.G.G.o o D D N m m v 2 > % % % % % ; > > 2 3 x M S T # O G.G.G.G.G.G.G.G.G.G.G.G.",
"G.G.G.G.G.G.G.G.G.G.G.O O + & + O % , r P U U I L V r r < < , # o O O G.G.G.G.G.G.G.G.G.G.G.G.G.",
"G.G.G.G.G.G.G.G.G.G.G.O t 5.6.i , b.N.A.A.A.A.A.A.A.A.A.V.V.B.r O O o G.G.G.G.G.G.G.G.G.G.G.G.G.",
"G.G.G.G.G.G.G.G.G.G.O # 2.0.8.- I A.A.Z.m.A.A.A.A.A.A.A.A.A.A.~ O O G.G.G.G.G.G.G.G.G.G.G.G.G.G.",
"G.G.G.G.G.G.G.G.G.o + ` 0.0.2.# <.A.A.a.8 m.A.A.A.A.B.%.b.A.A.>.O * O G.G.G.G.G.G.G.G.G.G.G.G.G.",
"G.G.G.G.G.G.G.G.O O } 0.0.0._ O m.A.A.,.O ;.A.A.A.A.b.% p.A.A.x.o $.* o G.G.G.G.G.G.G.G.G.G.G.G.",
"G.G.G.G.G.G.G.G.O O $.0.0.0.6 < A.A.A.N.:.m.A.A.A.A.b.@ x.A.A.c.+ } ) O O G.G.G.G.G.G.G.G.G.G.G.",
"G.G.G.G.G.G.G.G.G.O 0 0.0.0.6 * <.m.Z.A.A.A.A.A.A.A.B.%.B.A.n.:.O X.#.O O G.G.G.G.G.G.G.G.G.G.G.",
"G.G.G.G.G.G.G.G.G.O + X.0.0.1.5 O * r L Y %.=.:.,.<.<.,.&.B * O O 2.} O o G.G.G.G.G.G.G.G.G.G.G.",
"G.G.G.G.G.G.G.G.G.O O ) 0.0.0.0.3._ t 5 - - * & @ + O # = 6 _ *.3.9.X.O O G.G.G.G.G.G.G.G.G.G.G.",
"G.G.G.G.G.G.G.G.G.G.o y 6.0.0.0.0.0.0.0.9.8.8.6.6.5.5.5.7.9.0.0.0.6.+.6 O G.G.G.G.G.G.G.G.G.G.G.",
"G.G.G.G.G.G.G.G.G.O o o y 0.0.0.0.0.0.0.0.0.0.0.0.0.0.0.0.0.0.0.6.@. .@ o G.G.G.G.G.G.G.G.G.G.G.",
"G.G.G.G.G.G.G.G.G.O O o + 4 X.8.0.0.0.0.0.0.0.0.0.0.0.0.0.0.9.4.@.6 4 O O G.G.G.G.G.G.G.G.G.G.G.",
"G.G.G.G.G.G.G.G.O O O 5 + + + 4 @.3.4.6.8.9.9.9.9.0.9.8.6.3.#.#.7 O O o G.G.G.G.G.G.G.G.G.G.G.G.",
"G.G.G.G.G.G.G.O O o O j { w o o a @.6 | #.+...#.#.#.+.i  . .6 7 + o G.G.G.G.G.G.G.G.G.G.G.G.G.G.",
"G.G.G.G.G.G.G.O G.G.O j ] ] l 0 O t O # ) + O 6 4 @ 4 o O O # @ O O O G.G.G.G.G.G.G.G.G.G.G.G.G.",
"G.G.G.G.G.G.O O G.G.O = g k ] ] - o + @ O O 0 O O O o * w 0 f h % O O O O G.G.G.G.G.G.G.G.G.G.G.",
"G.G.G.G.G.G.G.G.G.G.G.O # 1 c N C b d k p s ] g q [ { ] ] [ K A # O G.G.O O G.G.G.G.G.G.G.G.G.G.",
"G.G.G.G.G.G.G.G.G.G.G.G.o o # # : z c A N N C V K K V V N A Z z O G.G.G.O o G.G.G.G.G.G.G.G.G.G.",
"G.G.G.G.G.G.G.G.G.G.G.G.G.o o o O O O O $ ; ; ; ; ; ; ; ; ; # O O G.G.G.G.G.G.G.G.G.G.G.G.G.G.G.",
"G.G.G.G.G.G.G.G.G.G.G.G.G.O o G.G.G.G.o o o O O O O O O O O O G.G.G.G.G.G.G.G.G.G.G.G.G.G.G.G.G.",
"G.G.G.G.G.G.G.G.G.G.G.G.G.G.O G.G.G.G.G.G.G.G.G.G.G.G.G.G.o O G.G.G.G.G.G.G.G.G.G.G.G.G.G.G.G.G.",
"G.G.G.G.G.G.G.G.G.G.G.G.G.X X G.G.G.G.G.G.G.G.G.G.G.G.G.G.G.X X G.G.G.G.G.G.G.G.G.G.G.G.G.G.G.G.",
"G.G.G.G.G.G.G.G.G.G.G.G.G.X   G.G.G.G.G.G.G.G.G.G.G.G.G.G.G.. . G.G.G.G.G.G.G.G.G.G.G.G.G.G.G.G.",
"G.G.G.G.G.G.G.G.G.G.G.G.G.  G.G.G.G.G.G.G.G.G.G.G.G.G.G.G.G.X   G.G.G.G.G.G.G.G.G.G.G.G.G.G.G.G.",
"G.G.G.G.G.G.G.G.G.G.G.G.G.G.G.G.G.G.G.G.G.G.G.G.G.G.G.G.G.G.G.G.G.G.G.G.G.G.G.G.G.G.G.G.G.G.G.G.",
"G.G.G.G.G.G.G.G.G.G.G.G.G.G.G.G.G.G.G.G.G.G.G.G.G.G.G.G.G.G.G.G.G.G.G.G.G.G.G.G.G.G.G.G.G.G.G.G.",
"G.G.G.G.G.G.G.G.G.G.G.G.G.G.G.G.G.G.G.G.G.G.G.G.G.G.G.G.G.G.G.G.G.G.G.G.G.G.G.G.G.G.G.G.G.G.G.G.",
"G.G.G.G.G.G.G.G.G.G.G.G.G.G.G.G.G.G.G.G.G.G.G.G.G.G.G.G.G.G.G.G.G.G.G.G.G.G.G.G.G.G.G.G.G.G.G.G."
};
