/* XPM */
static char *result[] = {
/* columns rows colors chars-per-pixel */
"48 86 166 2 ",
"   c #010101",
".  c #060709",
"X  c #07080B",
"o  c #0B0C0D",
"O  c #0C0E12",
"+  c #0E1115",
"@  c #0E1219",
"#  c #131314",
"$  c #191915",
"%  c #12151C",
"&  c #16181D",
"*  c #191919",
"=  c #1D201E",
"-  c #202016",
";  c #24241B",
":  c #2A2A1B",
">  c #31311D",
",  c #3E3E1E",
"<  c #121721",
"1  c #151A24",
"2  c #1A1E25",
"3  c #171D29",
"4  c #191E29",
"5  c #1C2026",
"6  c #1C222C",
"7  c #1E2532",
"8  c #1D2739",
"9  c #1F293C",
"0  c #21242B",
"q  c #27282F",
"w  c #2B2A2B",
"e  c #3F3F24",
"r  c #202733",
"t  c #212936",
"y  c #2A2D35",
"u  c #232B3B",
"i  c #292F3A",
"p  c #27303F",
"a  c #2B303C",
"s  c #33353B",
"d  c #37383E",
"f  c #323236",
"g  c #424224",
"h  c #575727",
"j  c #51512A",
"k  c #6B6B2A",
"l  c #787828",
"z  c #76762A",
"x  c #232E41",
"c  c #263144",
"v  c #293344",
"b  c #273349",
"n  c #2B364A",
"m  c #2E394C",
"M  c #343741",
"N  c #353944",
"B  c #393B45",
"V  c #313B4D",
"C  c #3C3F49",
"Z  c #2E3B50",
"A  c #323E52",
"S  c #3D414C",
"D  c #364155",
"F  c #3A4455",
"G  c #374359",
"H  c #3A465C",
"J  c #3C485E",
"K  c #3E4A62",
"L  c #40424B",
"P  c #4D4C4F",
"I  c #514E4E",
"U  c #444751",
"Y  c #474A55",
"T  c #434B5C",
"R  c #4B4E5A",
"E  c #4A4C52",
"W  c #4C515F",
"Q  c #565352",
"!  c #515158",
"~  c #414E65",
"^  c #424F68",
"/  c #4A5263",
"(  c #44526C",
")  c #515664",
"_  c #525867",
"`  c #545968",
"'  c #595E6C",
"]  c #465671",
"[  c #485772",
"{  c #4A5975",
"}  c #4D5E7B",
"|  c #5D616E",
" . c #4F607E",
".. c #5D6271",
"X. c #51617F",
"o. c #676468",
"O. c #636674",
"+. c #666874",
"@. c #666B7A",
"#. c #686E7F",
"$. c #696B75",
"%. c #706D72",
"&. c #6C717F",
"*. c #73727B",
"=. c #817D7F",
"-. c #95952C",
";. c #999929",
":. c #A7A727",
">. c #B6B626",
",. c #BEBE25",
"<. c #C6C61E",
"1. c #D9D91D",
"2. c #EEEE0C",
"3. c #FFFF01",
"4. c #F3F30E",
"5. c #E5E515",
"6. c #E8E817",
"7. c #E1E11A",
"8. c #F2F210",
"9. c #C1C125",
"0. c #D0D020",
"q. c #536483",
"w. c #566887",
"e. c #566889",
"r. c #596C8D",
"t. c #5B6E91",
"y. c #5D7195",
"u. c #5F7499",
"i. c #6B7082",
"p. c #747683",
"a. c #7A7985",
"s. c #7A7B88",
"d. c #607497",
"f. c #62769B",
"g. c #64799E",
"h. c #787E91",
"j. c #667BA2",
"k. c #697FA6",
"l. c #807E82",
"z. c #7D8090",
"x. c #6A80A7",
"c. c #6E84AC",
"v. c #7087AF",
"b. c #868285",
"n. c #898587",
"m. c #838289",
"M. c #8B8789",
"N. c #8C898C",
"B. c #908C8E",
"V. c #878691",
"C. c #898792",
"Z. c #8C8A91",
"A. c #8A8D9B",
"S. c #858999",
"D. c #8E909E",
"F. c #969193",
"G. c #9B9595",
"H. c #9B989C",
"J. c #898FA3",
"K. c #8E92A5",
"L. c #9192A1",
"P. c #999CAA",
"I. c #9A9AA3",
"U. c #979CB1",
"Y. c #999EB2",
"T. c None",
/* pixels */
"T.T.T.T.T.T.T.T.T.T.T.T.T.O 6 r 3 X T.T.T.T.T.T.T.T.T.T.T.T.T.T.T.T.T.T.T.T.T.T.T.T.T.T.T.T.T.T.",
"T.T.T.T.T.T.T.T.T.T.T.. v H H H ~ A v % T.T.T.T.T.T.T.T.T.T.T.T.T.T.T.T.T.T.T.T.T.T.T.T.T.T.T.T.",
"T.T.T.T.T.T.T.T.T.T.T.v ~ n t D H H K A v o T.T.T.T.T.T.T.T.T.T.T.T.T.T.T.T.T.T.T.T.T.T.T.T.T.T.",
"T.T.T.T.T.T.T.T.T.T.1 ( m . T.5 K A K K J V # T.T.T.T.T.T.T.T.T.T.T.T.T.T.T.T.T.T.T.T.T.T.T.T.T.",
"T.T.T.T.T.T.T.T.T.T.6 q.e.( . 1 H H K ~ K K A % T.T.T.T.T.T.T.T.T.T.T.T.T.T.T.T.T.T.T.T.T.T.T.T.",
"T.T.T.T.T.T.T.T.T.T.@ ^ e.q.O 6 A K A ~ ~ ~ K A % T.T.T.T.T.T.T.T.T.T.T.T.T.T.T.T.T.T.T.T.T.T.T.",
"T.T.T.T.T.T.T.T.T.T.T.1 v 6 O v A A A ~ K ~ K H H 1 T.T.T.T.T.T.T.T.T.T.T.T.T.T.T.T.T.T.T.T.T.T.",
"T.T.T.T.T.T.T.T.T.T.T.T.T.T.% V A A K A K K ~ ~ J A % T.T.T.T.T.T.T.T.T.T.T.T.T.T.T.T.T.T.T.T.T.",
"T.T.T.T.T.T.T.T.T.T.T.T.T.T.5 m V A G H ~ ~ ^ ~ J G A # T.T.T.T.T.T.T.T.T.T.T.T.T.T.T.T.T.T.T.T.",
"T.T.T.T.T.T.T.T.T.T.T.T.T.T.t n A A A H H K ~ ^ K G G m o T.T.T.T.T.T.T.T.T.T.T.T.T.T.T.T.T.T.T.",
"T.T.T.T.T.T.T.T.T.T.T.T.T.T.c n m A A G H ~ K ~ K G G D i T.T.T.T.T.T.T.T.T.T.T.T.T.T.T.T.T.T.T.",
"T.T.T.T.T.T.T.T.T.T.T.T.T.3 a n m A G J H K K ^ ^ J G A A 4 T.T.T.T.T.T.T.T.T.T.T.T.T.T.T.T.T.T.",
"T.T.T.T.T.T.T.T.T.T.T.T.T.7 c v m A A G J K ~ ~ ^ K G A V v 1 T.T.T.T.T.T.T.T.T.T.T.T.T.T.T.T.T.",
"T.T.T.T.T.T.T.T.T.T.T.T.T.r v v m A G J K K ^ ( [ ( ~ G A m t % T.T.T.T.T.T.T.T.T.T.T.T.T.T.T.T.",
"T.T.T.T.T.T.T.T.T.T.T.T.T.u c v m A G K ~ ^ ( ] { { [ ~ A m v 6 T.T.T.T.T.T.T.T.T.T.T.T.T.T.T.T.",
"T.T.T.T.T.T.T.T.T.T.T.T.3 u a n Z Z G J K ^ [ { q.{ [ ~ G m v u 3 T.T.T.T.T.T.T.T.T.T.T.T.T.T.T.",
"T.T.T.T.T.T.T.T.T.T.T.T.6 u c n m A H K K ^ { q.q. .} { ^ A v c r T.T.T.T.T.T.T.T.T.T.T.T.T.T.T.",
"T.T.T.T.T.T.T.T.T.T.T.T.3 6 7 u m A G K ^ [ { [ K H F A A v r 4 5 3 T.T.T.T.T.T.T.T.T.T.T.T.T.T.",
"T.T.T.T.T.T.T.T.T.T.T.3 4 4 3 1 < 1 1 4 7 4 3 2 f C Y ! Y 1 3 3 3 3 3 T.T.T.T.T.T.T.T.T.T.T.T.T.",
"T.T.T.T.T.T.T.T.T.T.T.3 4 4 3 1 1 3 3 4 4 4 6 % 0 y i y L f % 1 3 3 3 3 T.T.T.T.T.T.T.T.T.T.T.T.",
"T.T.T.T.T.T.T.T.T.T.3 4 3 3 1 < 1 3 3 3 4 7 4 7 7 3 @ r N L C 1 3 1 3 5 3 T.T.T.T.T.T.T.T.T.T.T.",
"T.T.T.T.T.T.T.T.T.T.4 6 3 1 1 1 < 3 3 7 4 4 7 3 4 7 % i B s q % 3 1 3 3 3 3 T.T.T.T.T.T.T.T.T.T.",
"T.T.T.T.T.T.T.T.T.3 4 3 3 1 1 < < 3 3 3 3 7 3 7 4 4 3 1 @ U B 3 3 3 1 1 & 3 3 3 T.T.T.T.T.T.T.T.",
"T.T.T.T.6 7 6 r 8 t r 8 4 1 < @ < < 3 3 3 3 3 3 0 s C L R R a % 1 3 7 u c x i i t 7 6 3 T.T.T.T.",
"T.7 7 7 7 7 r 8 t u c v m A A m b b c x u i u 7 0 s N B M s v K ( K K D Z n n c i u u i t t 7 1 ",
"r t t r t 8 t t i u v n A G K K K ] ] { } X.w.w.} { { } X.w.q.} { { ] ( K K D A V n n v v v u % ",
"6 r t t r t t i i v m V G K ~ ( ( ] [ } X.w.r.t.t.t.t.d.t.r.w.w.q.q.} } { ( K K H A V V v 6 # T.",
"T.T.3 6 7 i v v n m A D G K T ~ ( ] [ [ { } q.w.r.t.d.g.g.f.f.d.t.r.w.q.} { K K A r 1 @ T.T.T.T.",
"T.T.T.T.T.1 1 3 6 r v V V V 5 J ~ ~ T t ( ] {  .w.e.r.r.w.} [ ~ H V v r 6 1 # o T.T.T.T.T.T.T.T.",
"T.T.T.T.T.T.T.T.T.      . .   o O + o   % % * * * % % # # # O # : g - # # O o   T.T.T.T.T.T.T.T.",
"T.T.T.T.T.T.T.T.T.        . o o o o o o # $ h <.>.e * * % $ * ; :.2.l $ # o o . T.T.T.T.T.T.T.T.",
"T.T.T.T.T.T.T.T.T.    .   .   o o o # # # - ,.3.3.;.* * $ * * e 6.3.,.: # # o . T.T.T.T.T.T.T.T.",
"T.T.T.T.T.T.T.T.T.      . . . o o # o # # > 7.3.3.9.- * $ * $ j 4.3.1.: # # o   T.T.T.T.T.T.T.T.",
"T.T.T.T.T.T.T.T.T.  .   . . . . o o o o O > 0.3.3.>.- * * * * g 6.3.,.; # o o . T.T.T.T.T.T.T.T.",
"T.T.T.T.T.T.T.T.6 7 5 % o o o o o o # # # $ -.3.8.k $ * * * # ; ;.5.k $ # # 0 0 T.T.T.T.T.T.T.T.",
"T.T.T.T.T.T.T.T.7 v v v v s i 5 # o o o # # > l k : # * * # * $ : , $ * f L F a T.T.T.T.T.T.T.T.",
"T.T.T.T.T.T.T.T.6 c v p v m S D Y E P I I Q Q I q o $ $ # * # # o ! =.b.R A V r T.T.T.T.T.T.T.T.",
"T.T.T.T.T.T.T.T.5 u p v v n n m V A G / ..N.G.B.O.s O # $ $ # # B *.n.*.D V V 0 T.T.T.T.T.T.T.T.",
"T.T.T.T.T.T.T.T.T.6 i p v v v m V A D H T ' F.G.O.` 5 # # # * # ) M.b.' A N N 3 T.T.T.T.T.T.T.T.",
"T.T.T.T.T.T.T.T.T.3 u p a v v m V A A F T ~ l.G.M./ L o # # O r | N.b.T m V v T.T.T.T.T.T.T.T.T.",
"T.T.T.T.T.T.T.T.T.T.u p p p v n V V A D G H +.G.G.| J # # # O N $.N.*.D S n u T.T.T.T.T.T.T.T.T.",
"T.T.T.T.T.T.T.T.T.T.7 p p p n n m V A A D D ~ B.H.@.T r o O o S a.D.&.V V v 0 T.T.T.T.T.T.T.T.T.",
"T.T.T.T.T.T.T.T.T.T.7 t p p c n m V V A D D D p.I.D./ D O o $ F S.J.| m n v p T.T.T.T.T.T.T.T.T.",
"T.T.T.T.T.T.T.T.T.6 t 9 9 p p v n V A A A D D / P.P.p.H p   8 ` K.D.J m V v v 0 T.T.T.T.T.T.T.T.",
"T.T.T.T.T.T.T.T.T.6 u 9 u 9 u c b n n Z m A D D S.P.K./ F O m m.D.a.m V n v p t T.T.T.T.T.T.T.T.",
"T.T.T.T.T.T.T.T.T.7 u u u u x x c b n Z Z Z Z Z ..U.Y.#.F 3 ' F.N.F m m n n v a 5 T.T.T.T.T.T.T.",
"T.T.T.T.T.T.T.T.6 9 9 9 u x c c b n n Z Z Z Z Z H K.U.z.T t o.G.&.m m m N n p p 6 T.T.T.T.T.T.T.",
"T.T.T.T.T.T.T.T.6 9 u 9 p x c c c n m Z m Z Z Z A #.U.D.W V s F.) v m m n v v p u T.T.T.T.T.T.T.",
"T.T.T.T.T.T.T.1 8 9 u u x c c c b b b Z Z n Z Z Z K h.K.O.F r %.m b n m n n v c i 6 T.T.T.T.T.T.",
"T.T.T.T.T.T.T.6 8 8 9 u u x c c b b n n b Z Z Z Z Z &.K.s.H V 0 c b n n n v v c v 6 T.T.T.T.T.T.",
"T.T.T.T.T.T.@ 7 7 8 9 9 x x x c b b b Z Z Z b b Z A ..A.C.T D 1 u b b n v v v c x r T.T.T.T.T.T.",
"T.T.T.T.T.T.@ 6 7 7 8 9 9 x x x b b b b b Z b Z m m / C.N.' D v 4 x v b b c x x u 6 & T.T.T.T.T.",
"T.T.T.T.T.T.T.@ @ 1 6 7 8 9 9 9 x c b b b b b b n m D p.m.*.F A 1 9 x x x u r 4 1 % T.T.T.T.T.T.",
"T.T.T.T.T.T.T.T.T.1 @ % < 3 8 9 9 9 9 x x x b x b b m +.s.*.T m < 8 8 7 3 % % # T.T.T.T.T.T.T.T.",
"T.T.T.T.T.T.T.T.3 3 5 3 3 % @ O O @ < 1 3 7 7 8 8 8 9 N L s 0 % . o O @ * * 2 * o T.T.T.T.T.T.T.",
"T.T.T.T.T.T.T.T.3 5 5 3 5 5 3 3 5 2 & 1 @ @ # $ @ # @ # % * * 2 2 2 2 3 2 2 2 3 O T.T.T.T.T.T.T.",
"T.T.T.T.T.T.T.3 5 5 5 5 3 5 5 6 5 6 5 0 5 5 5 5 0 5 5 5 5 5 5 2 = 2 5 5 5 2 5 2 % T.T.T.T.T.T.T.",
"T.T.T.T.T.T.T.2 6 5 6 3 5 6 3 6 6 6 6 6 6 0 7 6 6 6 0 6 5 6 0 6 5 5 5 5 4 5 4 2 2 T.T.T.T.T.T.T.",
"T.T.T.T.T.T.T.4 3 4 6 6 6 6 6 6 6 6 6 7 0 0 r 0 0 0 0 6 0 0 6 0 5 0 4 4 6 5 2 4 3 T.T.T.T.T.T.T.",
"T.T.T.T.T.T.2 4 6 5 4 6 6 6 6 7 r r t r u r r t r 6 0 r 6 6 0 6 0 0 0 4 2 4 2 0 3 % T.T.T.T.T.T.",
"T.T.T.T.T.T.4 6 6 3 6 6 6 6 7 7 7 r t r r r u r r r r r 6 6 0 0 0 6 0 6 6 6 4 0 5 1 T.T.T.T.T.T.",
"T.T.T.T.T.3 6 4 6 6 6 6 7 7 7 7 7 t t r t y r r t r r r r 0 r 6 7 7 7 6 6 4 4 2 5 3 T.T.T.T.T.T.",
"T.T.T.T.T.4 6 3 6 6 7 6 6 7 7 r t t r r t t u r t r r 0 r r r r r 7 7 4 6 6 6 6 6 5 T.T.T.T.T.T.",
"T.T.T.T.T.3 6 6 7 6 6 7 7 7 7 r t t t r u u t t t t r t r r r t r 6 6 0 4 6 4 0 7 6 T.T.T.T.T.T.",
"T.T.T.T.3 6 6 7 6 7 7 7 7 7 r t u 8 t t u t t t t t t t t u t t r 6 6 6 6 6 6 8 6 6 1 T.T.T.T.T.",
"T.T.T.T.2 r r 7 6 7 7 r t t t t t u t u t t t t t t t u u t t t r 7 7 6 6 6 t 7 r 7 3 T.T.T.T.T.",
"T.T.T.T.r u t t t 7 7 7 7 t t t u t u t t t u u u u u u t t t 7 r 6 6 6 0 7 t 7 u u 6 T.T.T.T.T.",
"T.T.T.3 t u u i x a v i t 8 t 8 8 t t u u u u u u u u t t t 7 7 7 7 7 7 t t u v v a 6 T.T.T.T.T.",
"T.T.T.3 r u v a v n m V A A A n v u 8 t 8 t t t t t t r 7 t 7 7 8 u v m A A N n v a 7 T.T.T.T.T.",
"T.T.T.6 r r u v v N V V A G K K ^ ~ K K A A b b v x v n n A ~ ] } q. .( H A V n v v t T.T.T.T.T.",
"T.T.@ 7 t t t t c n A D G J K K ^ ( ( [ q.w.t.y.y.f.k.k.k.k.j.j.u.w.{ ( J D D V a t 6 T.T.T.T.T.",
"T.T.T.@ 3 u u u u u x n A K ^ ( ( ( ] [ { q.e.y.u.j.k.k.v.v.k.k.u.q.} [ K D n p 8 u 5 T.T.T.T.T.",
"T.T.T.T.T.O 1 u x u c x v c n A K ^ { q.e.t.t.g.f.j.k.k.v.v.k.k.y.q.^ A v x u u t 7 % T.T.T.T.T.",
"T.T.T.T.T.T.T.. % 3 r u c c v v c v b m A G K ^ [ [ [ [ [ ~ H A n v c c v x x 8 3 O T.T.T.T.T.T.",
"T.T.T.T.T.T.T.T.T.T.    % u v c c c c c b x c c x x v v v v b b v v v c x t < o T.T.T.T.T.T.T.T.",
"T.T.T.T.T.T.T.T.T.T.T.T.T.T.O 1 7 u c c b v c c v c b b v v b b b b 7 O O T.T.T.T.T.T.T.T.T.T.T.",
"T.T.T.T.T.T.T.T.T.T.T.T.T.T.T.T.      X < 1 4 7 6 t t t t r 7 3 % X   T.T.T.T.T.T.T.T.T.T.T.T.T.",
"T.T.T.T.T.T.T.T.T.T.T.T.T.T.T.T.        T.T.T.T.T.T.T.T.T.T.        T.T.T.T.T.T.T.T.T.T.T.T.T.T.",
"T.T.T.T.T.T.T.T.T.T.T.T.T.T.T.T.        T.T.T.T.T.T.T.T.T.T.        T.T.T.T.T.T.T.T.T.T.T.T.T.T.",
"T.T.T.T.T.T.T.T.T.T.T.T.T.T.T.T.      T.T.T.T.T.T.T.T.T.T.T.      T.T.T.T.T.T.T.T.T.T.T.T.T.T.T.",
"T.T.T.T.T.T.T.T.T.T.T.T.T.T.T.T.      T.T.T.T.T.T.T.T.T.T.        T.T.T.T.T.T.T.T.T.T.T.T.T.T.T.",
"T.T.T.T.T.T.T.T.T.T.T.T.T.T.T.T.      T.T.T.T.T.T.T.T.T.T.        T.T.T.T.T.T.T.T.T.T.T.T.T.T.T.",
"T.T.T.T.T.T.T.T.T.T.T.T.T.T.T.T.      T.T.T.T.T.T.T.T.T.T.      T.T.T.T.T.T.T.T.T.T.T.T.T.T.T.T.",
"T.T.T.T.T.T.T.T.T.T.T.T.T.T.T.T.      T.T.T.T.T.T.T.T.T.T.      T.T.T.T.T.T.T.T.T.T.T.T.T.T.T.T.",
"T.T.T.T.T.T.T.T.T.T.T.T.T.T.T.T.      T.T.T.T.T.T.T.T.T.T.T.    T.T.T.T.T.T.T.T.T.T.T.T.T.T.T.T.",
"T.T.T.T.T.T.T.T.T.T.T.T.T.T.T.T.T.  T.T.T.T.T.T.T.T.T.T.T.T.  T.T.T.T.T.T.T.T.T.T.T.T.T.T.T.T.T."
};
