/* XPM */
static char *result[] = {
/* columns rows colors chars-per-pixel */
"48 48 2 1 ",
"  c #1E4042",
". c #142734",
/* pixels */
"  ........        ....            ....          ",
"  ........        ....            ....          ",
"......            ........        ........      ",
"......            ........        ........      ",
"......            ........        ........      ",
"......            ........        ........      ",
"......        ................    ............  ",
"......        ................    ............  ",
"......        ................    ............  ",
"......        ................    ............  ",
"          ........            ........        ..",
"          ........            ........        ..",
"          ........            ........        ..",
"          ........            ........        ..",
"  ............            ........            ..",
"  ............            ........            ..",
"  ............            ........            ..",
"  ............            ........            ..",
"..............        ............        ......",
"..............        ............        ......",
"..............        ............        ......",
"..............        ............        ......",
"..            ........        ....    ..........",
"..            ........        ....    ..........",
"..            ........        ....    ..........",
"..            ........        ....    ..........",
"          ............            ..............",
"          ............            ..............",
"          ............            ..............",
"          ............            ..............",
"      ....            ....        ....        ..",
"      ....            ....        ....        ..",
"      ....            ....        ....        ..",
"      ....            ....        ....        ..",
"  ....            ............    ....          ",
"  ....            ............    ....          ",
"  ....            ............    ....          ",
"  ....            ............    ....          ",
"......        ....    ....................      ",
"......        ....    ....................      ",
"......        ....    ....................      ",
"......        ....    ....................      ",
"  ............        ....        ..............",
"  ............        ....        ..............",
"  ............        ....        ..............",
"  ............        ....        ..............",
"      ....            ....            ....      ",
"      ....            ....            ....      "
};
