/* XPM */
static char *result[] = {
/* columns rows colors chars-per-pixel */
"48 48 5 1 ",
"  c #E8C65B",
". c #EBBE56",
"X c #EEB551",
"o c #353540",
"O c #E39347",
/* pixels */
"                                                ",
"                                                ",
"                                                ",
"   ............  ......  ......  ............   ",
"   ..........................................   ",
"   ..         ....    ....    ....         ..   ",
"   ..                                      ..   ",
"   ..  XXXXXXXX  XXXXXX  XXXXXX  XXXXXXXX  ..   ",
"   ..  XXXXXXXXXXXXXXXXXXXXXXXXXXXXXXXXXX  ..   ",
"   ..  XXooooooXXooooooXXooooooXXooooooXX  ..   ",
"   ..  XXo    o  o    o  o    o  o    oXX  ..   ",
"   ..  XXo    oooo XX oooo XX oooo    oXX  ..   ",
"   ..  XXo         XX      XX         oXX  ..   ",
"   ..  XXo   XXXXXXXXXXXXXXXXXXXXXX   oXX  ..   ",
"   ... XXooo XXXXXXXXXXXXXXXXXXXXXXOoooXX ...   ",
"    ..  XX o XXXXXXXXXXXXXXXXXXXXXXOo XX  ..    ",
"    ..  XX o XXXXXXXXXXXXXXXXXXXXXXOo XX  ..    ",
"   ... XXooo XXXXXXXXXXXXXXXXXXXXXXOoooXX ...   ",
"   ..  XXo   XXXXXXXXXXXXXXXXXXXXXXOOOoXX  ..   ",
"   ..  XXo XXXXXXXXXXXXXXXXXXXXXXXXXXOoXX  ..   ",
"   ..  XXo XXXXXXXXXXXXXXXXXXXXXXXXXXOoXX  ..   ",
"   ..  XXo   XXXXXXXXXXXXXXXXXXXXXXOOOoXX  ..   ",
"   ... XXooo XXXXXXXXXXXXXXXXXXXXXXOoooXX ...   ",
"    ..  XX o XXXXXXXXXXXXXXXXXXXXXXOo XX  ..    ",
"    ..  XX o XXXXXXXXXXXXXXXXXXXXXXOo XX  ..    ",
"   ... XXooo XXXXXXXXXXXXXXXXXXXXXXOoooXX ...   ",
"   ..  XXo   XXXXXXXXXXXXXXXXXXXXXXOOOoXX  ..   ",
"   ..  XXo XXXXXXXXXXXXXXXXXXXXXXXXXXOoXX  ..   ",
"   ..  XXo XXXXXXXXXXXXXXXXXXXXXXXXXXOoXX  ..   ",
"   ..  XXo   XXXXXXXXXXXXXXXXXXXXXXOOOoXX  ..   ",
"   ... XXooo XXXXXXXXXXXXXXXXXXXXXXOoooXX ...   ",
"    ..  XX o XXXXXXXXXXXXXXXXXXXXXXOo XX  ..    ",
"    ..  XX o XXXXXXXXXXXXXXXXXXXXXXOo XX  ..    ",
"   ... XXooo XXXXXXXXXXXXXXXXXXXXXXOoooXX ...   ",
"   ..  XXoOOOXXXXXXXXXXXXXXXXXXXXXXOOOoXX  ..   ",
"   ..  XXoOOOOOOOOOXXOOOOOOXXOOOOOOOOOoXX  ..   ",
"   ..  XXoOOOOooooOXXOooooOXXOooooOOOOoXX  ..   ",
"   ..  XXoOOOOo  oOOOOo  oOOOOo  oOOOOoXX  ..   ",
"   ..  XXooooooXXooooooXXooooooXXooooooXX  ..   ",
"   ..  XXXXXXXXXXXXXXXXXXXXXXXXXXXXXXXXXX  ..   ",
"   ..  XXXXXXXX  XXXXXX  XXXXXX  XXXXXXXX  ..   ",
"   ..                                      ..   ",
"   ..         ....    ....    ....         ..   ",
"   ..........................................   ",
"   ............  ......  ......  ............   ",
"                                                ",
"                                                ",
"                                                "
};
