/* XPM */
static char *result[] = {
/* columns rows colors chars-per-pixel */
"48 48 6 1 ",
"  c #7E674C",
". c #735B42",
"X c #353540",
"o c #E8C65B",
"O c #EEB551",
"+ c #E39347",
/* pixels */
"                                                ",
"                                                ",
"                                                ",
"                                                ",
"                                                ",
"                                                ",
"                                                ",
"       ........  ......  ......  ........       ",
"       ..................................       ",
"       ..XXXXXX..XXXXXX..XXXXXX..XXXXXX..       ",
"       ..XooooX..XooooX..XooooX..XooooX..       ",
"       ..XooooXXXXoOOoXXXXoOOoXXXXooooX..       ",
"       ..XoooooooooOOooooooOOoooooooooX..       ",
"       ..XoooOOOOOOOOOOOOOOOOOOOOOOoooX..       ",
"       ..XXXoOOOOOOOOOOOOOOOOOOOOOO+XXX..       ",
"        ...XoOOOOOOOOOOOOOOOOOOOOOO+X...        ",
"        ...XoOOOOOOOOOOOOOOOOOOOOOO+X...        ",
"       ..XXXoOOOOOOOOOOOOOOOOOOOOOO+XXX..       ",
"       ..XoooOOOOOOOOOOOOOOOOOOOOOO+++X..       ",
"       ..XoOOOOOOOOOOOOOOOOOOOOOOOOOO+X..       ",
"       ..XoOOOOOOOOOOOOOOOOOOOOOOOOOO+X..       ",
"       ..XoooOOOOOOOOOOOOOOOOOOOOOO+++X..       ",
"       ..XXXoOOOOOOOOOOOOOOOOOOOOOO+XXX..       ",
"        ...XoOOOOOOOOOOOOOOOOOOOOOO+X...        ",
"        ...XoOOOOOOOOOOOOOOOOOOOOOO+X...        ",
"       ..XXXoOOOOOOOOOOOOOOOOOOOOOO+XXX..       ",
"       ..XoooOOOOOOOOOOOOOOOOOOOOOO+++X..       ",
"       ..XoOOOOOOOOOOOOOOOOOOOOOOOOOO+X..       ",
"       ..XoOOOOOOOOOOOOOOOOOOOOOOOOOO+X..       ",
"       ..XoooOOOOOOOOOOOOOOOOOOOOOO+++X..       ",
"       ..XXXoOOOOOOOOOOOOOOOOOOOOOO+XXX..       ",
"        ...XoOOOOOOOOOOOOOOOOOOOOOO+X...        ",
"        ...XoOOOOOOOOOOOOOOOOOOOOOO+X...        ",
"       ..XXXoOOOOOOOOOOOOOOOOOOOOOO+XXX..       ",
"       ..X+++OOOOOOOOOOOOOOOOOOOOOO+++X..       ",
"       ..X+++++++++OO++++++OO+++++++++X..       ",
"       ..X++++XXXX+OO+XXXX+OO+XXXX++++X..       ",
"       ..X++++X..X++++X..X++++X..X++++X..       ",
"       ..XXXXXX..XXXXXX..XXXXXX..XXXXXX..       ",
"       ..................................       ",
"       ........  ......  ......  ........       ",
"                                                ",
"                                                ",
"                                                ",
"                                                ",
"                                                ",
"                                                ",
"                                                "
};
