/* XPM */
static char *result[] = {
/* columns rows colors chars-per-pixel */
"48 48 72 1 ",
"  c gray60",
". c #959595",
"X c #939393",
"o c gray57",
"O c #8D8D8D",
"+ c gray50",
"@ c #929292",
"# c #909090",
"$ c gray55",
"% c #888888",
"& c gray52",
"* c #989898",
"= c gray59",
"- c #7E7E7E",
"; c #9B9B9B",
": c #9D9D9D",
"> c gray62",
", c gray63",
"< c #A4A4A4",
"1 c #898989",
"2 c #9F9F9F",
"3 c gray61",
"4 c #979797",
"5 c gray49",
"6 c #A0A0A0",
"7 c gray65",
"8 c #A7A7A7",
"9 c gray66",
"0 c gray68",
"q c #AAAAAA",
"w c gray53",
"e c gray58",
"r c gray56",
"t c #797979",
"y c gray64",
"u c #A2A2A2",
"i c #8E8E8E",
"p c #A5A5A5",
"a c #7B7B7B",
"s c gray67",
"d c #A9A9A9",
"f c gray48",
"g c #9A9A9A",
"h c gray54",
"j c #717171",
"k c #838383",
"l c #868686",
"z c #848484",
"x c #6F6F6F",
"c c #808080",
"v c #7C7C7C",
"b c #818181",
"n c #767676",
"m c gray47",
"M c gray51",
"N c #8B8B8B",
"B c #ACACAC",
"V c gray69",
"C c #AFAFAF",
"Z c #B1B1B1",
"A c #AEAEAE",
"S c gray44",
"D c #6A6A6A",
"F c gray45",
"G c #747474",
"H c #727272",
"J c gray42",
"K c gray43",
"L c gray46",
"P c #777777",
"I c gray70",
"U c #6C6C6C",
/* pixels */
" .XoO+XX@oX@X#oo$%@#$&%#o*=-. ;:;>>:,< 1:22;3>;*",
"*.44X56>6<78790q@we#4r**= @t>6,yuu7<2yiO9<p9<898",
"p<u24au6,ss88dq6oX6 >;6>2dufg26,y62;g2#h;2y<ppp7",
"6<u3#t>26p97p7d,h.ug.; 2up*jg ;3;g@o*3kl g>;;3gu",
";>=rlf<<<87p9972z.62X$i*66.x  ;;>;g==g+cg;2,<6<7",
"-&z51-v+++k+cb+c%bc5+ctnvm5ft5c+avtna5v-l1%&M&kM",
"=4X=eoo*%XOwhhO1wN1Nh11O4*.#o*;eg=4X13o3;4**X;4<",
"uu4;.g: MX#rO@@XX4eiNw+g;:uyuy<,6u2@$s2B7u<y2qBd",
"y3233e#@5e.*.e@Xe=X#Nw+;66,8<88g  :@$0BVCZA8Cqdu",
"6u6u666 54*6> Xo@@O%zcb3*76<997y29<XO7y,0p9s9Bqu",
"2gy322>;tX*3>goi@X$hlcb2;y;,<76,6;g$O2>;,8p>8u>u",
"vf+5+--$SDjFSSjGHnjJKmxSjnFmLmtPmtPwxaaPLGatmatt",
"##..*44@Oie@eX@eil%$1-1io#o#N%zzwwwk$hog= 4*.=g=",
"4.eeXXB00CCC8,>6 Mwl1h$Nr#$ay2:geX:> 4.%;2;,2>u<",
"6:>6;eIIIIVAB9s9 w..e4gg*:4Fi@r=62: 3> &,uu6uy2,",
",yy,gOqqdddq77dp=#>;*4g;*u>S1o ,;gge;:=zg34gg4;>",
"<,69g179<87dBsd<=%4=4g4X 2Xn,9Bqp6=*:p:MuqA8y:7p",
"8889 z88<7<pyu,4$%=e@@4==3#j ,89u7u6:,.%uqu p::y",
"Oi#O &zbc&k11%w1r5+55ambk&wwNo$$$$1bhi=%l&lwc%zc",
";,3y3; ,%;.g ;;:;=.XoXc#rXrrr#ih%zz=zreohoiiiOr.",
"pqqsqpp<w9886p<9p78p6X-4;3:6X>gXoi$4wg3g44X.gXg:",
"8<p<<9dpl<ppup8777py6X-4**3; *eeiN$o+@e#@X$hiNO*",
"d7<8778pz,<<pu<pypy,:@+.*4*4#.X#OioiHkzw$e4::22u",
"p87y6p0uM,u,<yyuu77y>$P#e=4eo#XO%lOih2:u,,2>2>>2",
"5M--+-&e-+5+5-M&kM+vawmxat5+famSFFGO--kc+cc555v+",
"..r#br@r##rXe=##:1&1k+%%wr@Orr@#iOrhii:@ihbO@Ooo",
".i$XON<yu6,pyy62<k#rO#o=X g%p79<6* g,:yh2 g.**eN",
"re.2gi8d97dd827<<k#erX#;g>;h8qdy36:><u6w66y.:3o$",
"Or 2;O<<78ss9y>y6ciih%$*=g*l7896py6<p6<$y2#ONONz",
";*44*%<2g6u<28,6*c##1h$X@##zpd9y7qq88p3l34#1NN%l",
"wzz&O5$ONh11lM&+iUvvvLLvf5lG5zl1w$$NO14P+bv5b5+c",
"@@e*4o==k@o%@g* i=#oO-ahrrNhr@oiO$%rr#lh1ri#$iih",
"A7p978p>kyq<.;96=4;3*Nv=*g;**3;>6>4hL1O%M3 :;*3y",
"99ppdB<;k.3:=o=2:8uu>N+eX ;>2>g,u;*zG23; ,yg<6p,",
"p7y6<7<=z22yd6>p6h 34l%  ,6>62g>>gX-c#OXXe<;7u  ",
"8pqdAd0,N36<pq9BsydB<rz;>,>2**42 .X5i3u63@*r4*X2",
"; 3*g>6.+OrOhrNN$N1wk&Hbl##o#X.X@iif5rr%=,qy8q,p",
"5++ccc-%%lMbl-bMhhr$$vN1hk++tLLLFPnPmtm+5-+anLmj",
"4=@oO+X@#oor@OO$hzO$wk&$$==+$e= 4g;*>6 h::;;g 4@",
"=...oa>>:6yu<8q8ol.e=O=*=gXt6uy,yu87,<ri<789pdpu",
"pu,2*fu26qs87dsu@e, 23:3282tg>,6,u6>3,o1>6<pup77",
"6py3#a>6,897<pd2h., eg4,y7;F3:;:;;@r4;M%  >;;>gu",
"36.@wt<<p7878876&eu2*eX46,=x*g3g>3 ..g+b g>,;6<<",
"-kcakma-afcaa5t-1cklk5mf-cctSLPaaPFPt55Pb&cfavf5",
".Xe.e@@*OXihh1Nwl1%111NOe.o$O=*X=.e#% r*g =:4g*2",
"6,.g4g3 zXiOO@X@@=Xihwc ;:,yyuy6,y6@O0:sy*8q89q0",
",;:>3Xri5X. ..Xoe4e#N1-;>>,pp8<6g*3@1sBV0VBBVAs<",
"6uu,,,, 5  >3*e#@@Ow&MM3;y>7899669p=o9<y0788dsq6"
};
