/* XPM */
static char *result[] = {
/* columns rows colors chars-per-pixel */
"48 48 53 1 ",
"  c #1A1D23",
". c #1E2126",
"X c #202227",
"o c #222529",
"O c #212428",
"+ c #15171B",
"@ c #30353F",
"# c #343842",
"$ c #363A43",
"% c #393C45",
"& c #373B44",
"* c #1C1F25",
"= c #2C313D",
"- c #282F3A",
"; c #2D3039",
": c #17191D",
"> c #3A3E46",
", c #3E4148",
"< c #30343F",
"1 c #1B1E24",
"2 c #262A2C",
"3 c #24272A",
"4 c #3D4147",
"5 c #2E333E",
"6 c #323641",
"7 c #292D34",
"8 c #242831",
"9 c #181B20",
"0 c #383C45",
"q c #36393F",
"w c #1A1C21",
"e c #2A2F3B",
"r c #242B37",
"t c #232A36",
"y c #262C38",
"u c #1C2229",
"i c #181C22",
"p c #1F2730",
"a c #15181C",
"s c #131518",
"d c #171B20",
"f c #14161A",
"g c #2C313C",
"h c #222934",
"j c #1B2029",
"k c #1F262F",
"l c #171A1F",
"z c #1D2025",
"x c #191C22",
"c c #333741",
"v c #2A303B",
"b c #2F343E",
"n c #31363F",
/* pixels */
" ..XoooX.O............ + ..XoooX.O............ +",
"@##$%%%$#&############@*@##$%%%$#&############@*",
"###############==---@;.:###############==---@;.:",
"###############&&>,&##<1###############&&>,&##<1",
"#######################.#######################.",
"=#####################= =#####################= ",
"ooX....... + ..OOoooX...ooX....... + ..OOoooX...",
"%%$#######@*@##&&%%%$###%%$#######@*@##&&%%%$###",
"#####===@;.:#################===@;.:############",
"####>&,&##<1################>&,&##<1############",
"###########.#######################.############",
"##########= =#####################= =###########",
" ..OOo223XoX.......... + ..OOo223XoX.......... +",
"@##&&%44>$%$##########@*@##&&%44>$%$##########@*",
"#######################.#######################.",
"################@566;789################@566;789",
"################@500q77w################@500q77w",
"=#################&&%#= =#################&&%#= ",
".......... + ..OOo322oX........... + ..OOo322oX.",
"##########@*@##&&%>44%$###########@*@##&&%>44%$#",
"###--@@@#..:####<e------------e6###.############",
"###&&#&,&><1###@rtttttttttttttty@##.############",
"###########.###5tttttuiiiiuttttt5##.############",
"##########= =##ettttpassssaptttte#= =###########",
" ..XoooX.O..... iidfssssssssadii ............. +",
"@##$%%%$#&#####gtthdssssssssjhttg#############@*",
"###############5tttuassssssakttt5######==---@;.:",
"###############5ttttttplpttttttt5######&&>,&##<1",
"###############5tttttttitttttttt5##############.",
"=##############ettttttplpttttttte#############= ",
"ooX....... + ..zxiiiiiiiiiiiiii z. + ..OOoooX...",
"%%$#######@*@##cvrttttttttttttr5c#@*@##&&%%%$###",
"#####===@;.:####6b555555555555bc###.############",
"####>&,&##<1################&5n5@.1a############",
"###########.################&$%$##6z############",
"##########= =#####################= =###########",
" ..OOo223XoX.......... + ..OOo223XoX.......... +",
"@##&&%44>$%$##########@*@##&&%44>$%$##########@*",
"#######################.#######################.",
"################@566;789################@566;789",
"################@500q77w################@500q77w",
"=#################&&%#= =#################&&%#= ",
".......... + ..OOo322oX........... + ..OOo322oX.",
"##########@*@##&&%>44%$###########@*@##&&%>44%$#",
"###--@@@#..:###############--@@@#..:############",
"###&&#&,&><1###############&&#&,&><1############",
"###########.#######################.############",
"##########= =#####################= =###########"
};
