/* XPM */
static char *result[] = {
/* columns rows colors chars-per-pixel */
"48 48 49 1 ",
"  c #EEEEEE",
". c gray88",
"X c #DFDFDF",
"o c #ECECEC",
"O c #E1E1E1",
"+ c gainsboro",
"@ c gray83",
"# c #D7D7D7",
"$ c gray85",
"% c white",
"& c gray93",
"* c gray99",
"= c #E9E9E9",
"- c gray89",
"; c #E6E6E6",
": c gray94",
"> c #E4E4E4",
", c gray91",
"< c #EFEFEF",
"1 c #E2E2E2",
"2 c gray98",
"3 c #F4F4F4",
"4 c #EAEAEA",
"5 c gray92",
"6 c #DADADA",
"7 c #DDDDDD",
"8 c gray87",
"9 c gray90",
"0 c gray86",
"q c gray84",
"w c gray81",
"e c gray82",
"r c LightGray",
"t c #FEFEFE",
"y c #F9F9F9",
"u c gray97",
"i c #F1F1F1",
"p c #D5D5D5",
"a c #D8D8D8",
"s c #E7E7E7",
"d c #CECECE",
"f c #D0D0D0",
"g c #D2D2D2",
"h c #CDCDCD",
"j c #FDFDFD",
"k c #F8F8F8",
"l c gray95",
"z c #F3F3F3",
"x c #FBFBFB",
/* pixels */
"    .     X    oO    +o    @     #     $     +  ",
"%%%%&%%%%%&%%%%* %%%%=*%%%%X%%%%%-%%%%%;%%%%%=%%",
":+:: ::>:: ::>:: :o,:&<:O :o::X::o::O::&::1::&::",
"%-%%%%%<%%%%%<%%%%23%%%%4*%%%%,%%%%%4%%%%%o%%%%%",
"&;&&-&&=&&1&&=&5-&o5&.5&,&&6&&,&&7&&,&&8&&=&&.&&",
"%%%%&%%%%%&%%%%*<%%%%=*%%%%X%%%%%-%%%%%;%%%%%=%%",
"9099899X99899X9>X9-O97>97>9$99799699899+99899799",
"%-%%%%%<%%%%%<%%%%23%%%%4*%%%%,%%%%%4%%%%%o%%%%%",
"=$==;==.==;==X==;=;-=9==7,=-==+==>==7==>==X==>==",
"%%%%&%%%%%&%%%%*<%%%%=*%%%%X%%%%%-%%%%%;%%%%%=%%",
";;;;$;;;;;$;;;;>6;;;;q>;;;;w;;;;;e;;;;;r;;;;;q;;",
"t-ttttt<ttttt tttty3tttt=*tttt,ttttt4tttttottttt",
"*O*****o*****o****ui****,y****;*****,*****4*****",
"::::O:::::.::::&1::::7&::::p<::::a:::::6:::::7::",
"%t%%&%%%%%o%%%%* %%%%=*%%%%X%%%%%-%%%%%;%%%%%=%%",
"i+ii<ii9ii<ii9ii<i =i<ii1<i&ii.ii ii1ii ii-ii<ii",
"%-%%%%%<%%%%%<%%%%23%%%%4*%%%%,%%%%%4%%%%%o%%%%%",
" s  -  4  1 &4 o> o5 Oo =& 0& ,  7  ,  X  =  .  ",
"%%%%&%%%%%&%%%%*<%%%%=*%%%%X%%%%%-%%%%%;%%%%%=%%",
"s+ss.ssOss.ssOs;Os9-s8;sX;s0ss8ss+ssXss7ss.ss8ss",
"%-%%%%%<%%%%%<%%%%23%%%%4*%%%%,%%%%%4%%%%%o%%%%%",
"5655s55155s55154,5,95s45X=5>55855955855;55.55;55",
"%%%%&%%%%%&%%%%*<%%%%=*%%%%X%%%%%-%%%%%;%%%%%=%%",
"99;;a;;;;;a;;;;-$;;;;p-;;;;d9;;;;f;;;;;g;;;;;p;;",
"%-%%%%%<%%%%% %%%%23%%%%4*%%%%,%%%%%4%%%%%o%%%%%",
"%-%%%%%<%%%%% %%%%23%%%%4*%%%%,%%%%%4%%%%%o%%%%%",
"::::O:::::.::::&1::::7&::::p<:<::a:::::6:::::7::",
"%%%%&%%%%%&%%%%* %%%%=*%%%%X%%%%%-%%%%%;%%%%%=%%",
"i7ii<ii9ii<ii9ii<i =i<ii1<i&iiOii ii1ii ii>ii<ii",
"%-%%%%%<%%%%%<%%%%23%%%%4*%%%%,%%%%%4%%%%%o%%%%%",
"o9oo1oo,ooOoo,o41o5=oX4os5o$oosoo+oosoo8oo,ooXoo",
"%%%%&%%%%%&%%%%*<%%%%=*%%%%X%%%%%-%%%%%;%%%%%=%%",
",7,,O,,1,,.,,1,;O,;>,Xs,.s,0,,.,,+,,.,,8,,O,,X,,",
"%-%%%%%<%%%%%<%%%%23%%%%4*%%%%,%%%%%4%%%%%o%%%%%",
"4$44;44.44;44.4=s4s>49=47,4-44+44>44744944X44;44",
"%%%%&%%%%%&%%%%*<%%%%=*%%%%X%%%%%-%%%%%;%%%%%=%%",
"9999a99999#9999-$9999p-9999h99999f99999g99999p99",
"j1jjjjj&jjjjj&jjjjkljjjj,2jjjjsjjjjj,jjjjj5jjjjj",
"t1ttttt ttttt&ttttyztttt=xttttsttttt=ttttt5ttttt",
"::::O:::::O::::&1::::7 ::::p:::::a:::::0:::::7::",
"%%%%&%%%%%&%%%%* %%%%=*%%%%X%%%%%-%%%%%;%%%%%=%%",
":+:: ::>:: ::>:: :&,: ::O :o::.::&::.::&::1:: ::",
"%-%%%%%<%%%%%<%%%%23%%%%4*%%%%,%%%%%4%%%%%o%%%%%",
"4-44.44;44X44;4,.4=s48,49=4a44944644944+44;44744",
"%%%%&%%%%%&%%%%*<%%%%=*%%%%X%%%%%-%%%%%;%%%%%=%%",
"s7ss.ssOss.ssOs;Os9-s8;s.;s0ssXss+ss.ss8ss.ssXss",
"%-%%%%%<%%%%%<%%%%23%%%%4*%%%%,%%%%%4%%%%%o%%%%%",
"=$=,9==X==9=,X=,9=;-=>,=7s=1==+==1==+==-==8==>=="
};
