/* XPM */
static char *result[] = {
/* columns rows colors chars-per-pixel */
"32 32 10 1 ",
"  c #1E4042",
". c #172F39",
"X c #142734",
"o c #1B383D",
"O c #152A36",
"+ c #1C3A3F",
"@ c #162D37",
"# c #1D3D40",
"$ c #18323A",
"% c #1A353C",
/* pixels */
" .XXXX.     XX.       oXXo      ",
".OXXoo+     XXO..+    oXX@..    ",
"XXXX        XXXXXo    oXXXXX    ",
"XXXX        XXXXXo    oXXXXX    ",
"XXXX     .XXXXXXXXXX  oXXXXXXX. ",
"XXXX     .XXXXXXXXXX  oXXXXXXX. ",
"....  #oo@XX........oo$XX@....$o",
"      oXXXXX        XXXXXo    oX",
"      oXXXXX        XXXXXo    oX",
" %....@XX$oo     %..XX@oo#    oX",
" .XXXXXXXo       .XXXX.       oX",
" .XXXXXXXo       .XXXX.       oX",
"XXXXXXXXXo    oXXXXXXX.     XXXX",
"XXXXXXXXXo    oXXXXXXX.     XXXX",
"X@.......%oooo%.....XX.  +ooXXXX",
"Xo       .XXXX.     XX.  .XXXXXX",
"Xo       .XXXX.     XX.  .XXXXXX",
"o#    +..OXXXX.     oo%..OXXXXXX",
"      oXXXXXXX.       oXXXXXXXXX",
"      oXXXXXXX.       oXXXXXXXXX",
"    XX.       oXXo    oXXo    oX",
"    XX.       oXXo    oXXo    oX",
" +oo..%     oo$XX$oo  oXXo    +.",
" .XX        XXXXXXXX  oXXo      ",
" .XX        XXXXXXXX  oXXo      ",
".OXX     %..oo$XXXXX..@XX@..    ",
"XXXX     .XX  oXXXXXXXXXXXXX    ",
"XXXX     .XX  oXXXXXXXXXXXXX    ",
" .XXXXXXXo    oXXo    oXXXXXXXXX",
" .XXXXXXXo    oXXo    oXXXXXXXXX",
" %..XXO..+    oXXo    +..OXX....",
"    XX.       oXXo       .XX    "
};
