/* XPM */
static char *result[] = {
/* columns rows colors chars-per-pixel */
"48 48 71 1 ",
"  c #211F30",
". c #28212E",
"X c #3A2E2C",
"o c #2B293B",
"O c #322B30",
"+ c #733D1C",
"@ c #4F3727",
"# c #4C3A29",
"$ c #7A451C",
"% c #5B4427",
"& c #5A462A",
"* c #5B492A",
"= c #5D4F2D",
"- c #564F32",
"; c #5F5631",
": c #6C4D24",
"> c #775B27",
", c #7D672B",
"< c #706631",
"1 c #343242",
"2 c #343446",
"3 c #403F53",
"4 c #40404B",
"5 c #454358",
"6 c #48475B",
"7 c #605C4C",
"8 c #535463",
"9 c #575663",
"0 c #535669",
"q c #62616D",
"w c #64626E",
"e c #6D6E7E",
"r c #9B5315",
"t c #9E6D1E",
"y c #9F7320",
"u c #817431",
"i c #C97E13",
"p c #857E57",
"a c #A68328",
"s c #B08623",
"d c #BE9524",
"f c #C78717",
"g c #D29F1F",
"h c #DBB225",
"j c #DEB928",
"k c #E2C52E",
"l c #E3CA35",
"z c #90895D",
"x c #A1985C",
"c c #AAA26A",
"v c #CAB742",
"b c #E8D44B",
"n c #E1CF53",
"m c #ECDA5D",
"M c #F0DF65",
"N c #F1E374",
"B c #6F7080",
"V c #7D808E",
"C c #838793",
"Z c #9299A3",
"A c #9FA4AE",
"S c #B2B8C0",
"D c #B3B9C0",
"F c #BFC7CE",
"G c #D8E1E4",
"H c #DBE4E6",
"J c #DDE6E9",
"K c #EBEFF1",
"L c #EEF2F3",
"P c #F4F6F7",
"I c None",
/* pixels */
"IIIIIIIIIIIIIIIIIIIIIIIIIIIIIIIIIIIIIIIIIIIIIIII",
"IIIIIIIIIIIIIIIIIIIIIIIIIIIIIIIIIIIIIIIIIIIIIIII",
"IIIIIIIIIIIIIIIIIIIIIIIIIIIIIIIIIIIIIIIIIIIIIIII",
"IIIIIIIIIIIIIIIIIIIIIIIIIIIIIIIIIIIIIIIIIIIIIIII",
"IIIIIIIIIIIIIIIIIIIIIIIIIIIIIIIIIIIIIIIIIIIIIIII",
"IIIIIIIIIIIIIIIIIIIIIIIIIIIIIIIIIIIIIIIIIIIIIIII",
"IIIIIIIIIIIIIIIIIIIIIIIIIIIIIIIIIIIIIIIIIIIIIIII",
"IIIIIIIIIIIIIIIIIIIIIIIIIIIIIIIIIIIIIIIIIIIIIIII",
"IIIIIIIIIIIIIIIIIIIIIIIIIIIIIIIIIIIIIIIIIIIIIIII",
"IIIIIIIIIIIIIIIIIIIIIIIIIIIIIIIIIIIIIIIIIIIIIIII",
"IIIIIIIIIIIIIIIIIIIIIIIIIIIIIIIIIIIIIIIIIIIIIIII",
"IIIIIIIIIIIIIIIIIIIIIIIIIIIIIIIIIIIIIIIIIIIIIIII",
"IIIIIIIIIIIIIIIIIIIIIIIIIIIIIIIIIIIIIIIIIIIIIIII",
"IIIIIIIIIIIIIIIIIIIIIIIIIIIIIIIIIIIIIIIIIIIIIIII",
"IIIIIIIIIIIIIIIIIIIIIIIIIIIIIIIIIIIIIIIIIIIIIIII",
"IIIIIIIIIIIIIIIIIIIIIIIIIIIIIIIIIIIIIIIIIIIIIIII",
"IIIIIIIIIIIIIIIIIIIIIIIIIIIIIIIIIIIIIIIIIIIIIIII",
"IIIIIIIIIIIIIIIIIIIIIIIIIIIIIIIIIIIIIIIIIIIIIIII",
"IIIIIIIIIIIIIIIIIIIIIIIIIIIIIIIIIIIIIIIIIIIIIIII",
"IIIIIIIIIIIIIIIIIIIIIIIIIIIIIIIIIIIIIIIIIIIIIIII",
"IIIIIIIIIIIIIIIIIIIIIIIIIIIIIIIIIIIIIIIIIIIIIIII",
"IIIIIIIIIIIII4IIIIIIIIIIIIIIIIIIIIIIIIIIIIIIIIII",
"IIIIIIIIIIIIIzcIIIIIIIIIIIIIIIIIIIIIIIIIIIIIIIII",
"IIIIIIIIIIIIIzMxIIIIIIIIIIIIIIIIIIIIIIIIIIIIIIII",
"IIIII-777777pnbbxIIIIIIIIIIIIIIIIIIIIIIIIIIIIIII",
"IIIIIammmMNmblblbxIIIIIIIIIIIIIIIIIIIIIIIIIIIIII",
"IIII tjhkllklhgjhvOIIIIIIIIIIIIIIIIIIIIIIIIIIIII",
"IIIII$ttyyyyshgkd%IIIIIIIIIIIIIIIIIIIIIIIIIIIIII",
"IIIIII IIO#XOakd%IIIIIIIIIIIIIIIIIIIIIIIIIIIIIII",
"IIIIIIIIII>*I>f%IIIIIIIIIIIIIIIIIIIIIIIIIIIIIIII",
"IIIIIIIIII,=I&%IIIIIIIIIIIIIIIIIIIIIIIIIIIIIIIII",
"IIIIIIIIII,=IIIIIIIIIIIIIIIIIIIIIIIIIIIIIIIIIIII",
"IIIIIIIIIIu;IIIIIIIIIIIIIIIIIIIIIIIIIIIIIIIIIIII",
"IIIIIIIIIIu;IIIIIIIIIIIIIIIIIIIIIIIIIIIIIIIIIIII",
"IIIIIIIIIIu;IIIIIIIIIIIIIIIIIIIIIIIIIIIIIIIIIIII",
"IIIIIIIIIIu;IIIIIIIIIIIIIIIIIIIIIIIIIIIIIIIIIIII",
"IIIIIIIIIIu;IIIIIIIIIIIIIIIIIIIIIIIIIIIIIIIIIIII",
"IIIIIIIIIIu;IIIIIIIIIIIIIIIIIIIIIIIIIIIIIIIIIIII",
"IIIIIIIIIIu;IIIIIIIIIIIIIIIIIIIIIIIIIIIIIIIIIIII",
"IIIIIIIIII,=IIIIIIIIIIIIIIIIIIIIIIIIIIIIIIIIIIII",
"IIIIIIIIII,*IIIIIIIIIIIIIIIIIIIIIIIIIIIIIIIIIIII",
"IIIIIIIIII>*IIIIIIIIIIIIIIIIIIIIIIIIIIIIIIIIIIII",
"IIIIIIIIII>*IIIIIIIIo229ww4229ww4229ww4229wq1III",
"IIIIIIIIII,*IIIIIIIIo00FLKV00FLKV00FLKV00FLPqIII",
"IIIIIIIIII:@IIIIIIIIo35SJHe35SJHe35SJHe35SJLwIII",
"IIIIIIIII@&&-IIIIIII3eBADSCeBADSCeBADSCeBASF9III",
"IIIIIIII.$ig>IIIIIIIZGGB56SHGB56SHGB56SHGB502III",
"IIIIIIII+rffy<IIIIIICFF8ooZFF8ooZFF8ooZFF8o32III"
};
