/* XPM */
static char *result[] = {
/* columns rows colors chars-per-pixel */
"48 48 179 2 ",
"   c #8B6203",
".  c #613001",
"X  c #562401",
"o  c #84570C",
"O  c #6B3D02",
"+  c #A98110",
"@  c #B38A16",
"#  c #94680F",
"$  c #754608",
"%  c #E1BD21",
"&  c #815603",
"*  c #C9A611",
"=  c #C4A20E",
"-  c #966F04",
";  c #B5910B",
":  c #A58007",
">  c #805209",
",  c #5D4C04",
"<  c #161303",
"1  c #0C0B02",
"2  c #110F02",
"3  c #0A0801",
"4  c #534403",
"5  c #141103",
"6  c #050401",
"7  c #483012",
"8  c #B69F39",
"9  c #EFD359",
"0  c #DCB81E",
"q  c #78640F",
"w  c #442C06",
"e  c #3A351F",
"r  c #562E0E",
"t  c #D8AE3F",
"y  c #DABB3A",
"u  c #E6C63C",
"i  c #C79815",
"p  c #4D2504",
"a  c #020200",
"s  c #59512E",
"d  c #9E713A",
"f  c #924410",
"g  c #E1C344",
"h  c #D5B52B",
"j  c #CEAB15",
"k  c #D3AF18",
"l  c #823905",
"z  c #271602",
"x  c #653505",
"c  c #F2E5A9",
"v  c #C89954",
"b  c #BF8538",
"n  c #CFAA2F",
"m  c #DAB722",
"M  c #D7B41B",
"N  c #A75D0C",
"B  c #863904",
"V  c #513202",
"C  c #1E1902",
"Z  c #AA6323",
"A  c #AC631B",
"S  c #B26E16",
"D  c #B06A0F",
"F  c #9F4F09",
"G  c #974106",
"H  c #793202",
"J  c #A27304",
"K  c #463A03",
"L  c #8F8453",
"P  c #A15214",
"I  c #833703",
"U  c #423602",
"Y  c #4B3C1F",
"T  c #903E05",
"R  c #854105",
"E  c #6F3B09",
"W  c #854E0B",
"Q  c #321902",
"!  c #1B1002",
"~  c #7A3705",
"^  c #CA9E1A",
"/  c #5A4D17",
"(  c #9D851C",
")  c #431C01",
"_  c #170E02",
"`  c #331D04",
"'  c #662D03",
"]  c #B4981E",
"[  c #CAAA1F",
"{  c #5E2702",
"}  c #574D22",
"|  c #524713",
" . c #231D05",
".. c #3C3517",
"X. c #D1B53B",
"o. c #E3C028",
"O. c #9C800B",
"+. c #352B03",
"@. c #70632D",
"#. c #7D6912",
"$. c #6E5C10",
"%. c #A99643",
"&. c #E8C737",
"*. c #6F5B04",
"=. c #5B4A04",
"-. c #372E08",
";. c #75651F",
":. c #D4B73B",
">. c #977C0A",
",. c #514202",
"<. c #7C6504",
"1. c #7E6704",
"2. c #564603",
"3. c #695B1E",
"4. c #5C5123",
"5. c #66560F",
"6. c #847329",
"7. c #796303",
"8. c #836C0A",
"9. c #745F07",
"0. c #9B8217",
"q. c #988016",
"w. c #967E16",
"e. c black",
"r. c #B69D30",
"t. c #C8AC35",
"y. c #C1A117",
"u. c #CAAA1E",
"i. c #9C8624",
"p. c #EBCC44",
"a. c #EDD04B",
"s. c #E6C635",
"d. c #907B1D",
"f. c #A08B2B",
"g. c #D0B332",
"h. c #C4A82B",
"j. c #9E892A",
"k. c #E4C12B",
"l. c #EDCF49",
"z. c #E8C83A",
"x. c #F2D558",
"c. c #D1AF1F",
"v. c #090802",
"b. c #060601",
"n. c #716015",
"m. c #766724",
"M. c #74641D",
"N. c #796A2C",
"B. c #68570F",
"V. c #2C260B",
"C. c #5B4E12",
"Z. c #4F430B",
"A. c #29240B",
"S. c #4E4312",
"D. c #756622",
"F. c #766825",
"G. c #73631A",
"H. c #483D0E",
"J. c #010100",
"K. c #74631B",
"L. c #5B4E18",
"P. c #64561A",
"I. c #60500B",
"U. c #65550E",
"Y. c #625107",
"T. c #0A0902",
"R. c #2E2912",
"E. c #3F3402",
"W. c #3E3202",
"Q. c #4C400B",
"!. c #2B2711",
"~. c #3D3101",
"^. c #4B3F0B",
"/. c #332B07",
"(. c #423914",
"). c #413604",
"_. c #3A3004",
"`. c #2B2301",
"'. c #524302",
/* pixels */
"  . X X X X X X X X X X X X X X X X X X X o o o o o o X X X X X X X X X X X X X X X X X X X O   ",
".   + @ @ @ X X X X # @ @ @ $ X X X $ @ @ % % % % % % @ @ $ X X X $ @ @ @ $ X X X X @ @ @ + & . ",
"X + * = = = - - - - ; = = = : - - - : = = = = = = = = = = : - - - : = = = : - - - - = = = * > X ",
"X @ = , < < 1 < < 1 < < 1 < < 1 1 2 1 1 2 1 1 2 3 3 2 3 3 2 3 3 2 3 3 1 3 3 1 3 3 1 3 3 4 = o X ",
"X @ = < < < < 1 2 < 1 2 < 1 2 < 1 2 1 1 2 1 1 2 3 3 2 3 3 2 3 3 2 3 3 1 3 3 1 3 3 1 3 3 1 = o X ",
"X @ = < < < < 2 5 < 2 5 < 2 5 < 2 5 2 2 5 2 2 5 2 2 5 2 2 3 2 2 3 2 2 3 2 2 3 1 1 3 1 1 3 = o X ",
"X X - 1 < < 1 < < 1 < < 1 1 2 1 1 2 1 1 2 3 3 2 3 3 2 3 3 2 3 3 1 3 3 1 3 3 1 3 3 1 3 3 1 - X X ",
"X X - < 1 2 < 1 2 < 1 2 < 1 2 1 1 2 1 1 2 3 3 2 3 3 2 3 3 2 3 3 1 3 3 1 3 3 1 3 3 1 3 3 1 - X X ",
"X X - < 2 5 < 2 5 < 2 5 < 2 5 2 2 5 2 2 5 2 2 5 2 2 3 2 2 3 2 2 3 2 2 3 1 1 3 1 1 3 1 1 3 - X X ",
"X X - 1 < < 1 < < 1 1 2 1 1 2 1 1 2 3 3 2 3 3 2 3 3 2 3 3 1 3 3 1 3 3 1 3 3 1 3 3 1 6 6 1 - X X ",
"X # ; < 1 2 < 1 2 < 1 2 1 1 2 1 1 2 3 3 2 3 3 2 3 3 2 3 3 1 3 3 1 3 3 1 3 3 1 3 3 1 3 3 1 ; $ X ",
"X @ = < 2 5 < 2 5 < 2 5 2 2 5 2 2 5 2 2 5 2 2 3 2 2 3 2 2 3 2 2 3 1 1 3 1 1 3 1 1 3 1 1 3 = o X ",
"X @ = 1 < < 1 1 2 1 1 2 1 1 2 3 3 2 3 3 2 7 8 9 0 q w 3 3 1 3 3 1 3 3 1 3 3 1 6 6 1 6 6 1 = o X ",
"X @ = < 1 2 < 1 2 1 1 2 1 1 2 3 3 2 e e r t y u 0 * i p 3 1 3 3 1 3 3 1 3 3 1 3 3 1 3 3 a = o X ",
"X $ : < 2 5 < 2 5 2 2 5 2 2 5 2 2 5 s d f g g h j = k l z 3 1 1 3 1 1 3 1 1 3 1 1 3 1 1 6 : x X ",
"X X - 1 1 2 1 1 2 1 1 2 3 3 2 3 e s c c v b n m M i N B V C 3 3 1 3 3 1 6 6 1 6 6 1 6 6 1 - X X ",
"X X - < 1 2 1 1 2 1 1 2 3 3 2 3 e s c c v Z A S D F G H J K 3 3 1 3 3 1 3 3 1 3 3 a 3 3 a - X X ",
"X X - < 2 5 2 2 5 2 2 5 2 2 5 2 2 3 L v P G G G I I I H J U 1 1 3 1 1 3 1 1 3 1 1 6 1 1 6 - X X ",
"X $ : 1 1 2 1 1 2 3 3 2 3 3 2 3 3 2 Y Z T R E W W W R H H Q 3 3 1 6 6 1 6 6 1 6 6 1 6 6 a : x X ",
"X @ = 1 1 2 1 1 2 3 3 2 3 3 2 3 3 2 ! ~ I ^ / ( ( ( ^ H ) _ 3 3 1 3 3 1 3 3 a 3 3 a 3 3 a = o X ",
"X @ = 2 2 5 2 2 5 2 2 5 2 2 3 2 2 3 2 ` ' % ] [ [ [ j { _ 3 1 1 3 1 1 3 1 1 6 1 1 6 1 1 6 = o X ",
"o % = 1 1 2 3 3 2 3 3 2 3 3 2 3 3 1 } |  ...X.o.0 O.+.C U K 6 6 1 6 6 1 6 6 1 6 6 a 6 6 a = % o ",
"o % = 1 1 2 3 3 2 3 3 2 3 3 2 3 3 @.} | #.$.%.&.k U 4 *.U K =.3 1 3 3 a 3 3 a 3 3 a 3 3 a = % o ",
"o % = 2 2 5 2 2 5 2 2 3 2 2 3 2 2 %.2 2 -.;.:.o.0 >.,.+.1 3 <.1 3 1 1 6 1 1 6 1 1 6 1 1 6 = % o ",
"o % = 3 3 2 3 3 2 3 3 2 3 3 1 3 3 @...3 1 } } <.1.1.K 6 6 +.2.6 1 6 6 1 6 6 a 6 6 a 6 6 a = % o ",
"o % = 3 3 2 3 3 2 3 3 2 3 3 1 3 3 1 3.-.1 } } <.1.1.K 3 =., 3 3 a 3 3 a 3 3 a 3 3 a 6 6 a = % o ",
"o % = 2 2 5 2 2 3 2 2 3 2 2 3 2 2 3  .#.-.4.4.1.<.<.U +., C 1 1 6 1 1 6 1 1 6 1 1 6 3 3 6 = % o ",
"X @ = 3 3 2 3 3 2 3 3 1 3 3 1 3 3 1 3 3 5.6.} <.7.8.9.2.6 1 6 6 1 6 6 a 6 6 a 6 6 a 6 6 a = o X ",
"X @ = 3 3 2 3 3 2 3 3 1 3 3 1 3 3 1 3 3 1 &.} <.1.0.= 3 3 a 3 3 a 3 3 a 3 3 a 6 6 a 6 6 a = o X ",
"X $ : 2 2 3 2 2 3 2 2 3 2 2 3 1 1 3 1 1 3 &.4.1.<.q.= 1 1 6 1 1 6 1 1 6 1 1 6 3 3 6 3 3 6 : x X ",
"X X - 3 3 2 3 3 1 3 3 1 3 3 1 3 3 1 3 3 1 &.} <.7.w.= 6 6 1 6 6 a 6 6 a 6 6 a 6 6 a e.6 a - X X ",
"X X - 3 3 2 3 3 1 3 3 1 3 3 1 3 3 1 3 3 1 &.} <.1.0.= 3 3 a 3 3 a 3 3 a 6 6 a 6 6 a e.6 a - X X ",
"X X - 2 2 3 2 2 3 2 2 3 1 1 3 1 1 3 1 1 3 &.r.t.y.u.= 1 1 6 1 1 6 1 1 6 3 3 6 3 3 6 3 3 6 - X X ",
"X $ : 3 3 1 3 3 1 3 3 1 3 3 1 3 3 1 6 6 i.p.p.a.s.s.s.d.6 a 6 6 a 6 6 a 6 6 a e.6 a e.6 a : x X ",
"X @ = 3 3 1 3 3 1 3 3 1 3 3 1 3 3 1 f.f.g.p.p.a.s.s.s.h.f.j.3 3 a 6 6 a 6 6 a e.6 a e.6 a = o X ",
"X @ = 2 2 3 2 2 3 1 1 3 1 1 3 1 1 3 k.k.l.z.x.x.k.k.k.k.k.c.1 1 6 3 3 6 3 3 6 3 3 6 3 e.e.= o X ",
"X @ = v.v.6 v.v.6 b.b.6 b.b.6 b.b.6 n.n.m.M.N.N.n.n.n.n.n.B.b.b.a 6 6 a 6 6 a 6 6 a 6 e.e.= o X ",
"X $ : b.b.6 b.b.6 b.b.6 b.b.6 b.b.6 V.V.C.m.m.N.n.n.n.Z.V.A.b.b.a 6 6 a 6 6 a e.6 a e.6 a : x X ",
"X X - 6 6 b.6 6 b.6 6 b.6 6 b.6 6 b.a a S.D.D.F.G.G.G.H.a J.a a J.a a J.a a J.e.a J.e.a J.- X X ",
"X X - v.v.6 v.v.6 v.v.6 b.b.6 b.b.6 b.b.6 K.L.P.I.U.Y.b.b.a b.b.a b.b.a 6 6 a 6 6 a 6 6 a - X X ",
"X X - b.b.T.b.b.6 b.b.6 b.b.6 b.b.6 b.b.6 K.R.E.W.Q.Y.b.b.a b.b.a b.b.a 6 6 a 6 6 a e.6 a - X X ",
"X X - 6 6 v.6 6 b.6 6 b.6 6 b.6 6 b.6 6 b.K.!.W.~.^.Y.a a b.a a J.a a J.a a J.a a J.e.a J.- X X ",
"X @ = v.v.6 v.v.6 v.v.6 v.v.6 b.b.6 b.b.6 K.R.E.W.Q.Y.b.b.a b.b.a b.b.a b.b.a 6 6 a 6 6 a = o X ",
"X @ = b.b.T.b.b.T.b.b.6 b.b.6 b.b.6 b.b.6 K.R.E.W.Q.Y.b.b.a b.b.a b.b.a b.b.a 6 6 a 6 6 a = o X ",
"X @ = 2.6 v.6 6 v.6 6 b.6 6 b.6 6 b.6 6 /.(.!.W.~.)._.`.a b.a a b.a a J.a a J.a a J.a a '.= o X ",
"X + * = = = - - - - ; = = = : - - - : = = = = = = = = = = : - - - : = = = : - - - - = = = * > X ",
"O & > o o o X X X X $ o o o x X X X x o o % % % % % % o o x X X X x o o o x X X X X o o o >   O ",
"  . X X X X X X X X X X X X X X X X X X X o o o o o o X X X X X X X X X X X X X X X X X X X O   "
};
