/* XPM */
static char *result[] = {
/* columns rows colors chars-per-pixel */
"48 48 131 2 ",
"   c #5B3F0C",
".  c #463123",
"X  c #5E400F",
"o  c #5E460F",
"O  c #6A4B0B",
"+  c #6D4B0E",
"@  c #79530A",
"#  c #79530B",
"$  c #61411E",
"%  c #61421E",
"&  c #61441E",
"*  c #61451E",
"=  c #61461E",
"-  c #61471E",
";  c #61481E",
":  c #6F4F1C",
">  c #7B5119",
",  c #7B5219",
"<  c #7B5319",
"1  c #7B5719",
"2  c #7B581A",
"3  c #7B591A",
"4  c #7B5E1A",
"5  c #7B601A",
"6  c #594220",
"7  c #975E08",
"8  c #8B6D0D",
"9  c #9A610B",
"0  c #976A09",
"q  c #9A6D0C",
"w  c #9A710C",
"e  c #977809",
"r  c #A66707",
"t  c #A66D07",
"y  c #A67508",
"u  c #B7750E",
"i  c #C37A04",
"p  c #A68008",
"a  c #A68408",
"s  c #A9850B",
"d  c #A9880B",
"f  c #B7840F",
"g  c #CA920B",
"h  c #CA9B0B",
"j  c #D69A08",
"k  c #E18F02",
"l  c #E59005",
"z  c #C3A006",
"x  c #CAA30B",
"c  c #CAA60B",
"v  c #E5A607",
"b  c #FFA000",
"n  c #FFA100",
"m  c #FFA001",
"M  c #FFA101",
"N  c #FFA200",
"B  c #FFA300",
"V  c #FFA301",
"C  c #FFA400",
"Z  c #FFA401",
"A  c #FFA501",
"S  c #FFA601",
"D  c #FFA701",
"F  c #FFA801",
"G  c #FFA901",
"H  c #FFAB00",
"J  c #FFAA01",
"K  c #FFAB01",
"L  c #FFAD01",
"P  c #FFAF01",
"I  c #FFAD02",
"U  c #FFAF02",
"Y  c #FFA308",
"T  c #FFB001",
"R  c #FFB101",
"E  c #FFB201",
"W  c #FFB002",
"Q  c #FFB202",
"!  c #FFB302",
"~  c #FFB502",
"^  c #FFB602",
"/  c #FFB702",
"(  c #FFB802",
")  c #FFB902",
"_  c #FFBA02",
"`  c #FFBB02",
"'  c #FFBC02",
"]  c #FFBD02",
"[  c #FFBE02",
"{  c #FFBF02",
"}  c #FFB42A",
"|  c #FFB731",
" . c #FFBA31",
".. c #FFC002",
"X. c #FFC102",
"o. c #FFC302",
"O. c #FFC601",
"+. c #FFC402",
"@. c #FFC502",
"#. c #FFC602",
"$. c #FFC702",
"%. c #FFC802",
"&. c #FFC902",
"*. c #FFCA02",
"=. c #FFCB02",
"-. c #FFCD02",
";. c #FFCE02",
":. c #FFD002",
">. c #FFD102",
",. c #FFD202",
"<. c #FFD302",
"1. c #FFD402",
"2. c #FFD502",
"3. c #FFC72B",
"4. c #FFC92B",
"5. c #FFC932",
"6. c #FFBF43",
"7. c #FFC24A",
"8. c #FFD34A",
"9. c #FFD169",
"0. c #FFDC69",
"q. c #FFE592",
"w. c #FFE892",
"e. c #FFE899",
"r. c #FFEA99",
"t. c #FFEA9E",
"y. c #FFEC9E",
"u. c #FFEDA3",
"i. c #FFEEA3",
"p. c #FFF0AA",
"a. c None",
/* pixels */
"a.a.a.a.a.a.a.a.a.a.a.a.a.a.a.a.a.a.a.a.a.a.a.a.a.a.a.a.a.a.a.a.a.a.a.a.a.a.a.a.a.a.a.a.a.a.a.a.",
"a.a.a.a.a.a.a.a.a.a.a.a.a.a.a.a.a.a.a.a.a.a.a.a.a.a.a.a.a.a.a.a.a.a.a.a.a.a.a.a.a.a.a.a.a.a.a.a.",
"a.a.a.a.a.a.a.a.a.a.a.a.) @.>.>.>.>...*.>.' ) D Z Z Z Z Z Z D ! Z Z J ) a.a.a.a.a.a.a.a.a.a.a.a.",
"a.a.a.a.a.a.a.a.-.) a.a.a.) ` _ ' ] ] ] _ ) ) ) ^ ^ ^ ^ ^ ^ ^ ( ^ / ) a.a.a.>.X.a.a.a.a.a.a.a.a.",
"a.a.a.a.a.=.) ) a.) ) a.a.) $.X.-.2.2.2.] ) ) ) m m m m m m Z Q m I ) a.a.,.X.a.) ) ) a.a.a.a.a.",
"a.a.a.a.;.) a.a.a.a.a.) a.' $.X.-.2.2.2.] ) ) ) m m m m m m Z Q m I ( a.) a.a.a.a.a.] _ a.a.a.a.",
"a.a.a.a.) ) a.a.a.a.a.) @.@.$.X.-.2.2.2.] ) ) ) m m m m m m Z Q m I Q I ) a.a.a.a.a.2...a.a.a.a.",
"a.a.a.>.) a.a.a.a.a.a.) / / $.X.-.2.2.2.] ) ) ) m m m m m m Z Q m I ! U ) a.a.a.a.a.a.2.] a.a.a.",
"a.a.a.>.) a.a.a.a.a.a.) L L $.X.-.2.2.2.] ) ) 3.m m m m m m Z Q m I ) ) ) a.a.a.a.a.a.2.] a.a.a.",
"a.a.a.*.^ a.a.a.a.a.a.) P P $.X.-.2.2.2.] ) 5.r.| m m m m m Z Q m I ) ) ) a.a.a.a.a.a.-.^ a.a.a.",
"a.a.a.^ m a.a.a.a.a.a.) a.) $.X.-.2.2.;.' ! u.p.p.m m m m m Z Q m I ) a.) a.a.a.a.a.a.) Z a.a.a.",
"a.a.a.^ I a.a.a.a.a.a.) a.) $.X.-.2.&.4.5. .e.p.p.| | } m m Z Q m I ) a.a.a.a.a.a.a.a.) A a.a.a.",
"a.a.a.a.` a.a.a.a.a.a.a.a.) $.X.-.2.&.8.y.p.p.p.p.p.t.7.m m Z Q m I ) a.a.a.a.a.a.a.a.W a.a.a.a.",
"a.a.a.a.[ -.a.a.a.a.a.a.a.) $.X.-.2.2.&.8.y.p.p.p.t.7.m m m Z Q m I ) a.a.a.a.a.a.a.$.J a.a.a.a.",
"a.a.a.a.a.' 2.a.a.a.a.a.a.) $.X.-.2.2.2.] w.p.p.p.q.m m m m Z Q m I ) a.a.a.a.a.a.a.) a.a.a.a.a.",
"a.a.a.a.a.a.o.2.a.a.a.a.a.) $.X.-.2.2.+.0.i.| | | u.9.m m m Z Q A ~ ) a.a.a.a.a.a.[ a.a.a.a.a.a.",
"a.a.a.a.a.a.a.X.a.a.a.a.a.) ] ` -.2.2.] w.| U Q m 6.q.m m m Z Q D ) ) a.a.a.a.a.$.a.a.a.a.a.a.a.",
"a.a.a.a.a.a.a.) ) a.a.a.a.a.) ) -.2.2.;.4.Q ( ) m Y } m m m Z Q D ) a.a.a.a.a.) ) a.a.a.a.a.a.a.",
"a.a.a.a.a.a.a.a.) ) a.a.a.a.) ) -.2.2.2.] ) ) ) m m m m m m Z Q D ) a.a.a.a.2...a.a.a.a.a.a.a.a.",
"a.a.a.a.a.a.a.a.a.{ 2.a.a.a.) ) -.2.2.2.] ) ) ) m m m m m m Z Q D ) a.a.a.2.o.a.a.a.a.a.a.a.a.a.",
"a.a.a.a.a.a.a.a.a.a.' a.a.a.) ) -.2.2.2.] ) ) ) m m m m m m S ^ / ) a.a.a.' ` a.a.a.a.a.a.a.a.a.",
"a.a.a.a.a.a.a.a.a.a.) ) a.a.a.) ' ] ] ] _ ) ) ) m m m m m m D ) ) a.a.a.) ) a.a.a.a.a.a.a.a.a.a.",
"a.a.a.a.a.a.a.a.a.a.a.a.) ) a.) J ! J ! D Z ^ D m m m m m m m D ) ) ) ) a.a.a.a.a.a.a.a.a.a.a.a.",
"a.a.a.a.a.a.a.a.a.a.a.a.a.a.) ) ) D U ( Z m V m m m m m m m S / Q M a.a.a.a.a.a.a.a.a.a.a.a.a.a.",
"a.a.a.a.a.a.a.a.a.a.a.a.a.a.a.m Q ) Z U ) Z m m m m m m m Z ) Q m a.a.a.a.a.a.a.a.a.a.a.a.a.a.a.",
"a.a.a.a.a.a.a.a.a.a.a.a.a.a.a.m a.) ) D ! V m m m m m m Z ) ) a.m a.a.a.a.a.a.a.a.a.a.a.a.a.a.a.",
"a.a.a.a.a.a.a.a.a.a.a.a.a.a.) a.a.a.) ) D m m m m m m D ) ) a.a.m m a.a.a.a.a.a.a.a.a.a.a.a.a.a.",
"a.a.a.a.a.a.a.a.a.a.a.a.a.a.a.a.a.a.a.) ) D m m m m D ) ) a.a.a.a.a.a.a.a.a.a.a.a.a.a.a.a.a.a.a.",
"a.a.a.a.a.a.a.a.a.a.a.a.a.a.a.a.a.a.a.a.) ^ V m m V ^ ) a.a.a.a.a.a.a.a.a.a.a.a.a.a.a.a.a.a.a.a.",
"a.a.a.a.a.a.a.a.a.a.a.a.a.a.a.a.a.a.a.a.a.D F Z F Z Z a.a.a.a.a.a.a.a.a.a.a.a.a.a.a.a.a.a.a.a.a.",
"a.a.a.a.a.a.a.a.a.a.a.a.a.a.a.a.a.a.a.a.) =.-.^ O.^ ) ) a.a.a.a.a.a.a.a.a.a.a.a.a.a.a.a.a.a.a.a.",
"a.a.a.a.a.a.a.a.a.a.a.a.a.a.a.a.a.a.a.a.a.) ) D b G ) a.a.a.a.a.a.a.a.a.a.a.a.a.a.a.a.a.a.a.a.a.",
"a.a.a.a.a.a.a.a.a.a.a.a.a.a.a.a.a.a.a.a.a.a.) X.b R a.a.a.a.a.a.a.a.a.a.a.a.a.a.a.a.a.a.a.a.a.a.",
"a.a.a.a.a.a.a.a.a.a.a.a.a.a.a.a.a.a.a.a.a.a.) 2.b D a.a.a.a.a.a.a.a.a.a.a.a.a.a.a.a.a.a.a.a.a.a.",
"a.a.a.a.a.a.a.a.a.a.a.a.a.a.a.a.a.a.a.a.a.a.) -.b ) a.a.a.a.a.a.a.a.a.a.a.a.a.a.a.a.a.a.a.a.a.a.",
"a.a.a.a.a.a.a.a.a.a.a.a.a.a.a.a.a.a.a.a.a.a.@.) b P a.a.a.a.a.a.a.a.a.a.a.a.a.a.a.a.a.a.a.a.a.a.",
"a.a.a.a.a.a.a.a.a.a.a.a.a.a.a.a.a.a.a.a.a.#.$.) L B E a.a.a.a.a.a.a.a.a.a.a.a.a.a.a.a.a.a.a.a.a.",
"a.a.a.a.a.a.a.a.a.a.a.a.a.a.a.a.a.a.a.>.%.$.$.) L b C / C a.a.a.a.a.a.a.a.a.a.a.a.a.a.a.a.a.a.a.",
"a.a.a.a.a.a.a.a.a.a.a.a.a.a.a.a.a.a.#.$.<.&.@.) b E N L L T a.a.a.a.a.a.a.a.a.a.a.a.a.a.a.a.a.a.",
"a.a.a.a.a.a.a.a.a.a.a.a.a.a.a.a.) &.o.%.1.+.) ) E J P n G R K ) a.a.a.a.a.a.a.a.a.a.a.a.a.a.a.a.",
"a.a.a.a.a.a.a.a.a.a.a.a.a.a.a.. : 4 3 4 5 3 2 2 2 , 1 > , 1 < : . a.a.a.a.a.a.a.a.a.a.a.a.a.a.a.",
"a.a.a.a.a.a.a.a.a.a.a.a.a.a.. . . . . . . . . . . . . . . . . . . . a.a.a.a.a.a.a.a.a.a.a.a.a.a.",
"a.a.a.a.a.a.a.a.a.a.a.a.a.a.. . f v 8 w s o d X + q + j 9 9 l u . . a.a.a.a.a.a.a.a.a.a.a.a.a.a.",
"a.a.a.a.a.a.a.a.a.a.a.a.a.a.. . g $.#   1.e ..0 ) 0 @ k 7 7 H h . . a.a.a.a.a.a.a.a.a.a.a.a.a.a.",
"a.a.a.a.a.a.a.a.a.a.a.a.a.a.. . x o.p a z O _ y ) y k i r t :.c . . a.a.a.a.a.a.a.a.a.a.a.a.a.a.",
"a.a.a.a.a.a.a.a.a.a.a.a.a.a.. . 6 = - ; ; * & & & & $ $ $ % ; 6 . . a.a.a.a.a.a.a.a.a.a.a.a.a.a.",
"a.a.a.a.a.a.a.a.a.a.a.a.a.a.. . . . . . . . . . . . . . . . . . . . a.a.a.a.a.a.a.a.a.a.a.a.a.a.",
"a.a.a.a.a.a.a.a.a.a.a.a.a.a.a.a.a.a.a.a.a.a.a.a.a.a.a.a.a.a.a.a.a.a.a.a.a.a.a.a.a.a.a.a.a.a.a.a."
};
