/* XPM */
static char *result[] = {
/* columns rows colors chars-per-pixel */
"32 32 34 1 ",
"  c #386D4D",
". c #417C49",
"X c #559A40",
"o c #66A444",
"O c #6EA945",
"+ c #40724F",
"@ c #517D53",
"# c #659A4A",
"$ c #437954",
"% c #3C7755",
"& c #5D9F42",
"* c #5B8C4E",
"= c #88B94B",
"- c #A1C850",
"; c #99C34E",
": c #90BE4C",
"> c #7FB449",
", c #316646",
"< c #568749",
"1 c #669E47",
"2 c #498942",
"3 c #4A7C48",
"4 c #7CA74D",
"5 c #95BD4F",
"6 c #519441",
"7 c #559443",
"8 c #3D7147",
"9 c #4E8248",
"0 c #3D7744",
"q c #4D8E41",
"w c #397245",
"e c #528747",
"r c #356C45",
"t c #458343",
/* pixels */
"  .XXoOO  +@@#OOOO#@@$%%XX&OO*@@",
"XXXXX=--XXO----------OXXXXO-----",
"XXXXX=--XXO----------OXXXXO-----",
"=====;--==:----------:====:-----",
"--------------------------------",
"--------------------------------",
"--------------------------------",
"--------------------------------",
"--------==:-------;=====--------",
"--------XXO-------=XXXXX--------",
"--------XXO-------=XXXXX--------",
"----->OO==:-------;=====OO>-->OO",
"-----OXX----------------XXO--OXX",
"-----OXX----------------XXO--OXX",
"-----OXX-----OXX,,<-----XXXXXXXX",
"-----OXX-----OXX,,<-----XXXXXXXX",
"==:--122--;==oXX,,3445--222226XX",
"XXO--<,,--=XXXXX,,,,,4--,,,,,2XX",
"XXO--<,,--=XXXXX,,,,,4--,,,,,2XX",
"XX7<<8,,<<900qXX,,w22e<<,,,,,w00",
"XX2,,,,,,,,,,2XX,,0XX0,,,,,,,,,,",
"XX2,,,,,,,,,,2XX,,0XX0,,,,,,,,,,",
",,,,,2XXXX2,,,,,XXXXX0,,XXXXX0,,",
",,,,,2XXXX2,,,,,XXXXX0,,XXXXX0,,",
"00w,,2XXXXq00r,,XXXXX0,,XXXXXt00",
"XX2,,2XXXXXXX0,,XXXXX0,,XXXXXXXX",
"XX2,,2XXXXXXX0,,XXXXX0,,XXXXXXXX",
"00w,,w00XXXXX0,,XXq00r,,00tXXXXX",
",,,,,,,,XXXXX0,,XX2,,,,,,,0XXXXX",
",,,,,,,,XXXXX0,,XX2,,,,,,,0XXXXX",
",,,,,,,,,,0XX0,,,,,,,,,,,,,,,2XX",
",,,,,,,,,,0XX0,,,,,,,,,,,,,,,2XX"
};
