/* XPM */
static char *result[] = {
/* columns rows colors chars-per-pixel */
"48 48 41 1 ",
"  c #1E1710",
". c #241B14",
"X c #291E17",
"o c #2A1F18",
"O c #2D2119",
"+ c #33251C",
"@ c #36281E",
"# c #382A1F",
"$ c #362921",
"% c #3B2D22",
"& c #3E3026",
"* c #3F3228",
"= c #423226",
"- c #443529",
"; c #483729",
": c #47382C",
"> c #4B3A2D",
", c #513E2F",
"< c #4D3E31",
"1 c #523F30",
"2 c #4F4033",
"3 c #544133",
"4 c #5A4535",
"5 c #5F4937",
"6 c #564639",
"7 c #594739",
"8 c #5D4A3B",
"9 c #634C3B",
"0 c #684F3D",
"q c #66503D",
"w c #6A513E",
"e c #614F40",
"r c #655242",
"t c #6B5542",
"y c #6C5845",
"u c #6D5949",
"i c #705742",
"p c #725944",
"a c #745D49",
"s c #77604C",
"d c #79604C",
/* pixels */
"ttddaqww9qwwwwwu65599944333,545w1--==$@#=;>-;:$1",
"33qiw99q40q4509w23,>33,,3;==,,44:oOOOOoo+o+++X.+",
"605q9090qw935wwi33334;>3,;;;,445:o+++o+oooo+$@X@",
"800994999w4,490w4,,45434,;;;,490:+@$@O+@$+@+++o-",
"09w095095qq59twr43>3942342>;3355:$+$@+$$%@%$$$+-",
"8485449977555wqr3>>33333423;3,451-*%%---==-&==$<",
"*&&====38::::22>:&&**&=8p34223431476164r1-&&=&$%",
"    .  +&OOOOOOOO...OOO&5##+#%==$%=-=%-6$.      ",
"   ... O$OOOO+O.OOOOOX.#2O++##==%=%===-1$o.o    ",
"  ...  O+.O.OOO. O OOO.+2##+%%=&$$$%==-3$X.o... ",
"  .    O%. .OOO.   O.O.@;+++%%=%$+o$@%=4$.. ....",
"*%&&*$%=2**%*-:%&$#%%&%;8=&&2322::=&=;1e<&$%%===",
"u88qq8058r049qqq63339545443;3qwq886;190te044999t",
"sqqwww098q045q0u733353453>>;39q5541->199ri94,990",
"aqwp0q045q9,3tiy9>;344442=333qq9841;;19990t4199t",
"uq9pt94339434tdd9439454442954www091;,4111004100r",
"uw7wp9973,3>39wdw59w74353453559qe11;,11;>1411194",
"u85qu5377q73689r437q53373373778we74<1461>1<1-;1e",
"<>333>>3uspt09994435q4557;*;34qq0991149e1:-=%%;1",
"-*==&&;35wiiw99,333343392=%&-233141>:<19=%%%+++%",
"&%&&%@&38qwt00w43334ww4q333;;,3,1941;<49:&$$+++$",
"##O@%OO3uwwwtww0959wwqqp7-;33;341841135e:-%++$%+",
"#&O+$O.:ytppppat0w9tpw4q7;;=;>,41114449r-%%%=%%%",
"23&&:&%3u8rturerwwqrdt88t32>>>2;1874eeea7<<<16<;",
"56832-=<3377886re338983<>2;;;:256:<<<1166111666r",
";%=-%+O+%#$=--%1>&&=-%##&#+#O+&>-OO$%%@$$%%@OOO<",
"2=#%&%@O@=%==;%=-&==><===;&###*2:+%$%%%%%$$%$$o=",
"==##@@@%@$%$$%=%+O%#=,>,;=>&&%&:&oO+Ooo+$Oo+$Oo&",
"%-=%@@%@+%$$%@@:&+O+%;;-;=-=##%>-oO++Ooo$+o+ooo-",
">;>>-=-=%%---&&<>&%&&>---:>>;=&2<&&%%%$$%====$%1",
"687r83482-<>:><:---->22ru8rt88584487486e8r88r114",
";>>41->3:O%%@+%$++@+%&%8r35534454111454e11114;>>",
">3,93,,3=@%=$#==%%%%&=%6e1441999114499991>111;;1",
",3194433-@%===%==%%%%%%16<141199919119991>111;=1",
"=;4144981$-===%%%%%%$$%<<-;11>1411111<4r4<>11==,",
"%=4448998><<>>1<:;<<1<;76%-:<<<11>>,111e71<><==1",
"<$;1<34<<111<13e964855655<;-<11:;=%%=-==:1:--&&1",
"-$%%%-==%%-=%%-85114141>1;==;;<1%X+OO++@%%$%%Oo-",
"=+%%$%-=-%-=-%%65111495141>>-;11=O+OO+++%%%&=Oo=",
"-+%=====%-%$=-%1511444959111,;14%O$$$+++$=%%=%o-",
"&O++$@#@$$$++%$><1134>1441>99>19&o+$O$+$O$$%=&O=",
"3=--:---:;<:=-<8113163189848e8rp6=;:--:<:>1111:6",
"98499444745544791493111r3:>>>11,--;;::1ere9rr448",
"93353,408,1134981,1441;8%$##%%=$$$$$+$&195114111",
"3,,03;4p9>,,,494494094<r=%=$#%=%%$%%++%49491114,",
"3999943tq93434434149944e*$#$#@%=%%@$%$%191111111",
"99994,39839993141141,>15+O+@%#&=%%$+$$$11009994,",
"1>348><88>331,,;=<<1;=%3%+O+##=$@%=%%%$8811>,1;;"
};
