/* XPM */
static char *result[] = {
/* columns rows colors chars-per-pixel */
"48 48 183 2 ",
"   c #0E0503",
".  c #1A0B00",
"X  c #1F1A09",
"o  c #281A0E",
"O  c #251C13",
"+  c #301B10",
"@  c #2F270F",
"#  c #2C2416",
"$  c #332215",
"%  c #332C13",
"&  c #3B2C16",
"*  c #31251F",
"=  c #33291B",
"-  c #3C2C1C",
";  c #3D3019",
":  c #362523",
">  c #362C21",
",  c #3B2A21",
"<  c #3A2F28",
"1  c #353026",
"2  c #3D3423",
"3  c #3E3926",
"4  c #34352D",
"5  c #38342C",
"6  c #452E18",
"7  c #463017",
"8  c #45331B",
"9  c #4A361B",
"0  c #44381F",
"q  c #523E19",
"w  c #432D22",
"e  c #423425",
"r  c #4C3124",
"t  c #453923",
"y  c #4E3B25",
"u  c #44342A",
"i  c #453B29",
"p  c #4B3E2C",
"a  c #543C26",
"s  c #593C22",
"d  c #533D2C",
"f  c #423E32",
"g  c #483B34",
"h  c #45393A",
"j  c #4D3D3A",
"k  c #553D32",
"l  c #56471D",
"z  c #5C411D",
"x  c #624819",
"c  c #42402B",
"v  c #4E432D",
"b  c #4E482D",
"n  c #54422D",
"m  c #594329",
"M  c #554829",
"N  c #5B4A2E",
"B  c #534224",
"V  c #444336",
"C  c #4C4434",
"Z  c #4E433C",
"A  c #534435",
"S  c #564A33",
"D  c #5A4933",
"F  c #54473B",
"G  c #564A3B",
"H  c #594E3A",
"J  c #555039",
"K  c #5C533D",
"L  c #624D25",
"P  c #694C26",
"I  c #674728",
"U  c #62482C",
"Y  c #6B4B2B",
"T  c #60532F",
"R  c #715925",
"E  c #70562B",
"W  c #614630",
"Q  c #654E33",
"!  c #684D33",
"~  c #664E39",
"^  c #6D4D3B",
"/  c #645334",
"(  c #6A5434",
")  c #65543B",
"_  c #6B543D",
"`  c #6C5B3E",
"'  c #735532",
"]  c #775E37",
"[  c #735D3E",
"{  c #7C5D3A",
"}  c #726131",
"|  c #7E6237",
" . c #74623C",
".. c #7D653C",
"X. c #504540",
"o. c #594D43",
"O. c #5C5444",
"+. c #655444",
"@. c #655842",
"#. c #6C5C44",
"$. c #64594A",
"%. c #6C5A4A",
"&. c #735B43",
"*. c #7A5C44",
"=. c #666147",
"-. c #6F674D",
";. c #746243",
":. c #7C6542",
">. c #7E6A41",
",. c #7C684A",
"<. c #7E714E",
"1. c #7D6C51",
"2. c #836336",
"3. c #81653E",
"4. c #8B7339",
"5. c #846545",
"6. c #896242",
"7. c #836C44",
"8. c #876749",
"9. c #856E4A",
"0. c #8D6E4C",
"q. c #8C7044",
"w. c #84744E",
"e. c #8C724C",
"r. c #847342",
"t. c #937C45",
"y. c #91744D",
"u. c #927A4E",
"i. c #997A4A",
"p. c #9B7D44",
"a. c #866E51",
"s. c #8E7551",
"d. c #977A53",
"f. c #9A7D53",
"g. c #9A7E5B",
"h. c #A37F58",
"j. c #928255",
"k. c #9D8454",
"l. c #9C8358",
"z. c #9B8A5C",
"x. c #A2864C",
"c. c #A68655",
"v. c #A0865D",
"b. c #A58A5B",
"n. c #A8885A",
"m. c #A88A55",
"M. c #B08756",
"N. c #B38E5D",
"B. c #B19057",
"V. c #B6955A",
"C. c #BB965C",
"Z. c #B49B5C",
"A. c #BC9C5C",
"S. c #948162",
"D. c #9D8861",
"F. c #A08060",
"G. c #A58C62",
"H. c #AD8D60",
"J. c #A48E68",
"K. c #B98F68",
"L. c #A49164",
"P. c #AB9163",
"I. c #AC9965",
"U. c #AC9569",
"Y. c #AF9B69",
"T. c #B49462",
"R. c #BA9363",
"E. c #B39C64",
"W. c #BC9B64",
"Q. c #B5976D",
"!. c #BB966B",
"~. c #B49B6B",
"^. c #BC9B6A",
"/. c #AA9C75",
"(. c #B39A7A",
"). c #B7A067",
"_. c #BEA166",
"`. c #B9A068",
"'. c #C29A56",
"]. c #C2995C",
"[. c #C29A63",
"{. c #C09B69",
"}. c None",
/* pixels */
"}.}.}.}.}.}.}.}.}.}.}.}.}.}.}.}.}.}.}.}.}.}.}.}.}.}.}.}.}.}.}.}.O H +.e }.}.}.}.}.}.}.}.}.}.}.}.",
"}.}.}.}.}.}.}.}.}.}.}.}.}.}.}.}.}.}.}.}.}.}.}.}.}.}.}.}.}.}.- ;.U.W.^.W.d.e }.}.}.> %.&._ t }.}.",
"}.}.}.}.}.}.}.}.}.}.}.}.}.}.}.}.}.}.}.}.}.}.}.}.}.}.}.}.}.- P.~.E e.G.W.W.E.i }.u J.E.W.^.m.t }.",
"}.}.}.}.}.}.}.}.}.}.}.}.}.}.}.}.}.}.}.}.}.}.}.}.}.}.}.}., L.Z.P ;.O.5 n 0.!.U.$ ;.W.4.n e.A.k.}.",
"}.}.}.}.}.}.}.}.}.}.}.}.}.}.}.}.}.}.}.}.}.}.}.}.}.}.}.}.[ W.R #.}.}.}.}.}.5.W.{ ..l.}.}.G l.W.%.",
"}.}.}.}.}.}.}.}.}.}.}.}.}.}.}.}.}.}.}.}.}.}.}.}.}.}.}.$ b.Z.7.g }.}.}.}.}.@ P.V.( 7.}.}.}.y.^.%.",
"}.}.}.}.}.}.}.}.}.}.}.}.}.}.}.}.}.}.}.}.}.}.}.}.}.}.}.e ^.V. .}.}.}.}.}.o % s.^.L I.N . y !.T.A ",
"}.}.}.}.}.}.}.}.}.}.}.}.}.}.}.}.}.}.}.}.}.}.}.}.}.}.}./ ^.{.n }.}.}.}./ T.M.R.^.r :.E.Z.{.!.N }.",
"}.}.}.}.}.}.}.}.}.}.}.}.}.}.}.}.}.}.}.}.}.}.}.}.}.}.}.@.W.{.$.}.}.}.Z v.].].R.] + M l B 6.n }.}.",
"}.}.}.}.}.}.}.}.}.}.}.}.}.}.}.}.}.}.}.}.}.}.}.}.}.}.}.@.W.{.F }.}.}.}.;.^._.' 5.W.W.^.P.^ g }.}.",
"}.}.}.}.}.}.}.}.}.}.}.}.}.}.}.}.}.}.}.}.}.}.}.}.}.}.}.K W.R.}.}.}.}.J a 9 7 ] W.W.{ } Y.^.s.o.}.",
"}.}.}.}.}.}.}.}.}.}.}.}.}.}.}.}.}.}.}.}.}.}.}.}.}.}.}.A ^.c.}.}.}.C ).d.l.y G.A.[.d }.0 n.W. .}.",
"}.}.}.}.}.}.}.}.}.}.}.}.}.}.}.}.}.}.}.}.}.}.}.}.}.}.}.= ~.i.}.}.}.%.A.].[./ e.W.^.A }.}.y W.~.S ",
"}.}.}.}.}.}.}.}.}.}.}.}.}.}.}.}.}.}.}.}.}.}.}.}.}.}.}.  E.q.}.}.}.- P.'.A.L.- d p }.}.}.}.u.^.U ",
"}.}.}.}.}.}.}.}.}.}.}.}.}.}.}.}.}.}.}.}.}.}.}.}.}.}.}.= P.2.}.}.}.}.p 7...b }.}.}.}.}.}.}.7.].{ ",
"}.}.}.}.}.}.}.}.}.}.}.}.}.}.}.}.}.}.}.}.}.}.}.}.}.}.}.}.l.E }.}.}.}.}.}.}.}.}.}.}.}.}.}.1 b.p./ ",
"}.}.}.}.}.}.}.}.}.}.}.}.}.}.}.}.}.}.}.}.}.}.}.}.}.;.w.& e.k }.}.}.}.}.}.}.}.}.}.}.}.}.}. .^...H ",
"}.}.}.}.}.}.}.}.}.}.}.}.}.}.}.}.}.}.}.}.}.}.}.}., W.'.R.!.K }.}.}.}.}.}.}.}.}.}.}.o D 9.^.3.1.}.",
"}.}.}.}.}.}.}.}.}.}.}.}.}.}.}.}.}.}.}.}.}.}.}.}.}.9.W.A.d.O K ;.#.;.&._ ~ _ *.5.e.b.`.W.2.a.g }.",
"}.}.}.}.}.}.}.}.}.}.}.}.}.}.}.}.}.}.}.}.}.}.}.}.}.* n Q k P.b.D.E.^.^.^.^.^.!.{.!.i.E L ,.g }.}.",
"}.}.}.}.}.}.}.}.}.}.}.}.}.}.}.}.}.}.}.}.}.t #.p # ` [ 7 g.].N.w }.%.) v / r.k.k.e.:.) C }.}.}.}.",
"}.}.}.}.}.}.}.}.}.}.}.}.}.}.}.}.}.}.}.}.;.Q.W.[.c.^.t./ ,.].].b }.}.}.}.}.}.}.}.}.}.}.}.}.}.}.}.",
"}.}.}.}.}.}.}.}.}.}.}.}.}.}.}.}.}.}.}.( ^.^.m.A.].A.t.2 4 f.W.p }.}.}.}.}.}.}.}.}.}.}.}.}.}.}.}.",
"}.}.}.}.}.}.}.}.}.}.}.}.}.}.}.}.}.}.u E.E.N }.e H.W.m }.}.}.A }.}.}.}.}.}.}.}.}.}.}.}.}.}.}.}.}.",
"}.}.}.}.}.}.}.}.}.}.}.}.}.}.}.}.}.}.*.^.Q }.}.}.&.).r.}.}.}.}.}.}.}.}.}.}.}.}.}.}.}.}.}.}.}.}.}.",
"}.}.}.}.}.}.}.}.}.}.}.}.}.}.}.}.}.% Z.~.k }.}.}...W.9.}.}.}.}.}.}.}.}.}.}.}.}.}.}.}.}.}.}.}.}.}.",
"}.}.}.}.}.}.}.}.}.}.}.}.}.}.}.}.}.#.).} }.}.w &.T.`.D }.}.}.}.}.}.}.}.}.}.}.}.}.}.}.}.}.}.}.}.}.",
"}.}.}.}.}.}.}.}.}.}.}.}.}.}.}.}.}.d.^.7 _ 8.V.{.Q.m }.}.}.}.}.}.}.}.}.}.}.}.}.}.}.}.}.}.}.}.}.}.",
"}.}.}.}.}.}.}.}.}.}.}.}.}.}.}.}.i E.'.[.^.W.E.( v }.}.}.}.}.}.}.}.}.}.}.}.}.}.}.}.}.}.}.}.}.}.}.",
"}.}.}.}.}.}.}.}.}.}.}.}.}.-.) e >.x.[.Q.:.S g }.}.}.}.}.}.}.}.}.}.}.}.}.}.}.}.}.}.}.}.}.}.}.}.}.",
"}.}.}.}.}.}.}.}.}.}.}.}.# /.~.Y U l.D }.}.}.}.}.}.}.}.}.}.}.}.}.}.}.}.}.}.}.}.}.}.}.}.}.}.}.}.}.",
"}.}.}.}.}.}.}.}.}.}.}.}.}.9 W.{.m i }.}.}.}.}.}.}.}.}.}.}.}.}.}.}.}.}.}.}.}.}.}.}.}.}.}.}.}.}.}.",
"}.}.}.}.}.}.}.}.}.c =.> ) j.x W.^.B }.}.}.}.}.}.}.}.}.}.}.}.}.}.}.}.}.}.}.}.}.}.}.}.}.}.}.}.}.}.",
"}.}.}.}.}.}.}.}.}.+.^.n.s ~.9.D (.p }.}.}.}.}.}.}.}.}.}.}.}.}.}.}.}.}.}.}.}.}.}.}.}.}.}.}.}.}.}.",
"}.}.}.}.}.}.}.}.}.: d.].c.q 2 }.G }.}.}.}.}.}.}.}.}.}.}.}.}.}.}.}.}.}.}.}.}.}.}.}.}.}.}.}.}.}.}.",
"}.}.}.}.}.}.}.}.f K 7 h.W.j.X.}.}.}.}.}.}.}.}.}.}.}.}.}.}.}.}.}.}.}.}.}.}.}.}.}.}.}.}.}.}.}.}.}.",
"}.}.}.}.}.}.}.C [ 4.5.w z.I.+.}.}.}.}.}.}.}.}.}.}.}.}.}.}.}.}.}.}.}.}.}.}.}.}.}.}.}.}.}.}.}.}.}.",
"}.}.}.}.}.}.p z.A._.:.j F K }.}.}.}.}.}.}.}.}.}.}.}.}.}.}.}.}.}.}.}.}.}.}.}.}.}.}.}.}.}.}.}.}.}.",
"}.}.}.}.}.y v.{.W.[ % }.}.}.}.}.}.}.}.}.}.}.}.}.}.}.}.}.}.}.}.}.}.}.}.}.}.}.}.}.}.}.}.}.}.}.}.}.",
"}.}.}.}.i G.W.'.' Q M 2 }.}.}.}.}.}.}.}.}.}.}.}.}.}.}.}.}.}.}.}.}.}.}.}.}.}.}.}.}.}.}.}.}.}.}.}.",
"}.}.}.0 P.[.{.U q.n.V.G.t }.}.}.}.}.}.}.}.}.}.}.}.}.}.}.}.}.}.}.}.}.}.}.}.}.}.}.}.}.}.}.}.}.}.}.",
"}.}.a P.A.^.I t.Z.!.[.A.z.Z }.}.}.}.}.}.}.}.}.}.}.}.}.}.}.}.}.}.}.}.}.}.}.}.}.}.}.}.}.}.}.}.}.}.",
"}.D R.'.A.z i.W.z.r 8.^.w.h }.}.}.}.}.}.}.}.}.}.}.}.}.}.}.}.}.}.}.}.}.}.}.}.}.}.}.}.}.}.}.}.}.}.",
"4 Y.A.W.q u.^.f.5 }.}.H 3 }.}.}.}.}.}.}.}.}.}.}.}.}.}.}.}.}.}.}.}.}.}.}.}.}.}.}.}.}.}.}.}.}.}.}.",
"}.( T.2 t c.[.9.}.}.}.}.}.}.}.}.}.}.}.}.}.}.}.}.}.}.}.}.}.}.}.}.}.}.}.}.}.}.}.}.}.}.}.}.}.}.}.}.",
"}.}.u }.f d.^.G.V }.}.}.}.}.}.}.}.}.}.}.}.}.}.}.}.}.}.}.}.}.}.}.}.}.}.}.}.}.}.}.}.}.}.}.}.}.}.}.",
"}.}.}.}.}.v <.i }.}.}.}.}.}.}.}.}.}.}.}.}.}.}.}.}.}.}.}.}.}.}.}.}.}.}.}.}.}.}.}.}.}.}.}.}.}.}.}.",
"}.}.}.}.}.}.}.}.}.}.}.}.}.}.}.}.}.}.}.}.}.}.}.}.}.}.}.}.}.}.}.}.}.}.}.}.}.}.}.}.}.}.}.}.}.}.}.}."
};
