/* XPM */
static char *result[] = {
/* columns rows colors chars-per-pixel */
"48 48 5 1 ",
"  c #295754",
". c #559A40",
"X c #2F655F",
"o c #A1C850",
"O c #316646",
/* pixels */
"    ........        ........    XXXX........    ",
"........oooo....oooooooooooooooo........oooooooo",
"........oooo....oooooooooooooooo........oooooooo",
"........oooo....oooooooooooooooo........oooooooo",
"........oooo....oooooooooooooooo........oooooooo",
"oooooooooooooooooooooooooooooooooooooooooooooooo",
"oooooooooooooooooooooooooooooooooooooooooooooooo",
"oooooooooooooooooooooooooooooooooooooooooooooooo",
"oooooooooooooooooooooooooooooooooooooooooooooooo",
"oooooooooooooooooooooooooooooooooooooooooooooooo",
"oooooooooooooooooooooooooooooooooooooooooooooooo",
"oooooooooooooooooooooooooooooooooooooooooooooooo",
"oooooooooooooooooooooooooooooooooooooooooooooooo",
"oooooooooooo....oooooooooooo........oooooooooooo",
"oooooooooooo....oooooooooooo........oooooooooooo",
"oooooooooooo....oooooooooooo........oooooooooooo",
"oooooooooooo....oooooooooooo........oooooooooooo",
"oooooooo....oooooooooooooooooooooooo....oooo....",
"oooooooo....oooooooooooooooooooooooo....oooo....",
"oooooooo....oooooooooooooooooooooooo....oooo....",
"oooooooo....oooooooooooooooooooooooo....oooo....",
"oooooooo....oooooooo....OOOOoooooooo............",
"oooooooo....oooooooo....OOOOoooooooo............",
"oooooooo....oooooooo....OOOOoooooooo............",
"oooooooo....oooooooo....OOOOoooooooo............",
"....ooooOOOOoooo........OOOOOOOOooooOOOOOOOO....",
"....ooooOOOOoooo........OOOOOOOOooooOOOOOOOO....",
"....ooooOOOOoooo........OOOOOOOOooooOOOOOOOO....",
"....ooooOOOOoooo........OOOOOOOOooooOOOOOOOO....",
"....OOOOOOOOOOOOOOOO....OOOO....OOOOOOOOOOOOOOOO",
"....OOOOOOOOOOOOOOOO....OOOO....OOOOOOOOOOOOOOOO",
"....OOOOOOOOOOOOOOOO....OOOO....OOOOOOOOOOOOOOOO",
"....OOOOOOOOOOOOOOOO....OOOO....OOOOOOOOOOOOOOOO",
"OOOOOOOO........OOOOOOOO........OOOO........OOOO",
"OOOOOOOO........OOOOOOOO........OOOO........OOOO",
"OOOOOOOO........OOOOOOOO........OOOO........OOOO",
"OOOOOOOO........OOOOOOOO........OOOO........OOOO",
"....OOOO............OOOO........OOOO............",
"....OOOO............OOOO........OOOO............",
"....OOOO............OOOO........OOOO............",
"....OOOO............OOOO........OOOO............",
"OOOOOOOOOOOO........OOOO....OOOOOOOOOOOO........",
"OOOOOOOOOOOO........OOOO....OOOOOOOOOOOO........",
"OOOOOOOOOOOO........OOOO....OOOOOOOOOOOO........",
"OOOOOOOOOOOO........OOOO....OOOOOOOOOOOO........",
"OOOOOOOOOOOOOOOO....OOOOOOOOOOOOOOOOOOOOOOOO....",
"OOOOOOOOOOOOOOOO....OOOOOOOOOOOOOOOOOOOOOOOO....",
"OOOOOOOOOOOOOOOO....OOOOOOOOOOOOOOOOOOOOOOOO...."
};
