/* XPM */
static char *result[] = {
/* columns rows colors chars-per-pixel */
"48 48 68 1 ",
"  c #85578E",
". c #7B5285",
"X c #413642",
"o c #59425E",
"O c #363137",
"+ c #734F7B",
"@ c #81558B",
"# c #6D4B79",
"$ c #5A4267",
"% c #6C4B73",
"& c #634770",
"* c #483A4A",
"= c #60456D",
"- c #694975",
"; c #513D62",
": c #4C3960",
"> c #564064",
", c #5E4368",
"< c #543F63",
"1 c #43325C",
"2 c #4A375F",
"3 c #4F3B61",
"4 c #48365E",
"5 c #694877",
"6 c #423646",
"7 c #5E436C",
"8 c #4A385F",
"9 c #45345D",
"0 c #3A2F4E",
"q c #40305B",
"w c #332E3B",
"e c #5B416B",
"r c #3E2F5A",
"t c #372F45",
"y c #3B2F51",
"u c #322E38",
"i c #3D2F56",
"p c #35303C",
"a c #2F2E2F",
"s c #302E33",
"d c #724E7D",
"f c #4E3965",
"g c #624375",
"h c #4C3765",
"j c #3F3250",
"k c #5B435F",
"l c #6E4C79",
"z c #785082",
"x c #493660",
"c c #774F83",
"v c #614373",
"b c #3E3542",
"n c #54405D",
"m c #3A333E",
"M c #4B3B55",
"N c #553E65",
"B c #533C67",
"V c #5D4170",
"C c #4E3962",
"Z c #362E44",
"A c #7E5486",
"S c #59406A",
"D c #7F548A",
"F c #443847",
"G c #63476A",
"H c #393240",
"J c #44325E",
"K c #483758",
/* pixels */
"   . XX   .    XX .     . oO+  @@   oO+@@    @@+",
" ##$.%%.&.$&.&.%%.$&.&&.$# * &.==### * ==##&.== ",
"-;:>>,,>><1>2;>,,>2;>3<4<>567>>83;:>567;:>;;2;>7",
"=>922002218;;;2002>;21<31;qw1;91<2;;qw1>;;q;>q;1",
"e8rrrttrrrrrr8rttr8rrr8rrryuirrrrr8ryui11rr11rri",
"pwwwwaawwwwwwwwaawwwwwwwwwsauwwwwwwwsauwwwwwwwwu",
" .     . @@+Oo    .    XX   .  . XX    @@   oO+ ",
" d. ###$.== * ###&$&.&.%%.&.$##$.%%.&.&==### * &",
"==fg8<3>2>;h6g8>><1;;<1,,1<3<;;<1,,1<>>832>8g6h;",
"=;qrr1r99;qrwrr221r9;1r00r1r19;1r00r1;9r122rrwrq",
"j0000000000tau000000000aa00000000aa000000000uat0",
"%%%%%%Xak%%%%%%%%kaX%%%%%%%kaX%%%%%%%%%aa%%%%%%%",
".ll@z. * z@ll@=zz.*@z@z=@zz * ...=@llzz%%z@z=..z",
"$>>=>xc*v2=>>=>>2$b=>=>2=>2v*cx$$>=>>;;nn>=>2$$;",
"=8rrrryuirr13rrrriuyrrrrrrriuyrrr31rrrrttrrrrrrr",
"mwwwwwsauwwwwwwwwuaswwwwwwwuaswwwwwwwwwaawwwwwww",
"        ..  oO+  @z  +Oo     @z  +Oo   z@  XX   ",
"#&.&.&&.$$.# * ##=>## * ###&.=>## * #.&>=..%%.&.",
"l>>;>88>29;8g6h;>81>;h6g8>;1<;92;h6g8>;q;<1,,1<<",
"=>2q9rr99>2rrwrq9r19qrwrr9qr19;;qrwrr9qq91r00r11",
"M00000000000uat000000tau000000000tau0000000aa000",
"%%%%%aa%%%%%%%%aa%%%%%%%%%Xak%%%%%%%Xak%%%%%%%%k",
" ..=@%%@z@=z@z@%%@=z@zz@=. * z@ll... * ll..z@ll ",
"#NN>=%%=>=2>B>=%%=2>=>>B>$.*#>=;;NN$.*#;;$$>B>>#",
"l>9;;00;;81<<2;00;>2;q;38<1w8<3q;;2<1w8>2<12>1<8",
"=;qqq00qqr111;q00q;9qq;1r1rwr1rq9q;1rwr221r22r1r",
"j0000aa00000000aa000000000uat0000000uat00000000t",
"%%%%%%%%%%%kaX%%%%%%%%%aa%%%%%%%%aa%%%%%%%%%Xak%",
" -@ ...=@ll * ...z=z@z@%%@z@=..=@%%@z@zll... * z",
"#-VcN$$>B>>v*cN$$>2;e>B%%B>=>NN>B%%B>=>;;C$Nc*v>",
"$<1rr8r33<1rwrr;;8r3<8r00r8r83<8r00r8<3r8;;rrwr1",
"C1rrrrrrr1rysZrqqrrr1rruurrrrr1rruurr1rrrqqrZsyr",
"******OaX********XaO*******XaO*********aa*******",
" ..   +XA  .. #  AX+   #   AX+   # ..  kk   #   ",
"=>>l>SD*c;l>>l>>;=Fl>l>;l>;c*DS==>l>><<GG>l>;==<",
"=;999rhHJq92>999q9p9999q99qJHhr99>29911jj999q991",
"M00000uat00000000tau0000000tau000000000aa0000000",
"%%%%%%%%%%%%Xak%%%%%%kaX%%%%%%%%%kaX%%%%%%%aa%%%",
".z@z@zz@==@. * ..l>.. * ...z@l>.. * .@z>l@@%%@z@",
"d>=>=;;=29eNc*v$$;9$$v*cN$$2=;9C$v*cN=>9;=B%%B>=",
"$>;13rr33>;rrwr13r831rwrr31r83<<1rwrr31138r00r88",
"$9qrrrrrr9qrZsyrrrrrrysZrrrrrr11rysZrrrrrrruurrr",
"*****aa********aa*********OaX*******OaX********X",
"   # kk   #    kk #     # +XA  ..   +XA..    ..A",
".77>l%%l>l;>5>l%%l;>l>>5>=@*.>l<<77=@*.<<==>5>>.",
"d<4>>KK>>;q>;2>KK>;2>9;:;>BHN>>13<4>BHN<4>22;2>N",
"$<1110011r888<1001<311<8r8rwr8r131<8rwr;;8r;;r8r",
"C1rrruurrrrrr1ruur1rrr1rrrZsyrrrrr1rZsyqqrrqqrry"
};
