/* XPM */
static char *result[] = {
/* columns rows colors chars-per-pixel */
"48 48 8 1 ",
"  c #7A5572",
". c #AD3C68",
"X c #D75E57",
"o c #C34360",
"O c #E9935B",
"+ c #6B85D4",
"@ c #7EB4E7",
"# c None",
/* pixels */
"############    OOOOOOOOOOOOOOOOO    ###########",
"##########   OOOOOOOOOOOOOOOOOOOOOOO   #########",
"#########  OOOOOOOXXXXXXXXXXXXXOOOOOOO  ########",
"########  OOOOOXXX             XXXOOOOO  #######",
"#######  OOOOXX                   XXOOOO  ######",
"######  OOOXX                       XXOOO  #####",
"######  OOXX   oo.o                  XXOO  #####",
"#####  OOXX  oooXooo                  XXOO  ####",
"#####  OOXX oooXX.oo                  XXOO  ####",
"#####  OXX .ooXXX ooo                  XXO  ####",
"####  OOXX .ooXoX o.o                  XXOO  ###",
"####  OOXX .ooXXX.o.o                  XXOO  ###",
"####  OXX o.ooXoXoo.o                   XXO  ###",
"####  OXX . ooo ... .                   XXO  ###",
"####  OXX                               XXO  ###",
"####  OXX o XXOOXXXXo                   XXO  ###",
"####  OXX XoXOOOOXXXX                   XXO  ###",
"####  OXX XXX OOOXXX                    XXO  ###",
"####  OXX XoX OOOXXX                    XXO  ###",
"####  OXX XoXXOOXXXXX                   XXO  ###",
"####  OXX o XXXXXXXXo                   XXO  ###",
"####  OXX                               XXO  ###",
"####  OXX . ooo ... .                   XXO  ###",
"####  OXX o ooo ... .                   XXO  ###",
"####  OXX o.ooXoXoo.                    XXO  ###",
"####  OXX ooooXoXoo.+@                  XXO  ###",
"####  OXX o.ooXXX.o.  @                 XXO  ###",
"####  OXX o.ooXoX oo. +                 XXO  ###",
"####  OXX o.ooXoXoo.. +                 XXO  ###",
"####  OXX ooo.XoX.oo  +                 XXO  ###",
"####  OXX ooo XXXoo.++                  XXO  ###",
"####  OXX o.o.XXXoo.                    XXO  ###",
"####  OXX o ooXoXoo.o                   XXO  ###",
"####  OXX . ooo ..o .                   XXO  ###",
"####  OXX                               XXO  ###",
"####  OXX o XXOOXXXXo                   XXO  ###",
"####  OXX XoXOOOOXXXX                   XXO  ###",
"####  OXX XXX OOOXXX                    XXO  ###",
"####  OXX XoX OOOXXX                    XXO  ###",
"####  OXX XoXXOOXXXXX                   XXO  ###",
"####  OXX o XXXXXXXXo                   X X  ###",
"####  OXX                               XXO  ###",
"####  X X . oo. ... .                   X X  ###",
"####  OXX o.ooo ... .                   X X  ###",
"####  X X oooXXXXoo.o                   XXO  ###",
"####  X X o.oXXoXoooo                   X X  ###",
"####  X   o.oXXoXoo.o                     X  ###",
"####                                         ###"
};
