/* XPM */
static char *result[] = {
/* columns rows colors chars-per-pixel */
"88 88 42 1 ",
"  c black",
". c #000001",
"X c #020202",
"o c #010204",
"O c #020205",
"+ c #020306",
"@ c #020307",
"# c #090906",
"$ c #0D0B07",
"% c #020308",
"& c #030409",
"* c #040509",
"= c #04050A",
"- c #0F0C0F",
"; c #050711",
": c #060812",
"> c #29292A",
", c #202437",
"< c #282A32",
"1 c #44413B",
"2 c #2D3148",
"3 c #44464D",
"4 c #494B52",
"5 c #4B4D64",
"6 c #5D5F65",
"7 c #828388",
"8 c #91908E",
"9 c #96979B",
"0 c #A0A1A6",
"q c #C3C4C6",
"w c #DEDEDF",
"e c #E8E9FF",
"r c #F0F0F1",
"t c gray95",
"y c #F2F3F5",
"u c #FFFFFB",
"i c #FDFDFD",
"p c #FFFFFD",
"a c #FFFFFE",
"s c #FEFEFF",
"d c white",
"f c None",
/* pixels */
"ffffffffffffffffffffffffffffffffffffffffffffffffffffffffffffffffffffffffffffffffffffffff",
"ffffffffffffffffffffffffffffffffffffffffffffffffffffffffffffffffffffffffffffffffffffffff",
"ffffffffffffffffffffffffffffffffffffffffffffffffffffffffffffffffffffffffffffffffffffffff",
"ffffffffffffffffffffffffffffffffffffffffffffffffffffffffffffffffffffffffffffffffffffffff",
"ffffffffffffffffffffffffffffffffffffffffffffffffffffffffffffffffffffffffffffffffffffffff",
"ffffffffffffffffffffffffffffffffffffffffffffffffffffffffffffffffffffffffffffffffffffffff",
"ffffffffffffffffffffffffffffffffffffffffffffffffffffffffffffffffffffffffffffffffffffffff",
"ffffffffffffffffffffffffffffffffffffffffffffffffffffffffffffffffffffffffffffffffffffffff",
"ffffffffffffffffffffffffffffffffffffffffffffffffffffffffffffffffffffffffffffffffffffffff",
"ffffffffffffffffffffffffffffffffffffffffffffffffffffffffffffffffffffffffffffffffffffffff",
"ffffffffffffffffffffffffffffffffffffffffffffffffffffffffffffffffffffffffffffffffffffffff",
"ffffffffffffffffffffffffffffffffffffffffffffffffffffffffffffffffffffffffffffffffffffffff",
"ffffffffffffffffffffffffffffffffffffffffffpdddddddddafffffffffffffffffffffffffffffffffff",
"fffffffffffffffffffffffffffffffffffffffffddddddddddddfffffffffffffffffffffffffffffffffff",
"fffffffffffffffffffffffffffffffffffffffddddddddddddddfffffffffffffffffffffffffffffffffff",
"fffffffffffffffffffffffffffffffffffffaddddddddddddddy2,>ffffffffffffffffffffffffffffffff",
"fffffffffffffffffffffffffffffffffffdddddddddddddddddt::*ffffffffffffffffffffffffffffffff",
"fffffffffffffffffffffffffffffffffaddddddddddddddddddt:::ffffffffffffffffffffffffffffffff",
"fffffffffffffffffffffffffffffffasdddddddddddddddddddt:::ffffffffffffffffffffffffffffffff",
"ffffffffffffffffffffffffffffffddddddddddddddddddddddt::&ffffffffffffffffffffffffffffffff",
"ffffffffffffffffffffffffffffffpdddddddddddddddddddddt::@ffffffffffffffffffffffffffffffff",
"fffffffffffffffffffffffffffffffdddddddddddddddddddddt::+ffffffffffffffffffffffffffffffff",
"fffffffffffffffffffffffffffffffpddddddddddddddddddddt::Offffffffffffffffffffffffffffffff",
"ffffffffffffffffffffffffffffffffsdddddddddddddddddddt::Offffffffffffffffffffffffffffffff",
"ffffffffffffffffffffffffffffffffpddddddiq9ddddddddddt::Offffffffffffffffffffffffffffffff",
"fffffffffffffffffffffffffffffffffddddw7<:4ddddddddddt::Offffffffffffffffffffffffffffffff",
"fffffffffffffffffffffffffffffffffui03::::4ddddddddddt::offffffffffffffffffffffffffffffff",
"fffffffffffffffffffffffffffffffffff5:::::4ddddddddddt::.ffffffffffffffffffffffffffffffff",
"ffffffffffffffffffffffffffffffffffff=::::1ddddddddddt:: ffffffffffffffffffffffffffffffff",
"ffffffffffffffffffffffffffffffffffff$;X#ffddddddddddt:: ffffffffffffffffffffffffffffffff",
"ffffffffffffffffffffffffffffffffffffffffffddddddddddt:: ffffffffffffffffffffffffffffffff",
"ffffffffffffffffffffffffffffffffffffffffffddddddddddt:: ffffffffffffffffffffffffffffffff",
"ffffffffffffffffffffffffffffffffffffffffffddddddddddt:: ffffffffffffffffffffffffffffffff",
"ffffffffffffffffffffffffffffffffffffffffffddddddddddt:: ffffffffffffffffffffffffffffffff",
"ffffffffffffffffffffffffffffffffffffffffffddddddddddt:: ffffffffffffffffffffffffffffffff",
"ffffffffffffffffffffffffffffffffffffffffffddddddddddt:: ffffffffffffffffffffffffffffffff",
"ffffffffffffffffffffffffffffffffffffffffffddddddddddt:: ffffffffffffffffffffffffffffffff",
"ffffffffffffffffffffffffffffffffffffffffffddddddddddt:: ffffffffffffffffffffffffffffffff",
"ffffffffffffffffffffffffffffffffffffffffffddddddddddt:: ffffffffffffffffffffffffffffffff",
"ffffffffffffffffffffffffffffffffffffffffffddddddddddt:: ffffffffffffffffffffffffffffffff",
"ffffffffffffffffffffffffffffffffffffffffffddddddddddt:: ffffffffffffffffffffffffffffffff",
"ffffffffffffffffffffffffffffffffffffffffffddddddddddt:: ffffffffffffffffffffffffffffffff",
"ffffffffffffffffffffffffffffffffffffffffffddddddddddt:: ffffffffffffffffffffffffffffffff",
"ffffffffffffffffffffffffffffffffffffffffffddddddddddt:: ffffffffffffffffffffffffffffffff",
"ffffffffffffffffffffffffffffffffffffffffffddddddddddt:: ffffffffffffffffffffffffffffffff",
"ffffffffffffffffffffffffffffffffffffffffffddddddddddt:: ffffffffffffffffffffffffffffffff",
"ffffffffffffffffffffffffffffffffffffffffffddddddddddt:: ffffffffffffffffffffffffffffffff",
"ffffffffffffffffffffffffffffffffffffffffffddddddddddt:: ffffffffffffffffffffffffffffffff",
"ffffffffffffffffffffffffffffffffffffffffffddddddddddt:: ffffffffffffffffffffffffffffffff",
"ffffffffffffffffffffffffffffffffffffffffffddddddddddt:: ffffffffffffffffffffffffffffffff",
"ffffffffffffffffffffffffffffffffffffffffffddddddddddt:: ffffffffffffffffffffffffffffffff",
"ffffffffffffffffffffffffffffffffffffffffffddddddddddt:: ffffffffffffffffffffffffffffffff",
"ffffffffffffffffffffffffffffffffffffffffffddddddddddt:: ffffffffffffffffffffffffffffffff",
"ffffffffffffffffffffffffffffffffffffffffffddddddddddt:: ffffffffffffffffffffffffffffffff",
"ffffffffffffffffffffffffffffffffffffffffffddddddddddt:: ffffffffffffffffffffffffffffffff",
"ffffffffffffffffffffffffffffffffffffffffffddddddddddt:: ffffffffffffffffffffffffffffffff",
"ffffffffffffffffffffffffffffffffffffffffffddddddddddt:: ffffffffffffffffffffffffffffffff",
"ffffffffffffffffffffffffffffffffffffffffffddddddddddt:: ffffffffffffffffffffffffffffffff",
"ffffffffffffffffffffffffffffffffffffffffffddddddddddt:: ffffffffffffffffffffffffffffffff",
"ffffffffffffffffffffffffffffffffffffffffffddddddddddt:: ffffffffffffffffffffffffffffffff",
"ffffffffffffffffffffffffffffffffffffffffffddddddddddt:: ffffffffffffffffffffffffffffffff",
"ffffffffffffffffffffffffffffffffffffffffffddddddddddt:: ffffffffffffffffffffffffffffffff",
"ffffffffffffffffffffffffffffffffffffffffffddddddddddt:: ffffffffffffffffffffffffffffffff",
"ffffffffffffffffffffffffffffffffffffffffffddddddddddt::.ffffffffffffffffffffffffffffffff",
"ffffffffffffffffffffffffffffffffffffffffffddddddddddt::offffffffffffffffffffffffffffffff",
"ffffffffffffffffffffffffffffffffffffffffffddddddddddt::offffffffffffffffffffffffffffffff",
"ffffffffffffffffffffffffffffffffffffffffffddddddddddt::Offffffffffffffffffffffffffffffff",
"ffffffffffffffffffffffffffffffffffffffffffddddddddddt::+ffffffffffffffffffffffffffffffff",
"ffffffffffffffffffffffffffffffffffffffffffddddddddddt::+ffffffffffffffffffffffffffffffff",
"ffffffffffffffffffffffffffffffffffffffffffadddddddddr::@ffffffffffffffffffffffffffffffff",
"ffffffffffffffffffffffffffffffffffffffffffffe87777776::%ffffffffffffffffffffffffffffffff",
"fffffffffffffffffffffffffffffffffffffffffffff-:::::::::%ffffffffffffffffffffffffffffffff",
"fffffffffffffffffffffffffffffffffffffffffffff :::::::::offffffffffffffffffffffffffffffff",
"fffffffffffffffffffffffffffffffffffffffffffff           ffffffffffffffffffffffffffffffff",
"ffffffffffffffffffffffffffffffffffffffffffffffffffffffffffffffffffffffffffffffffffffffff",
"ffffffffffffffffffffffffffffffffffffffffffffffffffffffffffffffffffffffffffffffffffffffff",
"ffffffffffffffffffffffffffffffffffffffffffffffffffffffffffffffffffffffffffffffffffffffff",
"ffffffffffffffffffffffffffffffffffffffffffffffffffffffffffffffffffffffffffffffffffffffff",
"ffffffffffffffffffffffffffffffffffffffffffffffffffffffffffffffffffffffffffffffffffffffff",
"ffffffffffffffffffffffffffffffffffffffffffffffffffffffffffffffffffffffffffffffffffffffff",
"ffffffffffffffffffffffffffffffffffffffffffffffffffffffffffffffffffffffffffffffffffffffff",
"ffffffffffffffffffffffffffffffffffffffffffffffffffffffffffffffffffffffffffffffffffffffff",
"ffffffffffffffffffffffffffffffffffffffffffffffffffffffffffffffffffffffffffffffffffffffff",
"ffffffffffffffffffffffffffffffffffffffffffffffffffffffffffffffffffffffffffffffffffffffff",
"ffffffffffffffffffffffffffffffffffffffffffffffffffffffffffffffffffffffffffffffffffffffff",
"ffffffffffffffffffffffffffffffffffffffffffffffffffffffffffffffffffffffffffffffffffffffff",
"ffffffffffffffffffffffffffffffffffffffffffffffffffffffffffffffffffffffffffffffffffffffff",
"ffffffffffffffffffffffffffffffffffffffffffffffffffffffffffffffffffffffffffffffffffffffff"
};
