/* XPM */
static char *result[] = {
/* columns rows colors chars-per-pixel */
"88 88 92 1 ",
"  c black",
". c #010101",
"X c #020202",
"o c #100F09",
"O c #181400",
"+ c #101010",
"@ c gray9",
"# c #1B1B1B",
"$ c gray12",
"% c #2D2D2D",
"& c #3E3C2F",
"* c #353530",
"= c #3C3C3A",
"- c gray33",
"; c #6F6D5A",
": c gray40",
"> c gray49",
", c #808080",
"< c #838383",
"1 c #848484",
"2 c #898989",
"3 c gray55",
"4 c #959592",
"5 c gray58",
"6 c #979797",
"7 c #989790",
"8 c #9A9A9A",
"9 c #9E9E9A",
"0 c #A09E9E",
"q c #A0A09E",
"w c #A8A699",
"e c #BAB699",
"r c #A0A0A0",
"t c gray63",
"y c #A2A2A2",
"u c #A5A5A3",
"i c #A4A4A4",
"p c #A5A5A5",
"a c #A7A7A5",
"s c #AFAFAF",
"d c gray69",
"f c #B2B2B2",
"g c gray71",
"h c #B8B8B7",
"j c #BCBCBC",
"k c gray74",
"l c gray75",
"z c #CDC9AF",
"x c #C3C3B7",
"c c #C4C1B7",
"v c #C5C5C5",
"b c #CDCDCD",
"n c #CECECE",
"m c #CFCFCE",
"M c #D8D7CF",
"N c #D2D2D2",
"B c #D5D5D5",
"V c #DADAD7",
"C c #D8D8D8",
"Z c #DADADA",
"A c #DDDDDD",
"S c gray87",
"D c #DFDFDF",
"F c #EAE6D7",
"G c #F7F1D5",
"H c gray88",
"J c #E1E1E1",
"K c gray89",
"L c #E7E7E3",
"P c gray91",
"I c #EAEAEA",
"U c #ECECEC",
"Y c #EEEEEE",
"T c #FFFFE5",
"R c #FAF8EB",
"E c #FFFFE8",
"W c gray95",
"Q c #F3F3F3",
"! c #F4F4F4",
"~ c gray96",
"^ c #FFFFF6",
"/ c #F8F8F8",
"( c #F9F9F9",
") c gray98",
"_ c #FBFBFB",
"` c gray99",
"' c #FDFDFD",
"] c #FFFFFD",
"[ c #FEFEFE",
"{ c #FFFFFE",
"} c white",
"| c None",
/* pixels */
"||||||||||||||||||||||||||||||||||||||||||||||||||||||||||||||||||||||||||||||||||||||||",
"||||||||||||||||||||||||||||||||||||||||||||||||||||||||||||||||||||||||||||||||||||||||",
"||||||||||||||||||||||||||||||||||||||||||||||||||||||||||||||||||||||||||||||||||||||||",
"||||||||||||||||||||||||||||||||||||||||||||||||||||||||||||||||||||||||||||||||||||||||",
"||||||||||||||||||||||||||||||||||||||||||||||||||||||||||||||||||||||||||||||||||||||||",
"||||||||||||||||||||||||||||||||||||||||||||||||||||||||||||||||||||||||||||||||||||||||",
"||||||||||||||||||||||||||||||||||||||||||||||||||||||||||||||||||||||||||||||||||||||||",
"||||||||||||||||||||||||||||||||||||||||||||||||||||||||||||||||||||||||||||||||||||||||",
"||||||||||||||||||||||||||||||||||||||||||||||||||||||||||||||||||||||||||||||||||||||||",
"||||||||||||||||||||||||||||||||||||||||||||||||||||||||||||||||||||||||||||||||||||||||",
"||||||||||||||||||||||||||||||||||||||||||||||||||||||||||||||||||||||||||||||||||||||||",
"||||||||||||||||||||||||||||||||||||||||||||||||||||||||||||||||||||||||||||||||||||||||",
"|||||||||||||||||||||||||||||||||||||||]{}}}}}}}}|||||||||||||||||||||||||||||||||||||||",
"|||||||||||||||||||||||||||||||||||||}}}}}}}}}}}}}}]||||||||||||||||||||||||||||||||||||",
"|||||||||||||||||||||||||||||||||||}}}}}}}}}}}}}}}}}}]||||||||||||||||||||||||||||||||||",
"||||||||||||||||||||||||||||||||||}}}}}}}}}}}}}}}}}}}}}|||||||||||||||||||||||||||||||||",
"||||||||||||||||||||||||||||||||}}}}}}}}}}}}}}}}}}}}}}}}||||||||||||||||||||||||||||||||",
"|||||||||||||||||||||||||||||||]}}}}}}}}}}}}}}}}}}}}}}}}{|||||||||||||||||||||||||||||||",
"|||||||||||||||||||||||||||||||}}}}}}}}}}}}}}}}}}}}}}}}}}^||||||||||||||||||||||||||||||",
"||||||||||||||||||||||||||||||}}}}}}}}}}}}}}}}}}}}}}}}}}}}G|||||||||||||||||||||||||||||",
"|||||||||||||||||||||||||||||}}}}}}}}}}}}}}}}}}}}}}}}}}}}}}|||||||||||||||||||||||||||||",
"|||||||||||||||||||||||||||||}}}}}}}}}}}}}})~}}}}}}}}}}}}}}F||||||||||||||||||||||||||||",
"||||||||||||||||||||||||||||}}}}}}}}}}}}W1%X #:A}}}}}}}}}}}[||||||||||||||||||||||||||||",
"||||||||||||||||||||||||||||}}}}}}}}}}}N$      oq}}}}}}}}}}}x|||||||||||||||||||||||||||",
"||||||||||||||||||||||||||||}}}}}}}}}}K@      |||z}}}}}}}}}}L|||||||||||||||||||||||||||",
"|||||||||||||||||||||||||||{}}}}}}}}}}-     ||||||]}}}}}}}}}(|||||||||||||||||||||||||||",
"|||||||||||||||||||||||||||}}}}}}}}}}J.   |||||||||}}}}}}}}}}r||||||||||||||||||||||||||",
"|||||||||||||||||||||||||||}}}}}}}}}}t    |||||||||}}}}}}}}}}u||||||||||||||||||||||||||",
"|||||||||||||||||||||||||||}}}}}}}}}},   ||||||||||}}}}}}}}}}i||||||||||||||||||||||||||",
"|||||||||||||||||||||||||||}}}}}}}}}}2  |||||||||||}}}}}}}}}}i||||||||||||||||||||||||||",
"|||||||||||||||||||||||||||}}}}}}}}}}g  |||||||||||}}}}}}}}}}0||||||||||||||||||||||||||",
"|||||||||||||||||||||||||||}}}}}}}}}}Q+ |||||||||||}}}}}}}}}}y||||||||||||||||||||||||||",
"|||||||||||||||||||||||||||{}}}}}}}}}}<O||||||||||{}}}}}}}}}}8||||||||||||||||||||||||||",
"|||||||||||||||||||||||||||]}}}}}}}}}});|||||||||}}}}}}}}}}}_|||||||||||||||||||||||||||",
"||||||||||||||||||||||||||||}}}}}}}}}}}~||||||||]}}}}}}}}}}}B|||||||||||||||||||||||||||",
"||||||||||||||||||||||||||||{}}}}}}}}}}}{T|||||{}}}}}}}}}}}}f|||||||||||||||||||||||||||",
"|||||||||||||||||||||||||||||}}}}}}}}}}}}}}}{}}}}}}}}}}}}}}}||||||||||||||||||||||||||||",
"|||||||||||||||||||||||||||||}}}}}}}}}}}}}}}}}}}}}}}}}}}}}}S||||||||||||||||||||||||||||",
"||||||||||||||||||||||||||||||}}}}}}}}}}}}}}}}}}}}}}}}}}}}}k||||||||||||||||||||||||||||",
"||||||||||||||||||||||||||||||}}}}}}}}}}}}}}}}}}}}}}}}}}}}}|||||||||||||||||||||||||||||",
"|||||||||||||||||||||||||||||||}}}}}}}}}}}}}}}}}}}}}}}}}}}H|||||||||||||||||||||||||||||",
"||||||||||||||||||||||||||||||||}}}}}}}}}}}}}}}}}}}}}}}}}}l|||||||||||||||||||||||||||||",
"|||||||||||||||||||||||||||||||||]}}}}}}}}}}}}}}}}}}}}}}}}||||||||||||||||||||||||||||||",
"||||||||||||||||||||||||||||||||||E}}}}}}}}}}}}}}}}}}}}}}C||||||||||||||||||||||||||||||",
"||||||||||||||||||||||||||||||||||||R}}}}}}}}}}}}}}}}}}}}s||||||||||||||||||||||||||||||",
"|||||||||||||||||||||||||||||||||||||ecmY`}'D/}}}}}}}}}}_|||||||||||||||||||||||||||||||",
"||||||||||||||||||||||||||||||||||||||||||>|3'}}}}}}}}}}n|||||||||||||||||||||||||||||||",
"|||||||||||||||||||||||||||||||||||||||||||||}}}}}}}}}}}||||||||||||||||||||||||||||||||",
"||||||||||||||||||||||||||||||||||||||||||||}}}}}}}}}}}!||||||||||||||||||||||||||||||||",
"||||||||||||||||||||||||||||||||||||||||||||}}}}}}}}}}}v||||||||||||||||||||||||||||||||",
"||||||||||||||||||||||||||||||||||||||||||||}}}}}}}}}}}|||||||||||||||||||||||||||||||||",
"|||||||||||||||||||||||||||||||||||||||||||{}}}}}}}}}}U|||||||||||||||||||||||||||||||||",
"|||||||||||||||||||||||||||||||||||||||||||}}}}}}}}}}}j|||||||||||||||||||||||||||||||||",
"|||||||||||||||||||||||||||||||||||||||||||}}}}}}}}}}}||||||||||||||||||||||||||||||||||",
"||||||||||||||||||||||||||||||||||||||||||}}}}}}}}}}}H||||||||||||||||||||||||||||||||||",
"||||||||||||||||||||||||||||||||||||||||||}}}}}}}}}}}s||||||||||||||||||||||||||||||||||",
"|||||||||||||||||||||||||||||||||||||||||]}}}}}}}}}}}|||||||||||||||||||||||||||||||||||",
"|||||||||||||||||||||||||||||||||||||||||}}}}}}}}}}}C|||||||||||||||||||||||||||||||||||",
"|||||||||||||||||||||||||||||||||||||||||}}}}}}}}}}}d|||||||||||||||||||||||||||||||||||",
"||||||||||||||||||||||||||||||||||||||||]}}}}}}}}}}}||||||||||||||||||||||||||||||||||||",
"||||||||||||||||||||||||||||||||||||||||}}}}}}}}}}}b||||||||||||||||||||||||||||||||||||",
"||||||||||||||||||||||||||||||||||||||||}}}}}}}}}}}p||||||||||||||||||||||||||||||||||||",
"|||||||||||||||||||||||||||||||||||||||}}}}}}}}}}}Q|||||||||||||||||||||||||||||||||||||",
"|||||||||||||||||||||||||||||||||||||||}}}}}}}}}}}l|||||||||||||||||||||||||||||||||||||",
"|||||||||||||||||||||||||||||||||||||||}}}}}}}}}}[5|||||||||||||||||||||||||||||||||||||",
"||||||||||||||||||||||||||||||||||||||{}}}}}}}}}}P||||||||||||||||||||||||||||||||||||||",
"||||||||||||||||||||||||||||||||||||||}}}}}}}}}}}g||||||||||||||||||||||||||||||||||||||",
"|||||||||||||||||||||||||||||||||||||]}}}}}}}}}}'6||||||||||||||||||||||||||||||||||||||",
"|||||||||||||||||||||||||||||||||||||}}}}}}}}}}}I|||||||||||||||||||||||||||||||||||||||",
"|||||||||||||||||||||||||||||||||||||}}}}}}}}}}}Z|||||||||||||||||||||||||||||||||||||||",
"||||||||||||||||||||||||||||||||||||||||Mw749ahV||||||||||||||||||||||||||||||||||||||||",
"||||||||||||||||||||||||||||||||||||||||||&*=|||||||||||||||||||||||||||||||||||||||||||",
"||||||||||||||||||||||||||||||||||||||||||||||||||||||||||||||||||||||||||||||||||||||||",
"||||||||||||||||||||||||||||||||||||||||||||||||||||||||||||||||||||||||||||||||||||||||",
"||||||||||||||||||||||||||||||||||||||||||||||||||||||||||||||||||||||||||||||||||||||||",
"||||||||||||||||||||||||||||||||||||||||||||||||||||||||||||||||||||||||||||||||||||||||",
"||||||||||||||||||||||||||||||||||||||||||||||||||||||||||||||||||||||||||||||||||||||||",
"||||||||||||||||||||||||||||||||||||||||||||||||||||||||||||||||||||||||||||||||||||||||",
"||||||||||||||||||||||||||||||||||||||||||||||||||||||||||||||||||||||||||||||||||||||||",
"||||||||||||||||||||||||||||||||||||||||||||||||||||||||||||||||||||||||||||||||||||||||",
"||||||||||||||||||||||||||||||||||||||||||||||||||||||||||||||||||||||||||||||||||||||||",
"||||||||||||||||||||||||||||||||||||||||||||||||||||||||||||||||||||||||||||||||||||||||",
"||||||||||||||||||||||||||||||||||||||||||||||||||||||||||||||||||||||||||||||||||||||||",
"||||||||||||||||||||||||||||||||||||||||||||||||||||||||||||||||||||||||||||||||||||||||",
"||||||||||||||||||||||||||||||||||||||||||||||||||||||||||||||||||||||||||||||||||||||||",
"||||||||||||||||||||||||||||||||||||||||||||||||||||||||||||||||||||||||||||||||||||||||",
"||||||||||||||||||||||||||||||||||||||||||||||||||||||||||||||||||||||||||||||||||||||||",
"||||||||||||||||||||||||||||||||||||||||||||||||||||||||||||||||||||||||||||||||||||||||"
};
