/* XPM */
static char *e4d8484ec768420b99a30c40eb624aad97roXeSMI7VVutYZ[] = {
/* columns rows colors chars-per-pixel */
"50 50 32 1 ",
"  c #875A34",
". c #825631",
"X c #624125",
"o c #7D522F",
"O c #412A18",
"+ c #472F1A",
"@ c #553820",
"# c #784F2D",
"$ c #5B3E25",
"% c #51351E",
"& c #4C321C",
"* c #956339",
"= c #8E5E36",
"- c #392515",
"; c #724B2B",
": c #64452B",
"> c #6D4728",
", c #593B22",
"< c #2C1D10",
"1 c #654B34",
"2 c #76583C",
"3 c #816042",
"4 c #886545",
"5 c #916C4A",
"6 c #9D693C",
"7 c #7D5C3E",
"8 c #725439",
"9 c #6B4F36",
"0 c #A66F3F",
"q c #997452",
"w c #AC7A4D",
"e c #B68353",
/* pixels */
"56www*60* w*6*0*q9* ***o..o## . 63$:,X,%+@::1X1:%8",
"#o*06*.*. 6oo=* 5:#;>##;;#;,$;#o 8-+O+-+-O+O&++-<&",
"2* 6*6=*=66oo*0*q:o.o.>;o;>XX> .=2O+O+OOO-OOO+@&-&",
"3**=*o== 0*># **q;;#. .#.;>>>;#=62+&%%+O%&&+&O++O:",
"*=6**.**.*0  *6*5#o>.*.;o.#>>.#*68O+&&++%%%%,&&%+X",
"4 *=  66o  = 60=q1#;o#.o##>;X#>#73@@+&&$@&%$$@$@+9",
"91191918q8288832291111995e342223377547744q89119:$:",
"<<<<<<<-8-OO-O-+O-<<----X4%@&@@$X%,@X$@$X4<<<<<<<<",
"<<<--O<<$OO-O&O-OOO-OO--$9O++&@XX%,,$X$XX3--<-<<<<",
"<<<-<<<<$<O--+O-<---OO-<+2&&+@&,X&,@@,$$X7---O-<<<",
"<<-<-<<<$---O&+O---<OOO-+:%%+,XX:%&%%,$,;4<O-<O--<",
"<<<<<<<<1-<<<-OO<<<<<<-<@9OOO$@,@&+O-+%+$4<<<<<<<<",
"57744877434224348298237775781255474711245q57123345",
"w= *0=6*.*0= 0=6q;.o 6 ..;.;>>=0*4 *:>. 0**0  .6=6",
"w**6*66. **.#**=qo>;> ;.=;X#X#==.3#.$@;o=*666#;o*6",
"q**w***..*6.: e05 >>.o  .#X .#=6*5.=#X; .o=66 .* 6",
"56 0w  o;. o#=0ee. =6#= = o*=.*605o.>;..>#o* # *6*",
"q*.=w===o>;>>  6e= 66 o#.oo o=..=5> >X#=;X>o#o:;..",
"q3345387755787335192438872222223553399227919:8$:24",
"$:#9;;::5ew00=*==. . * =32X@$;.=* =*.: o64:>,@&%:;",
"X$X$@&X#2=000=*.X#;o# >o*9X@,X>.;o oo$:>.3+@@%++O&",
",@@,@&&o4 660=66..oo 00.*7#o>>;###  o>:#=4,$&&++&&",
"%%O&,+-X56666666 * =60 *07X>##># oo=#;o.=4$:@++@,&",
"@X-&,O<&5060006w*66=00*.*7>>XX;;oo;#  ..*5&,@@X@@@",
"98$,1,&1q3445q7555445w5735891199197727535w1919829:",
"32788:,122277478q7823479119:::::34:191888728822725",
">%$:,&O+,%%@XX:&4$$$XX@%%@%+%O&%>9O+O,%@+%%%%&OOO8",
"#X%@$,%O+,X@$$;+:X,X$#;XXX>@@&%,98O,%@,@@%@&%@&+-$",
"XX%%&&&@+%@%@&X$@OO,&>#>#>X;,$,@:1-O+++-++++O&&+O$",
",:$,%&%%O%@+,%&&8%O++,>>:;XXX@%%:9+O+O+--O@+-&OO-$",
"$$XX@@$@+%$,$,%%7$%&%@:,%&$X$$@O:8++&+&OOO&&&%+OO9",
"343552743:98989819:118275q45q33433743834257q345873",
"X;>o#$>o8O%,&&+@+O&&+,,%75o==ooo  >;#.# ;5X #o=,:>",
">##=.>>#9O@$@%@:,@&@@$X@24#. .== =.o#=*=.5:;.>o:;.",
"#.#=.ooo9O&XX%,$X,,@@$,%23##.;o== o oo.6=4#; >;X$o",
">; o .= 2%X@XX$@,$@$%%@$98;#.o; * = .o#.*5>>;.#X$o",
"+$#o...=4&,:@$,,+%@,@%&%11&,X>X:;;:#>#>: q:;X:>,,X",
"9$2375545333373457234443551:1288121:11299333288:17",
"1&@X$X>,&$X$$$X>q... o.#;#;X@:>#;$OO++%+++&X&@@++1",
",&@%%,X$$$$:X%%,4o;#oo #>#>XX:;X.:-O+-+++,@%&$,-O$",
"$+$$%@XXX$$XXX,X4.#;. **o.o;#$:#71O+%O+++O,X%$$+-$",
":+%,X$X:@,X+&X:%7.o#.oo==*.#..X>=1O+@&&&&&&$%,X@+:",
"@O+O&+++&O@&-+,+8@o#o.>>o.#> 6#>61<O&+O+&%O%&%,,O$",
"3:19911:99921:975182922834433445wq1129998888773783",
"** **=  4.==   ==; =oo#;51$X:X>;:,$X::::oq56=66.  ",
"=##=;>o64;>#oo== ;;. .oX7%%+&%%@@&+@&-O&%3. ;;o;;;",
"#o#*=X#05;>##;=   = 6=.;5$,X%@@$@,&%,@++$4oo=##oo;",
"o * = ;65*.  # o.;# *= .4$%&%%+$,,X&&%$&$4 o o.o#o",
"= *=.#;=4;* *.oo.ooo#;>#7+OO&@&@:%,@&O%&&4.*= =.o#",
"89873;:75:o2899;X$818:$@2,+O+%@$,&@$@,,%&q882;8;::"
};
