/* XPM */
static char *result[] = {
/* columns rows colors chars-per-pixel */
"120 40 67 1 ",
"  c #010101",
". c #030B02",
"X c #080D06",
"o c #070408",
"O c #0A060C",
"+ c #0B0C0B",
"@ c #021100",
"# c #081404",
"$ c #071C03",
"% c #0A1B05",
"& c #0C120A",
"* c #0E1A0A",
"= c #10160F",
"- c #111A0C",
"; c #130B15",
": c #160C19",
"> c #180D1B",
", c #131313",
"< c #161C14",
"1 c #1A151B",
"2 c #1C1C1B",
"3 c #0F200B",
"4 c #16280E",
"5 c #152211",
"6 c #1B2117",
"7 c #1C2B17",
"8 c #1D231B",
"9 c #21261F",
"0 c #25132A",
"q c #29162E",
"w c #2B1731",
"e c #232323",
"r c #252C24",
"t c #2A2B26",
"y c #2C2C2C",
"u c #2E352C",
"i c #3B2F3E",
"p c #333333",
"a c #3C3C3C",
"s c #391E40",
"d c #402249",
"f c #444444",
"g c #4B454D",
"h c #4C4C4C",
"j c #535353",
"k c #5C5C5C",
"l c #636363",
"z c #6B6B6B",
"x c #727272",
"c c #7B7B7B",
"v c #838383",
"b c #8C8C8C",
"n c #939393",
"m c #9B9B9B",
"M c #A5A5A5",
"N c #ABABAB",
"B c #B4B4B4",
"V c #BCBCBC",
"C c #C5C5C5",
"Z c #CCCCCC",
"A c #D4D4D4",
"S c #DCDCDC",
"D c #E4E4E4",
"F c #ECECEC",
"G c #F4F4F4",
"H c #FEFEFE",
"J c None",
/* pixels */
"JJJJJJJJJJJJJJJJJJJJJJJJJJJJJJJJJJJJJJJJJJJJJJJJJJJJJJJJJJJJJJJJJJJJJJJJJJJJJJJJJJJJJJJJJJJJJJJJJJJJJJJJJJJJJJJJJJJJJJJJ",
"JJJJJJJJJJJJJJJJJJJJJJJJJJJJJJJJJJJJJJJJJJJJJJJJJJJJJJJJJJJJJJJJJJJJJJJJJJJJJJJJJJJJJJJJJJJJJJJJJJJJJJJJJJJJJJJJJJJJJJJJ",
"JJJJJJJJJJJJJJJJJJJJJJJJJJJJJJJJJJJJJJJJJJJJJJJJJJJJJJJJJJJJJJJJJJJJJJJJJJJJJJJJJJJJJJJJJJJJJJJJJJJJJJJJJJJJJJJJJJJJJJJJ",
"JJJJJJJJJJJJJJJJJJJJJJJJJJJJJJJJJJJJJJJJJJJJJJJJJJJJJJJJJJJJJJJJJJJJJJJJJJJJJJJJJJJJJJJJJJJJJJJJJJJJJJJJJJJJJJJJJJJJJJJJ",
"JJJJJJJJJJJJJJJJJJJJJJJJJJJJJJJJJJJJJJJJJJJJJJJJJJJJJJJJJJJJJJJJJJJJJJJJJJJJJJJJJJJJJJJJJJJJJJJJJJJJJJJJJJJJJJJJJJJJJJJJ",
"JJJJJJJJJJJJJJJJJJJJJJJJJJJJJJJJJJJJJJJJJJJJJJJJJJJJJJJJJJJJJJJJJJJJJJJJJJJJJJJJJJJJJJJJJJJJJJJJJJJJJJJJJJJJJJJJJJJJJJJJ",
"JJJJJJJJJJJJJJJJJJJJJJJJJJJJJJJJJJJJJJJJJJJJJJJJJJJJJJJJJJJJJJJJJJJJJJJJJJJJJJJJJJJJJJJJJJJJJJJJJJJJJJJJJJJJJJJJJJJJJJJJ",
"JJJJJJJJJJJJJJJJJJJJJJJJJJJJJJJJJJJJJJJJJJJJJJJJJJJJJJJJJJJJJJJJJJJJJJJJJJJJJJJJJJJJJJJJJJJJJJJJJJJJJJJJJJJJJJJJJJJJJJJJ",
"JJJJJJJJJJJJJJJJJJJJJJJJJJJJJJJJJJJJJJJJJJJJJJJJJJJJJJJJJJJJJJJJJJJJJJJJJJJJJJJJJJJJJJJJJJJJJJJJJJJJJJJJJJJJJJJJJJJJJJJJ",
"JJJJJJJJJJJJJJJJJJJJJJJJJJJJJJJJJJJJJJJJJJJJJJJJJJJJJJJJJJJJJJJJJJJJJJJJJJJJJJJJJJJJJJJJJJJJJJJJJJJJJJJJJJJJJJJJJJJJJJJJ",
"JJJJJJJJJJJJJJJJJJJJJJJJJJJJJJJJJJJJJJJJJJJJJJJJJJJJJJJJJJJJJJ JJJJJJJJJJJJJJJJJJJJJJJJJJJJJJJJJJJJJJJJJJJJJJJJJJJJJJJJJ",
"JJJJJJJJJJJJJJJJJ@.@JJJJJJJJJJJJJJJJJJJJJ JJJJJJ.@JJJJJJJJJJJJ  JJJJJJ  JJJJJJJ..JJJJJJJJJJJJ JJJJJJJJ JJJJJJJJJJJJJJJJJ",
"JJ   +,,<ety& J  fzj& J   .X&,2ey6 JJJ  +e  JJ <ap6 JJJJJJJJJJ  o  JJJ 2& JJJ &kza .J 28X JJ h        +2ype JJ  ,+  JJJJ",
"JXhHHHHHHHHHN .eAGHDFj ,GHHHHHHHHD JJJoCHHDt J mHHD JJJJJJJJJ yAZCh J.pASm J.kFHHSC2 lHHD J&jBGn zSDFHHHHHV  ,nFHHSh JJJ",
"J+lHHHHHHHHHM +AHHHHHHytHHHHHHHHHD JJ5jHHHFM.J NHHS JJJJJJJJ  fHHHD   NHHH8 hHHHHHHZ aGGG9< MHHA MHHHFGHHHV +AHHHHHHeJJJ",
"JozFFGHHHHHHn vHHHvSHHMyGDGHHHHHHA=JJ VHHHGG e BHHZ JJJJJJJJJOjHHHHp 2HHHHyoSHHSvHHHf+GDGk oFHHb BHHHHHHHHN vHHHBHHHk&JJ",
"J lSNnHHHc,o  FHHB xHHDyDBvGHHV<+&4J9yHHHHGHp0 CHHC JJJJJJJJJ,kHHHHc vHHHHyhHHHj AHHv ZGHn fHHHa ZHHDnxkfe+ SHHD SHHz,JJ",
"JJ   pHHHz:J;fHHHk jGHH,   FHHNoJJJJ nGHFHHHzO ZHHB JJJJJJJJJ+lHHHHCoDHHHHpmHHG+ NHHB mHHA mHHD  SHHm       HHHF+NSSh<JJ",
"JJJJ+aHHHl1J;xHHHy jHHHeqd GHHM.JJJJoFHHNGHHm  AHHM.JJJJJJJJJ xHHHHHzHHHHHpAHHZ  BHHV lHHH<DHHm  FHHAVZAZyO SHHHZe  .JJJ",
"JJJJ1fHHHk1J nHHHo jFFF2   HHHM JJJ%jHHAzZHHZ  DHHm.JJJJJJJJJ cHHHHHFHHHHHpGHHN  MHDB pHHHbHHHg  HHHGHHHFgw vHHHHGz  JJJ",
"JJJJ,hHHHj+J bHHG  zFAVo  oHHHm.JJJ BHHCtMDAG  FHHb JJJJJJJJJ vHHHHHGGHHHHpFHHn  VGBb oGHHGHHGoo+HHSSHHHGaiJXbHHHFHx JJJ",
"JJJJ jHHHj+J MHHF  mDAC   &HHHb JJJ+GHGDSGFHHy GHHc.JJJJJJJJJ nHHHHHGGHHHHaGHHb +AFZx  VHHHHHN i2HHDVclf2 JJ* aAHHHG<JJJ",
"JJJJ kSHHa,J MFHG oDSCn Oo2SHHc.JJ5jHHHHHHGHHj HFHve8rr@JJJJJ bHHHFHGFSHHHaFHHm jHVAh  bDHHGHk O0HHGl          +CHGGj.JJ",
"JJJ  kZHH+#J zGHHvbHHGj O eZHHh JJ MHHSHHHGCFv<HHHHHHHHc JJJJ xHHHMHHGvHHHaCHHFjZHHS+:>jSHHHG,OOtHHHZBCZAAtoCc, bHAGh8JJ",
"JJJJ kZHH<.J*1AHZHHFAZo  oyCHHj JJ FHDGMzhHbmBeHHGHFHHHcXJJJJ nHHFhHFnxHHHpkGFDHHAFc   2HHHGV J8uHHHHGHHHHalHHGZHHDD+JJJ",
"JJJJolDHH @JJ xHHHDHDy@JJ6yAHHf.JJpHHHB   GGMSuHHGHGHHHx+JJJJ BHHF BB,vHHHaoCHHHDGBo@JJ SHHHz6JtpGGFHFHHHHabHHHHHGHz=JJJ",
"JJJJ lHGF,JJJ  kAGFMe5JJJJyHHGh5J7jDFGl+. AHGGpHFDSZCBNg-JJJJ NHFV  . vGHHp ,nFGScoJJJJ MHHFeJJJuHDSSZCBMn< pmDGFCj JJJJ",
"JJJJJ   X@JJJJJ  XX#$JJJJJ   X%JJJ..X&3JJ .X X. XX X...@JJJJJ   X#@JJJ.#+#$JJ.X#X@JJJJJ  ..&%JJJ   X.....@%J@ .X .*JJJJJ",
"JJJJJJJJJJJJJJJJJJJJJJJJJJJJJJJJJJJJJJJJJJJJJJJJJJJJJJJJJJJJJJ JJJJJJJJJJJJJJJJJJJJJJJJJJJJJJJJJJJJJJJJJJJJJJJJJJJJJJJJJ",
"JJJJJJJJJJJJJJJJJJJJJJJJJJJJJJJJJJJJJJJJJJJJJJJJJJJJJJJJJJJJJJJJJJJJJJJJJJJJJJJJJJJJJJJJJJJJJJJJJJJJJJJJJJJJJJJJJJJJJJJJ",
"JJJJJJJJJJJJJJJJJJJJJJJJJJJJJJJJJJJJJJJJJJJJJJJJJJJJJJJJJJJJJJJJJJJJJJJJJJJJJJJJJJJJJJJJJJJJJJJJJJJJJJJJJJJJJJJJJJJJJJJJ",
"JJJJJJJJJJJJJJJJJJJJJJJJJJJJJJJJJJJJJJJJJJJJJJJJJJJJJJJJJJJJJJJJJJJJJJJJJJJJJJJJJJJJJJJJJJJJJJJJJJJJJJJJJJJJJJJJJJJJJJJJ",
"JJJJJJJJJJJJJJJJJJJJJJJJJJJJJJJJJJJJJJJJJJJJJJJJJJJJJJJJJJJJJJJJJJJJJJJJJJJJJJJJJJJJJJJJJJJJJJJJJJJJJJJJJJJJJJJJJJJJJJJJ",
"JJJJJJJJJJJJJJJJJJJJJJJJJJJJJJJJJJJJJJJJJJJJJJJJJJJJJJJJJJJJJJJJJJJJJJJJJJJJJJJJJJJJJJJJJJJJJJJJJJJJJJJJJJJJJJJJJJJJJJJJ",
"JJJJJJJJJJJJJJJJJJJJJJJJJJJJJJJJJJJJJJJJJJJJJJJJJJJJJJJJJJJJJJJJJJJJJJJJJJJJJJJJJJJJJJJJJJJJJJJJJJJJJJJJJJJJJJJJJJJJJJJJ",
"JJJJJJJJJJJJJJJJJJJJJJJJJJJJJJJJJJJJJJJJJJJJJJJJJJJJJJJJJJJJJJJJJJJJJJJJJJJJJJJJJJJJJJJJJJJJJJJJJJJJJJJJJJJJJJJJJJJJJJJJ",
"JJJJJJJJJJJJJJJJJJJJJJJJJJJJJJJJJJJJJJJJJJJJJJJJJJJJJJJJJJJJJJJJJJJJJJJJJJJJJJJJJJJJJJJJJJJJJJJJJJJJJJJJJJJJJJJJJJJJJJJJ",
"JJJJJJJJJJJJJJJJJJJJJJJJJJJJJJJJJJJJJJJJJJJJJJJJJJJJJJJJJJJJJJJJJJJJJJJJJJJJJJJJJJJJJJJJJJJJJJJJJJJJJJJJJJJJJJJJJJJJJJJJ",
"JJJJJJJJJJJJJJJJJJJJJJJJJJJJJJJJJJJJJJJJJJJJJJJJJJJJJJJJJJJJJJJJJJJJJJJJJJJJJJJJJJJJJJJJJJJJJJJJJJJJJJJJJJJJJJJJJJJJJJJJ",
"JJJJJJJJJJJJJJJJJJJJJJJJJJJJJJJJJJJJJJJJJJJJJJJJJJJJJJJJJJJJJJJJJJJJJJJJJJJJJJJJJJJJJJJJJJJJJJJJJJJJJJJJJJJJJJJJJJJJJJJJ"
};
